<?xml version="1.0" encoding="UTF-8" standalone="no"?>
<!-- Created with Inkscape (http://www.inkscape.org/) -->

<svg
   xmlns:dc="http://purl.org/dc/elements/1.1/"
   xmlns:cc="http://creativecommons.org/ns#"
   xmlns:rdf="http://www.w3.org/1999/02/22-rdf-syntax-ns#"
   xmlns:svg="http://www.w3.org/2000/svg"
   xmlns="http://www.w3.org/2000/svg"
   xmlns:xlink="http://www.w3.org/1999/xlink"
   xmlns:sodipodi="http://sodipodi.sourceforge.net/DTD/sodipodi-0.dtd"
   xmlns:inkscape="http://www.inkscape.org/namespaces/inkscape"
   width="256"
   height="256"
   viewBox="0 0 67.733332 67.733335"
   version="1.1"
   id="svg8"
   inkscape:version="0.92.2 (5c3e80d, 2017-08-06)"
   sodipodi:docname="novelWriter.svg">
  <defs
     id="defs2">
    <linearGradient
       inkscape:collect="always"
       id="linearGradient4515">
      <stop
         style="stop-color:#fffbf5;stop-opacity:1"
         offset="0"
         id="stop4511" />
      <stop
         style="stop-color:#fff0d5;stop-opacity:1"
         offset="1"
         id="stop4513" />
    </linearGradient>
    <radialGradient
       inkscape:collect="always"
       xlink:href="#linearGradient4515"
       id="radialGradient4517"
       cx="19.739843"
       cy="255.82898"
       fx="19.739843"
       fy="255.82898"
       r="31.75"
       gradientUnits="userSpaceOnUse"
       gradientTransform="matrix(1.2020419,-0.0114686,0.01050418,1.1009601,-8.0710528,-26.821147)" />
  </defs>
  <sodipodi:namedview
     id="base"
     pagecolor="#ffffff"
     bordercolor="#666666"
     borderopacity="1.0"
     inkscape:pageopacity="0.0"
     inkscape:pageshadow="2"
     inkscape:zoom="3.959798"
     inkscape:cx="125.90204"
     inkscape:cy="110.93836"
     inkscape:document-units="px"
     inkscape:current-layer="layer1"
     showgrid="false"
     units="px"
     inkscape:window-width="1876"
     inkscape:window-height="1053"
     inkscape:window-x="44"
     inkscape:window-y="27"
     inkscape:window-maximized="1"
     inkscape:pagecheckerboard="true" />
  <metadata
     id="metadata5">
    <rdf:RDF>
      <cc:Work
         rdf:about="">
        <dc:format>image/svg+xml</dc:format>
        <dc:type
           rdf:resource="http://purl.org/dc/dcmitype/StillImage" />
        <dc:title></dc:title>
      </cc:Work>
    </rdf:RDF>
  </metadata>
  <g
     inkscape:label="Layer 1"
     inkscape:groupmode="layer"
     id="layer1"
     transform="translate(0,-229.26666)">
    <rect
       id="rect12"
       width="63.5"
       height="63.5"
       x="2.1166666"
       y="231.38333"
       style="fill:url(#radialGradient4517);fill-opacity:1;stroke-width:0.26458332"
       rx="5.2916665" />
    <path
       style="fill:#1e1300;stroke-width:0.03248556;fill-opacity:1"
       d="m 6.0874524,264.10923 c 0.011144,-0.0817 0.5323466,-0.88916 0.8712627,-1.34911 0.5222403,-0.70865 1.2219106,-1.48366 1.8946127,-2.09858 l 0.2531477,-0.23134 0.00208,-0.20982 c 0.00674,-0.72104 0.277089,-1.52338 0.7832869,-2.325 0.2939116,-0.4654 0.5241706,-0.77422 1.1413106,-1.53052 0.264596,-0.32424 0.618997,-0.76442 0.787469,-0.9781 1.046384,-1.32692 2.134964,-2.54674 3.101453,-3.4753 0.142204,-0.13619 0.372683,-0.36058 0.51268,-0.49807 0.139994,-0.13738 0.341564,-0.31088 0.448119,-0.38504 0.106523,-0.0742 0.54943,-0.4325 0.984376,-0.796 2.283234,-1.90849 4.300607,-3.28068 6.584301,-4.47849 1.308271,-0.68622 2.227829,-1.0983 3.155805,-1.41432 0.884959,-0.30138 1.255498,-0.44477 1.587295,-0.61472 0.357893,-0.18335 0.68963,-0.27531 0.758296,-0.21035 0.04876,0.0458 0.905122,-0.16235 1.458649,-0.35466 0.188156,-0.0655 0.397036,-0.10735 0.558474,-0.11203 0.284604,-0.009 0.638857,-0.0647 1.391007,-0.22071 0.274464,-0.0569 0.884461,-0.15595 1.355572,-0.22007 0.47112,-0.0639 0.971111,-0.14392 1.111069,-0.17752 0.148362,-0.0349 0.381493,-0.0546 0.558249,-0.046 0.338994,0.017 1.08792,-0.0508 1.661522,-0.15036 0.286398,-0.0498 0.389169,-0.0535 0.425396,-0.0154 0.03683,0.0391 0.100164,0.0334 0.282123,-0.0245 0.304129,-0.0968 0.567588,-0.11312 1.236655,-0.0772 0.300814,0.0164 0.757124,0.017 1.013942,0.003 0.480829,-0.028 1.639576,-0.0457 3.32149,-0.0512 1.412424,-0.005 1.718721,-0.003 2.271618,0.0168 3.005367,0.10316 5.836968,-0.23922 8.259019,-0.99936 0.833316,-0.26152 2.833642,-1.00727 3.423156,-1.27622 0.372248,-0.16973 0.622686,-0.34581 1.331815,-0.93642 0.969967,-0.80774 1.39948,-1.24 1.844784,-1.85658 0.416657,-0.57681 0.802768,-1.375 0.754704,-1.56011 -0.01282,-0.0509 -0.01115,-0.0967 0.0061,-0.10133 0.128702,-0.038 0.309697,0.34886 0.376402,0.80248 0.100164,0.68256 0.05807,1.36466 -0.119393,1.94728 -0.08624,0.28269 -0.143011,0.40617 -0.371541,0.80657 -0.179003,0.31371 -0.261953,0.4821 -0.246148,0.50068 0.05048,0.0583 0.01975,0.40014 -0.05802,0.65954 -0.10061,0.33469 -0.423521,0.94708 -0.67601,1.28156 -0.161392,0.21373 -0.181684,0.25352 -0.2074,0.40567 -0.04531,0.26673 -0.180501,0.54869 -0.679822,1.41656 -0.353714,0.61594 -0.523545,0.88288 -0.704266,1.11093 -0.256273,0.32328 -0.62805,0.69629 -0.883345,0.88437 l -0.158571,0.1172 -0.52094,0.95728 c -0.44081,0.80997 -0.544011,0.98171 -0.670639,1.11631 -0.313637,0.33327 -0.548681,0.52178 -0.938894,0.7516 -0.100994,0.0592 -0.202077,0.14219 -0.224595,0.18368 -0.0229,0.0412 -0.111251,0.13345 -0.197712,0.20379 -0.08604,0.0707 -0.209648,0.20505 -0.27484,0.29828 -0.281802,0.40377 -0.804543,0.8789 -1.088218,0.98945 -0.193882,0.0757 -0.352889,0.21511 -0.541353,0.47614 -0.09512,0.13144 -0.240033,0.30242 -0.322122,0.37991 -0.346655,0.32684 -1.068807,0.81836 -1.640172,1.11619 -0.139674,0.0727 -0.362507,0.21381 -0.495195,0.31324 -0.337373,0.25292 -0.498458,0.32827 -1.091986,0.51145 -0.475876,0.14731 -0.543699,0.17776 -0.804494,0.37226 -0.25998,0.19338 -0.324275,0.22334 -0.736027,0.34219 -0.248112,0.0718 -0.616457,0.20066 -0.818604,0.286 -0.41114,0.17424 -0.580097,0.21039 -1.27842,0.27209 -0.266954,0.0236 -0.749832,0.10203 -1.073176,0.17437 -0.61957,0.13855 -1.102127,0.2169 -1.320536,0.21449 -0.07192,-9.4e-4 -0.180277,0.0314 -0.240611,0.0705 -0.175134,0.11609 -0.621198,0.29549 -0.918208,0.36949 -0.384346,0.0951 -0.663971,0.11104 -1.053431,0.0595 -0.380295,-0.0502 -0.412518,-0.0498 -0.826905,0.0103 -0.165187,0.0239 -0.460905,0.0486 -0.657167,0.055 -0.207718,0.006 -0.540625,0.0557 -0.796496,0.11719 -0.75469,0.18125 -0.951278,0.21235 -1.323627,0.209 -0.342728,-0.004 -0.376893,0.005 -0.661914,0.14296 -0.165231,0.0805 -0.539106,0.21858 -0.830735,0.30683 -0.417447,0.12633 -0.610927,0.16429 -0.909757,0.17778 -0.407829,0.0185 -0.717512,0.10092 -0.926638,0.24688 -0.159315,0.11116 -0.905079,0.32821 -1.313231,0.38212 -0.380209,0.0502 -0.568251,0.10013 -0.874959,0.23227 -0.135598,0.058 -0.508292,0.18799 -0.828517,0.28808 -0.530822,0.16587 -0.60164,0.19724 -0.80072,0.35871 -0.34832,0.28212 -0.540688,0.36636 -1.410364,0.61791 -0.886842,0.25661 -1.129091,0.3505 -1.407669,0.54348 -0.275691,0.19153 -0.552445,0.30055 -1.15062,0.45272 -0.900182,0.22959 -0.981009,0.25784 -1.095679,0.38275 -0.05668,0.0616 -0.180033,0.15176 -0.273906,0.20027 -0.0942,0.0482 -0.333398,0.18392 -0.532158,0.3013 -0.535758,0.3165 -0.91892,0.49344 -1.346828,0.62188 -0.210397,0.0635 -0.385286,0.10637 -0.38827,0.0963 -0.01243,-0.0406 0.232462,-0.18812 0.571353,-0.34497 0.39202,-0.18173 0.637181,-0.31255 0.630113,-0.33675 -0.0021,-0.009 -0.08656,-5.7e-4 -0.186751,0.0163 -0.81919,0.14353 -1.786459,0.11054 -2.589455,-0.0884 -0.677516,-0.16769 -1.578804,-0.60135 -2.253456,-1.08414 l -0.292395,-0.20931 0.490129,0.28705 c 1.043832,0.61134 1.986439,0.91039 3.006861,0.95381 0.955361,0.0409 2.311969,-0.20968 2.813504,-0.51926 0.08775,-0.0541 0.164042,-0.10685 0.169994,-0.11756 0.0054,-0.0103 -0.170227,-0.0304 -0.391807,-0.0418 -0.952441,-0.0551 -1.52439,-0.23406 -3.414147,-1.07037 -1.53062,-0.67738 -2.119363,-0.98491 -2.774935,-1.4495 -0.645525,-0.45745 -1.121609,-0.72654 -1.4104,-0.79705 -0.615536,-0.1503 -0.94344,-0.0657 -1.661132,0.42892 -0.254119,0.17513 -0.458398,0.33074 -0.453916,0.346 0.0064,0.0142 0.09801,0.0415 0.208334,0.0577 0.110344,0.017 0.258466,0.0385 0.329564,0.0487 0.07114,0.0103 0.258449,0.0629 0.41653,0.11657 0.33278,0.11265 1.04811,0.52557 1.425811,0.8222 0.21112,0.16575 0.212792,0.16812 0.04167,0.0588 -0.09762,-0.063 -0.345571,-0.22178 -0.550319,-0.35334 -1.120599,-0.71886 -2.065668,-0.7989 -2.548169,-0.21536 -0.06214,0.0747 -0.06321,0.0864 -0.009,0.0908 0.710595,0.06 1.296229,0.38941 2.792273,1.57036 1.339624,1.05724 1.385342,1.08953 2.094382,1.4796 0.685563,0.3772 0.871506,0.44965 1.447007,0.56395 0.446432,0.0889 0.587707,0.0769 1.218029,-0.10254 0.523259,-0.14895 0.771989,-0.19858 0.744961,-0.14878 -0.03531,0.0644 -0.36157,0.24308 -0.657467,0.35968 -0.741294,0.2924 -1.489401,0.41556 -2.265167,0.37378 -0.406099,-0.0229 -0.683478,-0.0568 -1.607296,-0.20464 -0.993774,-0.15849 -1.710032,-0.19057 -2.254704,-0.10033 -0.274304,0.0451 -0.307128,0.0586 -0.290096,0.11684 0.02947,0.10053 0.19043,0.21514 0.470996,0.33622 0.827396,0.35654 1.591885,0.45104 2.261398,0.27965 0.322416,-0.0824 0.601936,-0.11694 0.577068,-0.0711 -0.01565,0.0297 -0.681801,0.43114 -1.013969,0.61181 -0.835266,0.45427 -1.510105,0.62915 -2.125948,0.55081 -0.337037,-0.0428 -0.514176,-0.11067 -1.160993,-0.4449 -0.800314,-0.41331 -1.183487,-0.53996 -1.446473,-0.47805 -0.177093,0.0415 -0.263667,0.18625 -0.213383,0.35725 0.04834,0.16494 0.241557,0.28603 0.659132,0.41205 0.750267,0.22674 1.094305,0.27157 1.469226,0.19194 0.155573,-0.033 0.245791,-0.0331 0.306167,-7.9e-4 l 0.08554,0.0469 -0.157726,0.0669 c -0.377706,0.15963 -1.427498,0.35595 -2.163715,0.40489 -1.598333,0.10625 -2.630824,-0.24391 -3.2695811,-1.10729 -0.085571,-0.11474 -0.1787979,-0.2581 -0.2079419,-0.31833 -0.029082,-0.0601 -0.060945,-0.10697 -0.069774,-0.10463 -0.011021,0.004 -0.1520815,0.17227 -0.3166267,0.37771 -1.1072469,1.37583 -1.9644862,1.96933 -2.9937535,2.07242 -0.2475948,0.0249 -0.2875331,0.0146 -0.2762881,-0.0698 z m 0.4695693,-0.0906 c 0.6139744,-0.12578 1.229182,-0.45657 1.7065445,-0.91758 0.3071953,-0.29676 0.5132204,-0.55181 1.3448301,-1.66402 1.6068317,-2.14936 1.6805467,-2.21974 5.1528557,-4.92091 2.092623,-1.6279 2.911179,-2.24147 4.21671,-3.16082 2.113021,-1.48795 3.587892,-2.40271 5.556856,-3.44643 3.021041,-1.60143 5.735733,-2.64073 8.979599,-3.43775 2.281261,-0.56055 5.962521,-1.22279 10.373462,-1.86619 0.539963,-0.0789 1.021146,-0.15469 1.069335,-0.16853 0.0874,-0.0257 0.0874,-0.0257 -0.0031,-0.0279 -0.212398,-0.006 -1.198542,0.0512 -1.790475,0.10341 -2.243961,0.19766 -4.482031,0.58468 -9.224442,1.59509 -2.324162,0.49513 -4.211329,1.04485 -5.874582,1.71124 -1.837015,0.7365 -4.006959,1.84825 -6.470341,3.31669 -2.772778,1.65291 -5.401048,3.4904 -7.530488,5.2648 -0.838141,0.69837 -4.6128162,4.00453 -5.1538629,4.51412 -0.9057324,0.85306 -1.6295481,1.67633 -2.2449038,2.55337 -0.2820285,0.40194 -0.3716722,0.55706 -0.3345503,0.57736 0.01467,0.008 0.1166497,-0.003 0.2264393,-0.0262 z m 4.6700273,-1.13136 c 0.664172,0.22605 1.660258,0.28226 2.323406,0.13115 l 0.168461,-0.0382 -0.135259,-0.0229 c -0.199144,-0.0332 -0.612055,-0.26794 -0.847995,-0.48214 -0.109633,-0.0997 -0.37384,-0.36066 -0.586462,-0.58078 -0.633613,-0.65435 -0.873322,-0.83277 -1.243977,-0.92564 -0.363359,-0.0911 -0.737124,-0.05 -0.813609,0.0923 -0.03469,0.0632 0.01381,0.10563 0.386463,0.3422 0.151135,0.0953 0.43163,0.29232 0.623648,0.43672 0.522695,0.3934 0.940546,0.66552 1.064695,0.69337 0.1077,0.0239 0.182431,0.0816 0.159827,0.12297 -0.02675,0.0494 -0.452898,-0.11842 -0.805854,-0.31718 -0.266466,-0.15037 -0.461639,-0.28563 -0.710613,-0.49285 -0.38571,-0.32114 -0.727859,-0.55231 -0.80547,-0.54403 -0.028434,0.005 -0.090056,0.0493 -0.1372398,0.10316 -0.1158293,0.13298 -0.1045145,0.21074 0.070534,0.47436 0.3451678,0.51988 0.7206078,0.81367 1.2899568,1.00747 z m -1.7939727,-2.75328 c 0.038328,-0.0451 0.2059775,-0.19637 0.3722134,-0.33652 l 0.3024273,-0.2546 0.105065,-0.57937 c 0.05775,-0.31862 0.165598,-0.83663 0.239529,-1.15116 0.153579,-0.65365 0.172347,-0.65666 -0.308378,0.0498 -0.3702228,0.54414 -0.6397169,1.07988 -0.7459753,1.48317 -0.077966,0.29583 -0.1233393,0.87523 -0.068648,0.87219 0.018723,-0.003 0.064605,-0.0389 0.1033389,-0.0837 z m 3.1418327,1.67584 c 0.148532,-0.10822 0.458426,-0.20473 0.670673,-0.20871 0.169872,-0.005 0.179691,-0.008 0.123559,-0.0572 -0.813942,-0.70897 -1.295639,-1.06128 -1.600879,-1.17045 -0.585949,-0.21013 -1.102061,-0.10073 -1.306456,0.27624 -0.02293,0.0427 -0.0303,0.0788 -0.01568,0.08 0.01523,-0.003 0.131758,0.008 0.260164,0.0132 0.550888,0.0269 0.991167,0.28047 1.500977,0.86441 0.113761,0.13114 0.220546,0.24653 0.236449,0.25708 0.01706,0.008 0.07475,-0.0144 0.131148,-0.0549 z m -1.372169,-1.67706 c 0.235078,-0.0103 0.574622,0.0717 0.791915,0.19079 0.0757,0.0415 0.280481,0.1785 0.454919,0.30446 0.174417,0.12607 0.682978,0.47318 1.130057,0.77155 1.280573,0.85479 1.866293,1.12465 2.539031,1.16953 0.456564,0.0314 0.871214,-0.0534 1.264347,-0.25667 0.17139,-0.0883 0.49259,-0.2947 0.510502,-0.32778 0.0036,-0.008 -0.165678,-0.0139 -0.376268,-0.0194 -0.954743,-0.0172 -1.621106,-0.24737 -2.07634,-0.71752 -0.0832,-0.0852 -0.184069,-0.22449 -0.224019,-0.30924 -0.07267,-0.15351 -0.07316,-0.15379 -0.229683,-0.18309 -0.309006,-0.0577 -0.48448,-0.12743 -1.129935,-0.44755 -0.705669,-0.35009 -0.920257,-0.42357 -1.402591,-0.48042 -0.709994,-0.0838 -1.062624,-0.11474 -1.097511,-0.0975 -0.07006,0.0358 -0.40855,0.39175 -0.384594,0.40484 0.0074,0.004 0.111212,0.004 0.229795,-0.003 z m -0.346151,-1.23579 0.367377,-0.32313 0.0093,-0.29449 c 0.01931,-0.58332 0.114212,-1.19508 0.289155,-1.86412 0.110355,-0.42212 0.110624,-0.42479 0.02005,-0.30901 -0.05071,0.0639 -0.177501,0.20188 -0.28196,0.30645 -0.241477,0.24059 -0.338183,0.42025 -0.537291,0.99742 -0.118425,0.34314 -0.193041,0.6491 -0.293884,1.20293 l -0.135186,0.74275 0.09735,-0.068 c 0.05361,-0.0375 0.262711,-0.21327 0.464782,-0.39097 z m 1.058463,0.57036 c 0.520438,0.0103 0.843065,0.10883 1.782008,0.54515 1.17577,0.54689 1.364099,0.58523 3.528903,0.71929 0.314206,0.0185 0.848786,0.0745 1.187973,0.12311 0.734474,0.10416 1.395256,0.14687 1.768423,0.1145 0.149468,-0.0132 0.269472,-0.0316 0.266804,-0.0406 -0.0032,-0.009 -0.274359,-0.0375 -0.603646,-0.0641 -1.245371,-0.0988 -1.950581,-0.27919 -2.800935,-0.71604 -0.502035,-0.25794 -0.573672,-0.30469 -1.202909,-0.77588 -1.048275,-0.78592 -1.560763,-1.03747 -2.158005,-1.05889 -0.15503,-0.005 -0.816025,0.0292 -0.900179,0.0474 -0.01832,0.005 -1.036574,0.95433 -1.099401,1.02633 -0.03488,0.0389 -0.04986,0.0723 -0.0347,0.0733 0.01527,7.4e-4 0.134752,0.005 0.265245,0.008 z m -0.107797,-1.39848 c 0.221786,-0.19464 0.450505,-0.39484 0.508236,-0.44486 0.103779,-0.0897 0.105934,-0.0989 0.224058,-0.73044 0.208431,-1.11986 0.5217,-2.20406 0.831425,-2.87743 0.07378,-0.16045 0.115609,-0.27947 0.09267,-0.26453 -0.07311,0.0483 -0.583864,0.67919 -0.838952,1.03693 -0.319964,0.4487 -0.751943,1.24416 -0.908172,1.67248 -0.221068,0.60633 -0.365281,1.28612 -0.380507,1.79456 -0.0028,0.1055 0.01078,0.1861 0.03132,0.17945 0.01985,-0.009 0.218349,-0.17149 0.440052,-0.36612 z m 1.915258,0.0386 c 0.322609,0.0225 0.761929,0.14229 1.109476,0.30253 0.334168,0.15402 0.715458,0.40486 1.428622,0.93808 0.620199,0.46397 1.35964,0.88448 1.776892,1.01029 0.367062,0.1103 0.79999,0.18539 1.174894,0.20266 l 0.312655,0.013 -0.401879,-0.24558 c -0.442692,-0.27042 -0.753337,-0.50607 -1.647408,-1.24912 -0.743389,-0.61781 -1.058769,-0.84932 -1.696557,-1.24555 -0.470791,-0.29239 -0.819961,-0.46515 -1.085018,-0.53664 -0.278798,-0.0752 -0.624703,-0.0111 -0.876843,0.16203 -0.08775,0.0604 -0.708555,0.62541 -0.732169,0.66644 -4.54e-4,0.003 0.08913,-0.005 0.20182,-0.0148 0.112695,-0.011 0.30861,-0.0131 0.4355,-0.005 z m -0.579716,-1.24666 c 0.261663,-0.22798 0.514808,-0.44621 0.562539,-0.48497 0.08185,-0.0664 0.08851,-0.0949 0.119051,-0.48838 0.04054,-0.52272 0.16791,-1.27331 0.304723,-1.79482 0.11659,-0.44395 0.417428,-1.31271 0.523985,-1.51257 0.195505,-0.36793 -0.378202,0.33504 -0.779005,0.95334 -0.451841,0.69731 -0.669756,1.26662 -0.977225,2.55319 -0.09494,0.39751 -0.208196,0.84186 -0.251588,0.98749 -0.05722,0.19183 -0.06517,0.25597 -0.02812,0.233 0.02785,-0.0177 0.264451,-0.21824 0.52615,-0.44623 z m 1.368237,-1.15979 0.413989,-0.33978 0.02866,-0.30797 c 0.100893,-1.08443 0.418917,-2.18928 0.979169,-3.40205 0.123631,-0.26781 0.222711,-0.49422 0.22012,-0.50331 -0.01041,-0.0354 -0.319022,0.25834 -0.476706,0.45336 -0.193027,0.23905 -0.451887,0.75165 -0.594402,1.17672 -0.122548,0.36547 -0.276087,0.6984 -0.36195,0.78474 l -0.07145,0.072 0.02685,-0.19151 c 0.01507,-0.10538 0.07996,-0.35167 0.14483,-0.54744 0.06504,-0.1957 0.113356,-0.3719 0.107675,-0.3914 -0.01551,-0.0525 -0.318792,0.60647 -0.444646,0.9656 -0.262883,0.75027 -0.462223,1.7066 -0.520007,2.49481 -0.01282,0.17409 -0.01224,0.17543 0.06053,0.12585 0.04017,-0.0277 0.259744,-0.20282 0.487371,-0.38982 z m 1.674016,-1.29808 c 0.01724,-0.0315 0.04084,-0.18538 0.05292,-0.34196 0.02977,-0.37335 0.118413,-0.76879 0.272549,-1.20692 0.110796,-0.31508 0.225861,-0.54137 1.004456,-1.97727 0.983202,-1.81284 0.943308,-1.69475 0.433053,-1.28432 -0.762659,0.61337 -1.194727,1.14162 -1.72255,2.10594 -0.436069,0.79669 -0.667881,1.38119 -0.90024,2.27041 -0.08637,0.33098 -0.239341,1.11243 -0.241361,1.23394 -4.11e-4,0.0541 0.101606,-0.0111 0.534578,-0.33764 0.294584,-0.22277 0.549552,-0.43066 0.566444,-0.46222 z m 0.526097,1.10877 c 0.110075,-0.0103 0.289608,-0.008 0.39908,0.006 0.194551,0.0248 0.233034,0.0427 1.689592,0.81504 0.819705,0.4346 1.808326,0.93876 2.196874,1.12048 0.388558,0.1817 0.864441,0.40657 1.057459,0.49969 1.477486,0.71297 2.656027,0.9416 3.856423,0.74821 0.442989,-0.0713 0.844424,-0.17536 1.226599,-0.31783 0.200906,-0.0746 0.383904,-0.14752 0.406492,-0.16222 0.02171,-0.0157 -0.190604,-0.0336 -0.474045,-0.0433 -1.650124,-0.0554 -3.108579,-0.6205 -5.312221,-2.05931 -1.525888,-0.99626 -2.805023,-1.4647 -3.780317,-1.38452 -0.406013,0.0332 -0.663962,0.13226 -1.00933,0.38705 -0.348543,0.25695 -0.535015,0.4136 -0.489481,0.41109 0.01844,-0.004 0.122603,-0.0103 0.2328,-0.0206 z m 0.26646,-1.60264 0.51555,-0.36741 0.04613,-0.32702 c 0.02548,-0.17989 0.07902,-0.4464 0.119148,-0.5924 0.160253,-0.58187 0.234065,-0.7402 1.030285,-2.20771 0.644543,-1.18794 0.811918,-1.47706 1.041706,-1.79844 0.150596,-0.21059 0.271521,-0.39089 0.268568,-0.40083 -0.0068,-0.0282 -0.385129,0.26889 -0.591956,0.46496 -0.101216,0.0954 -0.261163,0.26893 -0.355692,0.38503 -0.360807,0.44236 -0.892534,1.37554 -1.05298,1.84792 -0.04911,0.14471 -0.08242,0.20344 -0.134871,0.23806 -0.09606,0.0634 -0.09242,0.007 0.02138,-0.34393 0.05054,-0.15537 0.08682,-0.30103 0.08061,-0.32379 -0.01401,-0.0507 -0.05204,0.0205 -0.555099,1.02936 -0.529301,1.06197 -0.762715,1.67155 -0.924492,2.41539 -0.03473,0.15987 -0.06656,0.29673 -0.07074,0.30444 -0.0049,0.009 0.004,0.0207 0.02008,0.0286 0.01557,0.006 0.259348,-0.15038 0.542949,-0.35241 z m 1.366957,0.69796 c 0.414345,0.0146 0.82805,0.0936 1.282559,0.24617 0.339819,0.11352 0.486801,0.18544 1.253076,0.60369 0.477541,0.26092 1.374357,0.76596 1.992598,1.12293 0.947675,0.54648 1.193233,0.67706 1.562259,0.83047 0.565112,0.2351 1.001065,0.36842 1.500814,0.46 0.777634,0.14187 1.479918,0.12902 2.349995,-0.0441 0.250236,-0.0498 0.538951,-0.0924 0.641623,-0.0943 0.102837,-0.005 0.280134,-0.0325 0.394372,-0.0678 0.209973,-0.0649 0.577808,-0.26177 0.614519,-0.32947 0.01139,-0.021 -0.120372,-0.0253 -0.29788,-0.011 -1.468454,0.11388 -3.053922,-0.30896 -4.860109,-1.29601 -0.639592,-0.3495 -0.806989,-0.46009 -1.741862,-1.15086 -1.090752,-0.8059 -1.613996,-1.10994 -2.269528,-1.3189 -0.350127,-0.11154 -0.788124,-0.18362 -1.100871,-0.18102 l -0.222178,0.003 -0.8151,0.56989 c -0.448261,0.31347 -0.83995,0.59582 -0.870329,0.62756 -0.05465,0.0575 -0.05358,0.0578 0.114898,0.0407 0.09367,-0.0103 0.305568,-0.013 0.47092,-0.008 z m -0.362394,-1.39863 c 0.548537,-0.36523 1.311793,-0.85543 1.830871,-1.17603 l 0.525085,-0.32432 0.108628,-0.34601 c 0.204087,-0.65003 0.402921,-1.10913 0.78634,-1.81604 0.499052,-0.9201 1.036479,-1.67995 1.79752,-2.54177 0.541165,-0.61273 1.382292,-1.46687 1.485329,-1.50806 0.02871,-0.0123 0.04089,-0.0268 0.02752,-0.0333 -0.0355,-0.0178 -0.673043,0.32959 -0.982806,0.53654 -0.627593,0.41917 -1.114739,0.93285 -1.689801,1.78198 -0.19274,0.28459 -0.407804,0.51844 -0.453578,0.49336 -0.04539,-0.0254 0.07881,-0.29836 0.315515,-0.69458 0.275422,-0.46116 0.230663,-0.4334 -0.210689,0.13031 -0.577369,0.73736 -0.836032,1.13733 -1.359964,2.10217 -0.504296,0.92885 -0.608159,1.15677 -0.965535,2.12038 -0.106425,0.2869 -0.203302,0.52458 -0.215197,0.52812 -0.01091,0.004 -0.04291,-0.0718 -0.06813,-0.16782 -0.08821,-0.33158 0.07682,-0.80765 0.576024,-1.66225 1.378329,-2.35932 1.876669,-3.14369 2.324944,-3.65975 0.09185,-0.10538 -0.0058,-0.0533 -0.521636,0.27995 l -0.489463,0.31608 -0.482842,0.69056 c -0.265607,0.37978 -0.629158,0.8988 -0.808013,1.15333 -0.999082,1.42156 -1.531506,2.50586 -1.769957,3.60423 -0.0432,0.19914 -0.07047,0.36648 -0.06057,0.37191 0.0093,0.005 0.145228,-0.0746 0.300789,-0.17826 z m 2.432641,0.10352 c 0.486542,0.0959 0.801035,0.21778 1.360999,0.52765 0.485798,0.26905 0.642874,0.37366 1.787264,1.19534 0.189806,0.13638 0.622792,0.40983 0.961947,0.60778 0.948133,0.55325 1.742088,0.88784 2.661788,1.12197 0.586026,0.14911 1.002272,0.20656 1.729915,0.23811 0.656797,0.0281 1.130683,-0.005 1.667046,-0.12015 0.338434,-0.0722 0.868094,-0.25008 0.770572,-0.25839 -1.301253,-0.11204 -2.291802,-0.45054 -3.658489,-1.24873 -0.729293,-0.42599 -1.046698,-0.6452 -2.120889,-1.46474 -1.026555,-0.78329 -1.2999,-0.96625 -1.904007,-1.27465 -0.418846,-0.21384 -0.569011,-0.27555 -0.834775,-0.34361 -0.624539,-0.15976 -1.098011,-0.17608 -1.5342,-0.0529 -0.153058,0.043 -0.277084,0.0963 -0.275976,0.1178 0.0012,0.0238 0.174009,0.0484 0.441611,0.0611 1.086453,0.0548 2.177126,0.52233 3.554136,1.52539 0.167288,0.12189 0.660079,0.49936 1.095036,0.83871 1.003278,0.78283 1.51132,1.15244 1.997952,1.45327 0.34319,0.21206 0.370745,0.23434 0.244071,0.19638 -0.214829,-0.0649 -1.244062,-0.63256 -1.561592,-0.86297 -0.153032,-0.11081 -0.656823,-0.49851 -1.119345,-0.86194 -1.387426,-1.0898 -1.394411,-1.09468 -2.165518,-1.51855 -0.792207,-0.43546 -0.987055,-0.50932 -1.663693,-0.63082 -0.479862,-0.0861 -0.804351,-0.1044 -1.022245,-0.0577 -0.17013,0.0362 -0.408381,0.1885 -0.845107,0.53994 l -0.252168,0.20286 0.203483,0.008 c 0.111839,0.005 0.328993,0.0317 0.482335,0.062 z m 0.778234,-2.11925 0.664747,-0.3971 0.06902,-0.22937 c 0.222049,-0.73816 0.713312,-1.55053 1.44108,-2.38278 0.49037,-0.56066 2.740095,-2.86141 3.392815,-3.4697 0.185157,-0.17244 0.334223,-0.32171 0.331259,-0.33173 -0.0032,-0.009 -0.178669,0.0512 -0.390577,0.13603 -1.499923,0.59795 -3.101695,1.83857 -4.161035,3.22288 -0.585436,0.76495 -1.207413,1.76319 -1.569305,2.51842 -0.317994,0.66376 -0.572307,1.3819 -0.475804,1.3439 0.01819,-0.009 0.332328,-0.19171 0.697883,-0.41018 z m 1.142521,0.74321 c 0.886527,0.0961 1.715138,0.54003 3.32136,1.77689 1.02559,0.78973 1.15634,0.87575 2.208584,1.45209 0.782941,0.42868 1.05921,0.56653 1.364466,0.6821 1.25977,0.47528 2.220569,0.6072 3.219702,0.44198 0.314684,-0.0521 0.951875,-0.22135 0.913018,-0.24267 -0.0074,-0.004 -0.147738,-0.0135 -0.310144,-0.0206 -1.010288,-0.0439 -2.002006,-0.43641 -3.01929,-1.19435 -0.730303,-0.54405 -1.142142,-0.93946 -2.155706,-2.06996 -1.373329,-1.53152 -2.038384,-2.00012 -3.071046,-2.1634 -0.330356,-0.052 -0.620352,-0.0378 -0.875993,0.0442 -0.113356,0.0359 -0.476433,0.22275 -0.807525,0.41439 -0.572515,0.33142 -1.374078,0.82542 -1.391459,0.85744 -0.0036,0.009 0.07495,0.0103 0.176411,0.006 0.101564,-0.008 0.293905,9.5e-4 0.427631,0.016 z m -0.147887,-1.30078 c 0.660227,-0.40309 1.95467,-1.11436 2.7239,-1.49675 0.211587,-0.10525 0.388812,-0.19872 0.393748,-0.20796 0.0036,-0.009 0.02114,-0.11991 0.03522,-0.2463 0.02118,-0.18736 0.0559,-0.29041 0.187845,-0.55913 0.316341,-0.64475 0.635482,-0.95055 2.517336,-2.41286 1.505177,-1.1696 2.498037,-1.85901 3.276918,-2.27543 0.155551,-0.083 0.274322,-0.155 0.264075,-0.15967 -0.0308,-0.0157 -0.877042,0.22372 -1.205251,0.33935 -0.695834,0.24532 -1.103652,0.44988 -1.867079,0.93444 -0.288396,0.18325 -0.621186,0.38605 -0.739501,0.45067 -0.449419,0.24548 -1.485162,1.20197 -2.22224,2.05233 -0.552972,0.63779 -1.242885,1.60478 -1.555705,2.18011 -0.02779,0.0509 -0.06502,0.0848 -0.08269,0.0752 -0.05136,-0.0288 0.605426,-1.14079 0.926826,-1.56948 0.969097,-1.29304 2.291598,-2.4952 4.122885,-3.74726 0.272064,-0.18588 0.491712,-0.3479 0.488318,-0.35963 -0.01567,-0.0535 -0.943126,0.26272 -1.240258,0.4227 -0.842805,0.45422 -1.978639,1.39992 -3.294281,2.74303 -1.452674,1.4829 -2.051836,2.20839 -2.487069,3.01081 -0.169968,0.3132 -0.428268,0.90039 -0.402456,0.91454 0.0058,0.003 0.07642,-0.037 0.159938,-0.0887 z m 9.294171,4.73392 c 0.397453,0.14454 0.741087,0.2265 1.193562,0.28281 0.518669,0.0645 1.4766,0.11252 1.563509,0.0776 0.06582,-0.0275 0.06494,-0.0311 -0.01028,-0.0502 -0.734025,-0.1933 -1.582853,-0.64862 -2.229753,-1.19595 -0.689978,-0.58385 -1.131306,-1.10522 -2.028566,-2.39614 -0.962283,-1.38455 -1.263105,-1.75149 -1.758763,-2.14569 -0.284758,-0.22647 -0.492107,-0.34121 -0.788501,-0.43641 -0.468094,-0.15027 -0.834516,-0.14336 -1.357176,0.0263 -0.418041,0.13555 -0.756097,0.30358 -1.632863,0.81321 l -0.12189,0.0706 0.296674,0.0178 c 0.443904,0.0267 0.757068,0.11424 1.196803,0.33179 0.685606,0.33907 1.104832,0.70022 2.276124,1.96101 0.954765,1.02747 1.454238,1.49356 2.058153,1.92056 0.329443,0.23294 1.024579,0.60716 1.342244,0.72309 z m 2.314738,-0.16155 c 0.913891,0.29244 1.761407,0.34664 2.432224,0.15669 0.275543,-0.0777 0.543485,-0.18599 0.534822,-0.21553 -0.0032,-0.009 -0.194782,-0.0806 -0.427036,-0.15769 -1.031573,-0.34384 -1.857865,-0.8825 -2.630876,-1.71512 -0.242603,-0.2614 -0.462868,-0.55233 -0.859116,-1.13766 -1.185706,-1.74961 -1.635517,-2.34428 -2.191869,-2.89883 -0.828191,-0.82566 -1.476354,-1.04131 -2.386526,-0.79415 -0.248981,0.0682 -0.627357,0.23182 -0.616876,0.26764 0.0023,0.009 0.08993,0.0207 0.194648,0.0305 0.629903,0.0541 1.327138,0.40669 1.945892,0.98403 0.676746,0.63061 1.458183,1.75114 2.232215,3.19768 0.229787,0.42932 0.289539,0.58527 0.230901,0.6017 -0.02584,0.0103 -0.532305,-0.73038 -1.11453,-1.62334 -0.800806,-1.2285 -1.233908,-1.78314 -1.781743,-2.28176 -0.619672,-0.56447 -1.522496,-0.85709 -2.143681,-0.69568 -0.200472,0.0516 -0.493588,0.20042 -0.481051,0.24324 0.0044,0.013 0.09205,0.0274 0.196697,0.0367 0.486594,0.0415 1.082186,0.31469 1.552529,0.71312 0.508251,0.43054 0.886344,0.88529 1.816804,2.18542 0.987403,1.37959 1.541898,1.99078 2.275013,2.5074 0.29366,0.20694 0.842612,0.47452 1.221326,0.59572 z m 2.079738,-0.66041 c 0.618917,0.23466 1.42165,0.36901 1.666342,0.27882 0.08837,-0.0324 0.14435,-0.0366 0.1521,-0.0103 0.02723,0.0928 0.574304,0.0603 1.079386,-0.0651 l 0.249752,-0.0619 -0.28102,-0.12767 c -0.71015,-0.32257 -1.528596,-1.05317 -2.198233,-1.96228 -0.104905,-0.14309 -0.447004,-0.64975 -0.758711,-1.12701 -0.887998,-1.35697 -1.564558,-2.20542 -2.206257,-2.76674 -0.303302,-0.26534 -0.99051,-0.68006 -1.32599,-0.80026 -0.245045,-0.0882 -0.866488,-0.21793 -0.855095,-0.17882 0.0044,0.013 0.170544,0.12586 0.371217,0.25317 1.138374,0.7221 1.947664,1.52437 2.503178,2.48138 0.182915,0.31528 0.395049,0.76765 0.478815,1.02151 0.06344,0.19211 0.06284,0.19136 -0.236125,-0.3469 -0.497361,-0.89564 -1.3179,-1.91977 -2.045902,-2.5559 -0.346624,-0.30238 -1.000669,-0.68788 -1.32831,-0.7826 -0.456413,-0.13254 -1.028882,-0.0991 -1.564825,0.0896 -0.239156,0.0846 -0.548596,0.22632 -0.542109,0.2485 0.0032,0.009 0.09416,0.0327 0.20288,0.0518 0.600413,0.10623 1.109352,0.41809 1.740396,1.066 0.472467,0.4851 0.840596,0.97303 1.706594,2.26497 0.34183,0.5106 0.725681,1.05897 0.851635,1.21945 0.702399,0.8936 1.449911,1.47152 2.340459,1.80906 z m -9.690033,-6.05081 c 0.405621,-0.1955 0.888088,-0.41865 1.072181,-0.49588 l 0.33489,-0.13994 0.06245,-0.227 c 0.07748,-0.28222 0.268786,-0.63804 0.471155,-0.87637 0.338224,-0.39829 0.751915,-0.72482 1.802224,-1.42199 0.328333,-0.21795 0.913357,-0.6256 1.300126,-0.90583 0.862319,-0.62499 1.301238,-0.91359 1.989691,-1.30838 0.292331,-0.16745 0.528967,-0.3129 0.526012,-0.32296 -0.01066,-0.037 -0.442247,0.0483 -0.511438,0.10063 -0.03907,0.0297 -0.465461,0.23412 -0.947303,0.45466 -1.069042,0.4892 -1.311288,0.61105 -1.897293,0.95409 -0.771536,0.45169 -1.369322,0.84321 -2.065995,1.3532 -1.498723,1.09703 -2.040286,1.59339 -2.511956,2.30205 -0.131183,0.19714 -0.418435,0.85891 -0.381662,0.87905 0.01052,0.007 0.351603,-0.14922 0.757279,-0.34456 z m 13.170583,5.99441 c 0.352222,0.0777 0.638781,0.0818 1.167427,0.018 0.495898,-0.06 0.831272,-0.0544 0.959772,0.0161 0.185493,0.10143 0.573421,0.0312 1.117342,-0.20151 0.161039,-0.0695 0.164035,-0.072 0.08726,-0.0931 -0.385167,-0.10512 -0.750787,-0.26449 -1.116564,-0.48536 -0.897137,-0.54323 -1.560758,-1.3124 -2.833905,-3.28493 -0.953448,-1.47726 -1.524325,-2.21629 -2.161978,-2.7987 -0.91625,-0.83698 -1.830498,-1.14132 -2.947046,-0.98125 -0.326853,0.0471 -2.595525,0.69772 -2.582831,0.74109 0.0032,0.009 0.08811,0.0111 0.189417,0.008 0.495077,-0.0256 1.153126,0.14545 1.689371,0.43893 0.657434,0.35975 1.444289,1.10311 2.150407,2.03145 0.282343,0.37122 0.485782,0.67902 0.972954,1.4721 0.661624,1.07713 1.172643,1.74134 1.709574,2.223 0.356687,0.31969 0.515886,0.42975 0.926333,0.63955 0.297403,0.15188 0.437512,0.20553 0.672372,0.25725 z M 28.08494,247.64346 c 0.352404,-0.16092 0.70364,-0.29424 1.381375,-0.52374 l 0.539435,-0.1828 0.245006,-0.43258 c 0.218828,-0.38663 0.266282,-0.45255 0.447222,-0.61861 0.319568,-0.29346 0.619761,-0.50142 1.471493,-1.01961 0.437031,-0.26597 1.035816,-0.64346 1.33057,-0.83899 1.058708,-0.70224 1.871901,-1.18576 2.394368,-1.42363 0.08681,-0.0386 0.144318,-0.0789 0.128451,-0.0872 -0.04384,-0.0251 -0.500332,0.0245 -0.767383,0.0822 -0.673233,0.14539 -2.039173,0.77447 -3.089268,1.42275 -0.53427,0.32983 -2.158136,1.41222 -2.546845,1.69767 -0.653386,0.47975 -1.183216,0.98604 -1.505945,1.43899 -0.196543,0.27589 -0.364657,0.58015 -0.331103,0.59854 0.01398,0.005 0.149887,-0.0434 0.302659,-0.11251 z m 14.404045,6.20921 c 0.446024,0.11855 1.243609,0.12772 2.06213,0.025 0.168933,-0.0212 0.304883,-0.0462 0.302229,-0.055 -0.0028,-0.008 -0.186792,-0.0968 -0.408547,-0.19601 -1.078858,-0.47931 -1.80704,-1.25835 -2.92328,-3.12761 -0.77644,-1.30013 -1.019497,-1.68971 -1.302869,-2.08854 -0.778541,-1.09556 -1.436743,-1.70966 -2.2765,-2.12409 -0.450311,-0.22235 -0.759597,-0.31651 -1.016447,-0.30983 -0.282124,0.008 -2.23693,0.42558 -2.222341,0.47538 0.0021,0.009 0.08263,0.0268 0.177834,0.0398 0.347784,0.0481 0.700556,0.1868 1.135233,0.44728 0.443219,0.26557 0.651029,0.43412 1.03192,0.83721 0.486433,0.51475 1.024649,1.24973 1.796425,2.45304 1.063979,1.65894 1.681793,2.42873 2.411222,3.00476 0.288344,0.22778 0.880547,0.52472 1.233049,0.61823 z m -11.064469,-7.31889 c 0.424478,-0.0628 0.488504,-0.10895 0.656015,-0.47261 0.111961,-0.24284 0.15206,-0.30063 0.339669,-0.48901 0.529406,-0.53147 1.038322,-0.81754 2.81046,-1.5795 0.417221,-0.17947 1.185619,-0.5095 1.707579,-0.73344 1.247088,-0.53517 1.945837,-0.85888 1.976491,-0.91543 0.02661,-0.0488 -0.659318,0.0157 -0.942405,0.0892 -0.450869,0.11681 -0.785232,0.26621 -1.753857,0.78418 -0.910961,0.48707 -1.312419,0.67006 -1.330958,0.60672 -0.02076,-0.0705 0.14576,-0.20955 0.769668,-0.64236 0.325036,-0.2255 0.563417,-0.4005 0.529715,-0.38883 -0.392347,0.13523 -1.271226,0.56516 -1.895363,0.92644 -0.64368,0.37259 -2.161073,1.34025 -2.674843,1.70582 -0.663909,0.47246 -1.173715,0.96782 -1.363459,1.325 l -0.0634,0.11879 0.454729,-0.14339 c 0.250113,-0.079 0.601055,-0.16512 0.779858,-0.19152 z m 13.433406,7.03341 c 0.314245,0.0954 0.581758,0.12411 0.89921,0.0957 0.232546,-0.0207 0.549345,-0.0936 0.50735,-0.11671 -0.0095,-0.005 -0.101146,-0.0144 -0.205457,-0.0254 -0.31034,-0.0262 -0.523417,-0.0977 -0.871121,-0.29039 -0.761077,-0.42135 -1.301978,-1.05242 -2.50183,-2.91848 -0.273176,-0.42486 -0.570923,-0.86528 -0.661978,-0.97849 -0.09075,-0.11339 -0.182326,-0.25034 -0.204029,-0.30384 l -0.03952,-0.0975 0.08888,0.0737 c 0.364854,0.30049 0.894857,0.99644 1.670369,2.19343 0.563333,0.86938 0.923064,1.30623 1.369349,1.6624 0.520051,0.41504 1.13453,0.56215 1.738002,0.41591 0.336003,-0.0816 0.693745,-0.14284 0.726672,-0.12481 0.01579,0.009 -0.02143,0.0425 -0.08269,0.0754 -0.06189,0.0325 0.134116,-0.0144 0.435653,-0.10441 0.519487,-0.1546 0.763525,-0.2548 0.646977,-0.26545 -0.54374,-0.0483 -0.755914,-0.10013 -1.210441,-0.29469 -0.758129,-0.32442 -1.710283,-1.04987 -2.526075,-1.92433 -0.385432,-0.41318 -0.634567,-0.72461 -1.132461,-1.41611 -1.322205,-1.83609 -1.516331,-2.08494 -1.960208,-2.51345 -0.543295,-0.5245 -1.026816,-0.82362 -1.590922,-0.98434 -0.350425,-0.10012 -0.529319,-0.11881 -0.832459,-0.0888 -0.255088,0.0256 -1.506559,0.25018 -1.614989,0.29016 l -0.09229,0.0341 0.09599,0.0259 c 0.452207,0.12088 0.986007,0.39626 1.35588,0.69959 0.729907,0.59833 1.314244,1.36614 2.477693,3.25643 0.334493,0.54339 0.71514,1.14284 0.845862,1.33214 0.845002,1.22327 1.771884,2.01942 2.668415,2.29232 z m -12.204156,-7.29985 c 0.196465,-0.0439 0.598014,-0.12553 0.892384,-0.18068 l 0.535181,-0.10033 0.139943,-0.17779 c 0.699426,-0.88853 2.127302,-1.63262 4.680896,-2.43905 1.459911,-0.46103 2.007909,-0.67847 2.509305,-0.99616 l 0.18738,-0.11855 -0.131369,0.006 c -0.0722,0.004 -0.407033,0.009 -0.743749,0.0126 -1.220847,0.0124 -1.289617,0.0187 -1.373133,0.12699 -0.125531,0.16267 -0.650331,0.50546 -1.058287,0.69137 -0.213549,0.0969 -0.669264,0.27037 -1.012678,0.38548 -1.281126,0.42786 -1.531608,0.52173 -2.402409,0.9004 -1.720808,0.74795 -2.259895,1.10334 -2.654422,1.74971 l -0.169671,0.27803 0.121585,-0.0296 c 0.06681,-0.016 0.282423,-0.0653 0.478952,-0.10943 z m 2.263883,-0.46604 c 0.252408,-0.0537 0.784698,-0.15843 1.18282,-0.23242 0.684888,-0.12738 0.728288,-0.14043 0.806466,-0.24247 0.233415,-0.30373 0.807142,-0.7341 1.385384,-1.03916 0.71463,-0.37698 1.507261,-0.6685 3.452613,-1.26977 0.97774,-0.30285 1.871576,-0.60682 2.146347,-0.73134 0.07927,-0.0356 0.105665,-0.0353 -1.133361,-0.0297 l -0.726134,0.003 -0.213449,0.18371 c -0.56847,0.48922 -1.139775,0.70969 -3.340693,1.28907 -0.950254,0.25009 -1.397931,0.41989 -2.160066,0.81941 -1.017404,0.53315 -1.385651,0.76713 -1.78437,1.13377 -0.218137,0.20061 -0.251333,0.25218 -0.147721,0.22985 0.03992,-0.008 0.2797,-0.0599 0.532148,-0.11362 z m 12.66675,6.61849 c 0.520602,0.125 1.058864,0.10574 1.62696,-0.0567 0.291525,-0.0841 0.900059,-0.31747 0.919671,-0.35283 0.0036,-0.008 -0.152371,0.003 -0.346393,0.0174 -0.614275,0.0508 -1.155525,-0.008 -1.786965,-0.19251 -0.471164,-0.1385 -1.399991,-0.64902 -1.873966,-1.02999 -0.593621,-0.47772 -1.081786,-0.96225 -2.307238,-2.29045 -1.454416,-1.57629 -1.93408,-2.03429 -2.747417,-2.62299 l -0.159029,-0.11511 0.240557,0.10082 c 0.286824,0.12041 0.769363,0.43572 1.110711,0.72591 0.483325,0.41097 0.857524,0.80779 1.833064,1.94335 0.987696,1.15067 1.56463,1.73812 2.233721,2.27728 0.36949,0.29775 1.261878,0.78702 1.634456,0.896 0.72997,0.21407 1.51424,0.24801 2.308357,0.10112 0.523117,-0.0967 0.83508,-0.25282 1.443336,-0.72203 0.367309,-0.28334 0.9512,-0.81233 0.961772,-0.87109 0.0036,-0.0179 -0.123465,-0.009 -0.281388,0.023 -0.789005,0.15053 -1.57015,0.13825 -2.285926,-0.0366 -0.496942,-0.1209 -0.908376,-0.28821 -1.492833,-0.60918 -0.85335,-0.46773 -1.460191,-0.90889 -3.138865,-2.28173 -1.533309,-1.25391 -2.556037,-2.01705 -2.90847,-2.17007 -0.204281,-0.0891 -0.357575,-0.10214 -0.667823,-0.0582 -0.387033,0.0553 -1.791556,0.32055 -1.919974,0.36267 l -0.128189,0.0417 0.241206,0.0558 c 0.300309,0.0691 1.023063,0.44719 1.303843,0.68188 0.543445,0.45419 1.024831,1.027 1.928757,2.29533 1.323229,1.85677 1.91232,2.50119 2.99924,3.28134 0.0517,0.0362 0.300266,0.17439 0.552992,0.30716 0.350182,0.18344 0.518702,0.25431 0.705677,0.2993 z m -15.466996,-9.34168 0.08788,-0.031 -0.105765,0.008 c -0.109044,0.006 -0.135333,0.0203 -0.09371,0.0427 0.01245,0.008 0.06347,-1.1e-4 0.111753,-0.0187 z m 5.628199,2.1537 c 0.335082,-0.0667 0.75879,-0.14477 0.941562,-0.17407 0.266733,-0.0427 0.373328,-0.0796 0.540167,-0.18586 0.783485,-0.50009 1.465106,-0.72961 3.380327,-1.13831 0.850113,-0.18137 1.960909,-0.51776 2.355109,-0.71319 0.288857,-0.14331 0.891406,-0.54199 1.015248,-0.67197 0.04191,-0.0438 -0.02824,-0.0545 -0.485807,-0.0737 -0.294234,-0.0111 -0.574953,-0.008 -0.623859,0.009 -0.04893,0.0168 -0.197956,0.0943 -0.331201,0.17158 -0.533902,0.30968 -1.401202,0.58856 -3.084188,0.99179 -2.018903,0.48383 -2.918387,0.79648 -3.610961,1.25542 -0.356184,0.23604 -0.778155,0.61028 -0.722435,0.64081 0.0097,0.003 0.291087,-0.0451 0.626165,-0.11141 z m 2.463928,-0.41057 c 1.193124,-0.19729 2.107652,-0.32306 2.417347,-0.33259 0.534544,-0.0165 0.623334,-0.0438 0.991207,-0.30714 0.603837,-0.43163 1.207448,-0.6721 2.80924,-1.11917 0.554988,-0.15483 1.183695,-0.34456 1.397171,-0.42133 0.406846,-0.14648 0.972612,-0.3911 0.964733,-0.41617 -0.0021,-0.009 -0.362906,-2e-4 -0.800676,0.0189 -0.437743,0.0188 -0.984372,0.0295 -1.214652,0.0238 l -0.418723,-0.0103 -0.174106,0.20707 c -0.566434,0.67314 -1.43043,1.06511 -3.090891,1.40233 -1.526308,0.30995 -1.81762,0.3759 -2.294455,0.51943 -0.572643,0.17273 -1.295705,0.48188 -1.219099,0.52195 0.01398,0.005 0.298487,-0.0323 0.632887,-0.0874 z m 9.701863,5.12833 c 0.830112,0.24481 1.567633,0.25366 2.307495,0.0295 0.347844,-0.10574 0.807619,-0.29646 0.797527,-0.33094 -0.0024,-0.008 -0.08409,-0.003 -0.180906,0.0154 -0.755598,0.13679 -1.600187,0.0584 -2.435082,-0.22519 -0.568703,-0.19346 -1.419195,-0.6586 -1.804316,-0.98623 -0.143998,-0.12312 -0.264817,-0.23308 -0.268297,-0.24467 -0.01778,-0.0595 0.197334,0.0478 0.590254,0.29609 1.186095,0.74848 2.343797,1.06041 3.702041,0.99775 0.815383,-0.0377 1.16011,-0.19533 1.761654,-0.80594 0.159205,-0.16206 0.294125,-0.30129 0.299014,-0.31022 0.0036,-0.009 -0.08581,-0.003 -0.201357,0.0138 -0.200934,0.0291 -0.490842,0.0329 -0.537019,0.008 -0.01188,-0.005 0.07349,-0.0188 0.189462,-0.0287 0.831588,-0.0664 1.729389,-0.65473 2.216838,-1.45311 l 0.186795,-0.30563 -0.449491,0.12089 c -1.235814,0.33259 -2.32803,0.37749 -3.31787,0.13662 -0.373185,-0.0909 -0.971693,-0.40965 -1.19539,-0.63673 -0.0822,-0.0826 -0.142225,-0.16257 -0.135596,-0.1755 0.0066,-0.0134 0.152139,0.0508 0.321386,0.14402 1.04668,0.57368 2.059642,0.64334 4.367656,0.30211 l 0.526358,-0.0779 0.171956,-0.27088 c 0.10945,-0.1723 0.172136,-0.29721 0.172522,-0.34321 1.63e-4,-0.0399 0.01645,-0.12437 0.03541,-0.18788 l 0.03486,-0.11536 -0.230269,0.10822 c -0.703085,0.33041 -1.466982,0.40952 -2.486155,0.25793 -0.790123,-0.11758 -1.43506,-0.30865 -2.901385,-0.85948 -1.05874,-0.39775 -1.671205,-0.59551 -2.301292,-0.74555 -0.506617,-0.12027 -0.625821,-0.12488 -1.0908,-0.0419 -0.202123,0.0359 -0.653884,0.10328 -1.003854,0.14999 -0.754996,0.10053 -1.060175,0.1653 -0.938291,0.19913 0.282177,0.0779 0.829305,0.2845 1.210663,0.4554 0.526168,0.23623 1.20064,0.62931 2.313208,1.34827 0.428336,0.27672 1.035915,0.65679 1.350117,0.84462 l 0.571324,0.34142 -0.61068,-0.32907 c -0.335738,-0.18125 -1.029824,-0.58554 -1.54202,-0.89905 -1.964247,-1.20242 -3.377785,-1.7983 -4.152132,-1.75012 -0.09196,0.008 -0.398305,0.0538 -0.680835,0.1071 -0.282509,0.0532 -0.730029,0.12311 -0.994439,0.15536 -0.264429,0.0323 -0.562323,0.0778 -0.66202,0.10073 l -0.181185,0.0419 0.54431,0.32036 c 0.679109,0.39966 1.108902,0.72405 2.44708,1.847 1.737103,1.45769 2.251925,1.83272 3.213959,2.3411 0.541056,0.28539 0.732358,0.37335 0.969253,0.44313 z m 2.647264,-1.95726 c 0.03876,0.0137 0.09619,0.0443 0.128022,0.0699 0.03254,0.0253 -0.0012,0.0166 -0.07075,-0.0223 -0.07051,-0.0385 -0.09637,-0.0598 -0.05706,-0.0476 z m -8.211874,-3.62119 c 0.847884,-0.016 1.020644,-0.0387 1.270527,-0.16528 0.381814,-0.19367 0.614416,-0.27449 1.978895,-0.68809 0.731127,-0.22138 1.472483,-0.46655 1.647844,-0.54362 0.412169,-0.18194 0.940323,-0.46749 1.275555,-0.68967 0.251348,-0.16652 0.316123,-0.24223 0.194956,-0.22809 -0.277905,0.0327 -0.662734,0.0693 -0.853661,0.0812 -0.36006,0.0226 -0.56685,0.0595 -0.621073,0.11092 -0.09115,0.0863 -0.491748,0.32113 -0.76902,0.45031 -0.39484,0.18406 -1.166344,0.41472 -2.210091,0.66095 -1.311249,0.30938 -1.878424,0.50795 -2.461038,0.86135 -0.265099,0.16085 -0.293991,0.2027 -0.123371,0.17865 0.07154,-0.0103 0.373159,-0.0229 0.670518,-0.0287 z m 2.576274,-0.19145 c 1.505792,-0.19656 2.384631,-0.34331 2.603752,-0.43477 0.201614,-0.0841 0.976923,-0.50883 1.534063,-0.84008 0.466393,-0.27737 1.369673,-0.98737 1.454102,-1.14306 0.01126,-0.0187 -0.09727,-0.005 -0.239381,0.0309 -0.142045,0.0356 -0.480237,0.10113 -0.75168,0.14431 l -0.493596,0.0789 -0.182942,0.22357 c -0.499893,0.61104 -1.283458,0.96423 -3.27846,1.47776 -0.755782,0.19451 -1.642974,0.47751 -1.781095,0.56758 -0.06118,0.0403 0.21769,0.0135 1.135043,-0.10539 z m 2.46661,0.0628 c 0.510778,0.12027 1.039303,0.29085 2.155314,0.6954 1.202468,0.43613 1.416729,0.50806 1.895656,0.63208 1.177936,0.30633 2.090952,0.31998 3.020366,0.0442 0.699633,-0.20699 1.150203,-0.48509 1.552739,-0.95857 0.166524,-0.19513 0.592764,-0.85994 0.797654,-1.24265 l 0.122394,-0.22969 -0.29626,0.31988 c -0.163047,0.1759 -0.38851,0.39388 -0.501073,0.48442 -0.956506,0.76819 -2.258481,1.29992 -3.458077,1.41232 -0.507068,0.0477 -0.742351,0.04 -1.195263,-0.0382 -0.347979,-0.06 -0.374109,-0.0698 -0.77332,-0.28685 -0.283814,-0.15433 -0.44623,-0.25967 -0.518958,-0.33592 l -0.105776,-0.11128 0.22585,0.0939 c 0.782319,0.32527 1.683114,0.47911 2.470371,0.42204 1.354772,-0.0982 2.960123,-0.92099 3.958299,-2.03042 0.12852,-0.14323 0.318059,-0.37702 0.420714,-0.51979 0.151717,-0.21133 0.194211,-0.25374 0.227528,-0.22752 0.05961,0.0469 0.343608,-0.38022 0.315575,-0.47519 -0.016,-0.0553 -0.04659,-0.0365 -0.233673,0.14585 -0.559944,0.5454 -1.250093,0.90142 -2.100524,1.08348 -0.746272,0.15977 -1.266788,0.19596 -2.647453,0.18427 -1.30018,-0.0111 -1.856258,0.023 -2.489323,0.1524 -0.16475,0.0335 -0.312622,0.0459 -0.328504,0.0272 -0.01626,-0.0182 -0.217646,0.0231 -0.448152,0.093 -0.230398,0.0701 -0.79274,0.20302 -1.249268,0.2962 -0.983563,0.20096 -1.217945,0.25461 -1.189551,0.27232 0.01138,0.008 0.179229,0.0502 0.372397,0.0957 z m 1.410954,-0.74857 c 0.600211,-0.11658 1.127236,-0.25901 1.360604,-0.36775 0.09046,-0.0424 0.320989,-0.17465 0.512053,-0.29437 0.191089,-0.11967 0.520184,-0.29828 0.731359,-0.3968 0.517677,-0.2414 0.668261,-0.32929 0.911587,-0.5317 0.200118,-0.16649 1.034892,-1.00358 1.027164,-1.03001 -0.0034,-0.007 -0.140057,0.0414 -0.305987,0.10982 -0.166333,0.0675 -0.722164,0.25132 -1.235311,0.4087 l -0.932946,0.2862 -0.18198,0.21568 c -0.444282,0.52513 -1.295789,1.1098 -2.388666,1.64011 -0.137463,0.0668 -0.178764,0.0964 -0.114261,0.0826 0.05547,-0.0127 0.333164,-0.0671 0.616723,-0.12212 z m 2.148689,-0.25359 c 0.316214,-0.0334 0.752554,-0.0455 1.581098,-0.0433 0.945801,0.003 1.327248,-0.0103 1.851851,-0.0606 1.091025,-0.10562 2.072422,-0.45561 2.683094,-0.95659 0.725007,-0.59487 1.392328,-1.63246 1.578359,-2.45399 l 0.04099,-0.18114 -0.249779,0.27072 c -0.514033,0.55706 -1.139648,0.99702 -1.918479,1.349 -0.391916,0.1772 -1.074462,0.39289 -1.440729,0.45522 -0.487381,0.083 -0.816019,0.19257 -1.109639,0.36994 -0.349412,0.21097 -0.783787,0.39299 -1.512846,0.63422 -1.233966,0.4084 -1.641835,0.54798 -1.743201,0.59681 -0.116136,0.0556 -0.105959,0.0566 0.239343,0.0194 z m 1.101302,-0.70202 c 0.846001,-0.30984 1.666602,-0.6999 2.509682,-1.19303 0.261161,-0.1527 0.627875,-0.36077 0.815033,-0.46219 1.133581,-0.61463 1.406294,-0.81896 1.779463,-1.33314 0.312969,-0.43123 0.461172,-0.52897 0.354216,-0.23341 -0.116784,0.32243 -0.672001,0.93192 -1.166264,1.2807 -0.130283,0.0918 -0.446359,0.26917 -0.702348,0.39412 -0.500864,0.2445 -0.690534,0.35295 -0.860832,0.4927 -0.09415,0.0774 -0.0095,0.0604 0.643061,-0.12978 0.807656,-0.23514 1.251366,-0.41757 1.701433,-0.69975 0.92887,-0.58228 1.588967,-1.41581 2.069269,-2.61297 0.199806,-0.49787 0.234723,-0.65926 0.21631,-0.9994 -0.0081,-0.1502 -0.01264,-0.4233 -0.01012,-0.607 0.006,-0.43339 -0.111445,-0.89275 -0.158976,-0.6212 -0.06864,0.3932 -0.490144,1.25739 -0.824507,1.69064 -0.830998,1.07644 -2.173248,2.02413 -4.155982,2.93421 l -0.423624,0.19444 -0.169456,0.22908 c -0.413629,0.55942 -1.00337,0.99113 -2.409471,1.76381 -0.312769,0.1718 -0.573144,0.32098 -0.578788,0.3313 -0.01964,0.0359 0.878358,-0.23799 1.372122,-0.4189 z m -36.256213,15.18902 c 0.02363,0.003 0.05552,0.0209 0.07105,0.039 0.01597,0.0178 -0.0047,0.0157 -0.04304,-0.008 -0.03916,-0.0213 -0.05194,-0.0367 -0.02776,-0.034 z"
       id="path4599"
       inkscape:connector-curvature="0" />
    <g
       aria-label="nW"
       transform="matrix(0.47076492,0,0,0.47076492,-7.7900851,208.24545)"
       style="font-style:normal;font-weight:normal;font-size:96px;line-height:1.25;font-family:sans-serif;letter-spacing:0px;word-spacing:0px;fill:#1e1300;fill-opacity:1;stroke:none"
       id="flowRoot4616">
      <path
         d="m 29.474375,123.67175 h 16.608 q 10.656,0 15.264,3.168 4.128,2.784 5.184,6.72 1.152,3.84 1.152,10.176 v 26.016 h -8.448 v -25.92 q 0,-1.728 -0.096,-2.88 -0.096,-1.248 -0.672,-3.072 -0.576,-1.92 -1.632,-3.072 -1.056,-1.248 -3.072,-2.112 -2.016,-0.96 -4.896,-0.96 h -10.944 v 38.016 h -8.448 z"
         style="font-style:normal;font-variant:normal;font-weight:normal;font-stretch:normal;font-size:96px;font-family:Baumans;-inkscape-font-specification:Baumans;fill:#1e1300;fill-opacity:1"
         id="path1435" />
      <path
         d="m 128.78037,161.11175 q 7.296,-7.296 8.16001,-22.848 l 1.91999,-35.712 h 8.64001 l -1.92001,36.096 q -0.672,12.672 -4.512,20.16 -3.744,7.488 -12.47999,12.864 -7.68,-5.472 -10.656,-13.44 -2.976,-8.064 -4.608,-21.792 h -0.384 q -0.768,14.304 -3.744,21.312 -2.88001,7.008 -11.520005,13.92 -8.736,-5.376 -12.576,-12.864 -3.744,-7.488 -4.416,-20.16 l -1.92,-36.096 h 8.64 l 1.92,35.712 q 0.864,15.552 8.16,22.848 4.704005,-4.032 7.008005,-12 2.304,-8.064 4.32,-25.44 h 8.64 q 2.688,14.976 4.896,23.232 2.208,8.256 3.36,10.464 1.248,2.208 3.07199,3.744 z"
         style="font-style:normal;font-variant:normal;font-weight:normal;font-stretch:normal;font-size:96px;font-family:Baumans;-inkscape-font-specification:Baumans;fill:#1e1300;fill-opacity:1"
         id="path1437" />
    </g>
  </g>
</svg>
