<?xml version="1.0" encoding="UTF-8" standalone="no"?>
<svg
   xmlns:dc="http://purl.org/dc/elements/1.1/"
   xmlns:cc="http://creativecommons.org/ns#"
   xmlns:rdf="http://www.w3.org/1999/02/22-rdf-syntax-ns#"
   xmlns:svg="http://www.w3.org/2000/svg"
   xmlns="http://www.w3.org/2000/svg"
   id="svg13156"
   viewBox="0 0 24 24"
   height="24"
   width="24"
   version="1.2">
  <metadata
     id="metadata13162">
    <rdf:RDF>
      <cc:Work
         rdf:about="">
        <dc:format>image/svg+xml</dc:format>
        <dc:type
           rdf:resource="http://purl.org/dc/dcmitype/StillImage" />
        <dc:title></dc:title>
      </cc:Work>
    </rdf:RDF>
  </metadata>
  <defs
     id="defs13160" />
  <path
     style="stroke-width:1.00151;fill:#c82829;fill-opacity:1"
     id="path13154"
     d="M 19.496214,4.4886395 H 9.4810665 c -1.2679176,0 -2.8382927,0.8082224 -3.5754075,1.8397825 L 3.2917056,9.9869555 2.0908895,11.668499 c -0.1211833,0.175265 -0.1221848,0.492744 0.003,0.665006 l 1.1897995,1.66652 2.622967,3.672554 c 0.7361133,1.030558 2.3054869,1.838782 3.574406,1.838782 H 19.496214 C 20.877302,19.511361 22,18.387661 22,17.007573 V 6.9924263 C 22,5.612339 20.877302,4.4886395 19.496214,4.4886395 Z M 17.19974,14.296473 c 0.391593,0.391592 0.391593,1.02455 0,1.416141 -0.195295,0.195296 -0.451683,0.293445 -0.70807,0.293445 -0.256388,0 -0.512776,-0.09815 -0.708071,-0.293445 l -2.296474,-2.296473 -2.296473,2.296473 c -0.195295,0.195296 -0.451683,0.293445 -0.708071,0.293445 -0.256388,0 -0.512775,-0.09815 -0.7080706,-0.293445 -0.3915923,-0.391591 -0.3915923,-1.024549 0,-1.416141 L 12.070984,12 9.7745104,9.7035265 c -0.3915923,-0.3915921 -0.3915923,-1.0245494 0,-1.4161417 0.3915926,-0.3915922 1.0245496,-0.3915922 1.4161416,0 l 2.296473,2.2964732 2.296474,-2.2964732 c 0.391592,-0.3915922 1.024549,-0.3915922 1.416141,0 0.391593,0.3915923 0.391593,1.0245496 0,1.4161417 L 14.903267,12 Z" />
</svg>
