<?xml version="1.0" encoding="UTF-8" standalone="no"?>
<svg
   xmlns:dc="http://purl.org/dc/elements/1.1/"
   xmlns:cc="http://creativecommons.org/ns#"
   xmlns:rdf="http://www.w3.org/1999/02/22-rdf-syntax-ns#"
   xmlns:svg="http://www.w3.org/2000/svg"
   xmlns="http://www.w3.org/2000/svg"
   version="1.2"
   width="24"
   height="24"
   viewBox="0 0 24 24"
   id="svg2161">
  <metadata
     id="metadata2167">
    <rdf:RDF>
      <cc:Work
         rdf:about="">
        <dc:format>image/svg+xml</dc:format>
        <dc:type
           rdf:resource="http://purl.org/dc/dcmitype/StillImage" />
        <dc:title></dc:title>
      </cc:Work>
    </rdf:RDF>
  </metadata>
  <defs
     id="defs2165" />
  <path
     id="rect12986"
     d="m 6.4444442,4.2222221 c -0.6122222,0 -1.1111111,0.4988889 -1.1111111,1.1111111 V 18.666667 c 0,0.612222 0.4988889,1.111111 1.1111111,1.111111 H 17.555555 c 0.612223,0 1.111112,-0.498889 1.111112,-1.111111 V 5.3333332 c 0,-0.6122222 -0.498889,-1.1111111 -1.111112,-1.1111111 z M 7.5555553,6.4444443 H 16.444444 C 16.751111,6.4444443 17,6.6933332 17,6.9999999 17,7.3066666 16.751111,7.5555555 16.444444,7.5555555 H 7.5555553 c -0.3066666,0 -0.5555555,-0.2488889 -0.5555555,-0.5555556 0,-0.3066667 0.2488889,-0.5555556 0.5555555,-0.5555556 z m 0,3.3333334 H 16.444444 C 16.751111,9.7777777 17,10.026667 17,10.333333 17,10.64 16.751111,10.888889 16.444444,10.888889 H 7.5555553 c -0.3066666,0 -0.5555555,-0.248889 -0.5555555,-0.555556 0,-0.306666 0.2488889,-0.5555553 0.5555555,-0.5555553 z m 0,3.3333333 H 16.444444 C 16.751111,13.111111 17,13.36 17,13.666667 c 0,0.306666 -0.248889,0.555555 -0.555556,0.555555 H 7.5555553 c -0.3066666,0 -0.5555555,-0.248889 -0.5555555,-0.555555 0,-0.306667 0.2488889,-0.555556 0.5555555,-0.555556 z m 0,3.333333 H 16.444444 C 16.751111,16.444444 17,16.693333 17,17 c 0,0.306667 -0.248889,0.555556 -0.555556,0.555556 H 7.5555553 c -0.3066666,0 -0.5555555,-0.248889 -0.5555555,-0.555556 0,-0.306667 0.2488889,-0.555556 0.5555555,-0.555556 z"
     style="opacity:0.95;fill:#ededed;fill-opacity:1;stroke:none;stroke-width:1.71486783;stroke-miterlimit:4;stroke-dasharray:none;stroke-opacity:1" />
  <path
     d="M 17.555555,22 H 6.4444443 C 4.6066666,22 3.111111,20.504444 3.111111,18.666667 V 5.3333333 C 3.111111,3.4955556 4.6066666,2 6.4444443,2 H 17.555555 c 1.837778,0 3.333334,1.4955556 3.333334,3.3333333 V 18.666667 C 20.888889,20.504444 19.393333,22 17.555555,22 Z M 6.4444443,4.2222222 c -0.6122222,0 -1.1111111,0.4988889 -1.1111111,1.1111111 V 18.666667 c 0,0.612222 0.4988889,1.111111 1.1111111,1.111111 H 17.555555 c 0.612223,0 1.111112,-0.498889 1.111112,-1.111111 V 5.3333333 c 0,-0.6122222 -0.498889,-1.1111111 -1.111112,-1.1111111 z M 16.444444,10.888889 H 7.5555554 c -0.3066666,0 -0.5555555,-0.248889 -0.5555555,-0.555556 0,-0.306666 0.2488889,-0.5555552 0.5555555,-0.5555552 H 16.444444 C 16.751111,9.7777778 17,10.026667 17,10.333333 17,10.64 16.751111,10.888889 16.444444,10.888889 Z m 0,-3.3333334 H 7.5555554 C 7.2488888,7.5555556 6.9999999,7.3066667 6.9999999,7 c 0,-0.3066667 0.2488889,-0.5555556 0.5555555,-0.5555556 H 16.444444 C 16.751111,6.4444444 17,6.6933333 17,7 17,7.3066667 16.751111,7.5555556 16.444444,7.5555556 Z m 0,6.6666664 H 7.5555554 c -0.3066666,0 -0.5555555,-0.248889 -0.5555555,-0.555555 0,-0.306667 0.2488889,-0.555556 0.5555555,-0.555556 H 16.444444 C 16.751111,13.111111 17,13.36 17,13.666667 c 0,0.306666 -0.248889,0.555555 -0.555556,0.555555 z m 0,3.333334 H 7.5555554 c -0.3066666,0 -0.5555555,-0.248889 -0.5555555,-0.555556 0,-0.306667 0.2488889,-0.555556 0.5555555,-0.555556 H 16.444444 C 16.751111,16.444444 17,16.693333 17,17 c 0,0.306667 -0.248889,0.555556 -0.555556,0.555556 z"
     id="path2157"
     style="display:inline;fill:#333333;fill-opacity:1;stroke-width:1.11111116" />
</svg>
