<?xml version="1.0" encoding="UTF-8" standalone="no"?>
<svg
   xmlns:dc="http://purl.org/dc/elements/1.1/"
   xmlns:cc="http://creativecommons.org/ns#"
   xmlns:rdf="http://www.w3.org/1999/02/22-rdf-syntax-ns#"
   xmlns:svg="http://www.w3.org/2000/svg"
   xmlns="http://www.w3.org/2000/svg"
   xmlns:sodipodi="http://sodipodi.sourceforge.net/DTD/sodipodi-0.dtd"
   xmlns:inkscape="http://www.inkscape.org/namespaces/inkscape"
   version="1.2"
   width="24"
   height="24"
   viewBox="0 0 24 24"
   id="svg14474"
   sodipodi:docname="pencil.svg"
   inkscape:version="0.92.5 (2060ec1f9f, 2020-04-08)">
  <metadata
     id="metadata14480">
    <rdf:RDF>
      <cc:Work
         rdf:about="">
        <dc:format>image/svg+xml</dc:format>
        <dc:type
           rdf:resource="http://purl.org/dc/dcmitype/StillImage" />
      </cc:Work>
    </rdf:RDF>
  </metadata>
  <defs
     id="defs14478" />
  <sodipodi:namedview
     inkscape:document-rotation="0"
     pagecolor="#ffffff"
     bordercolor="#666666"
     borderopacity="1"
     objecttolerance="10"
     gridtolerance="10"
     guidetolerance="10"
     inkscape:pageopacity="0"
     inkscape:pageshadow="2"
     inkscape:window-width="2374"
     inkscape:window-height="1376"
     id="namedview14476"
     showgrid="false"
     inkscape:zoom="38.125"
     inkscape:cx="2.4262296"
     inkscape:cy="12"
     inkscape:window-x="48"
     inkscape:window-y="27"
     inkscape:window-maximized="0"
     inkscape:current-layer="svg14474" />
  <path
     d="M21 6.879l-3.879-3.879c-.293-.293-.678-.439-1.061-.439-.384 0-.767.146-1.06.439l-10.939 10.939c-.293.293-.558.727-.75 1.188-.192.463-.311.959-.311 1.373v4.5h4.5c.414 0 .908-.119 1.371-.311.463-.192.896-.457 1.189-.75l10.94-10.939c.293-.293.439-.678.439-1.061 0-.384-.146-.767-.439-1.06zm-15.232 8.182l8.293-8.293 1.232 1.232-8.293 8.293-1.232-1.232zm1.732 3.939h-1.5l-1-1v-1.5c0-.077.033-.305.158-.605.01-.02 2.967 2.938 2.967 2.938-.322.134-.548.167-.625.167zm1.439-.768l-1.232-1.232 8.293-8.293 1.232 1.232-8.293 8.293zm9-9l-3.172-3.172 1.293-1.293 3.17 3.172-1.291 1.293z"
     id="path14472"
     style="fill:#99cc99;fill-opacity:1"
     inkscape:label="Tip" />
  <path
     style="display:inline;opacity:0.95;fill:#0a0a0a;fill-opacity:1;stroke:none;stroke-width:1.88249397;stroke-miterlimit:4;stroke-dasharray:none;stroke-opacity:1"
     d="M 3,18.414062 V 21 h 2.5605469 z"
     id="rect19553"
     inkscape:connector-curvature="0"
     inkscape:label="Pencil" />
</svg>
