<?xml version="1.0" encoding="UTF-8" standalone="no"?>
<svg
   xmlns:dc="http://purl.org/dc/elements/1.1/"
   xmlns:cc="http://creativecommons.org/ns#"
   xmlns:rdf="http://www.w3.org/1999/02/22-rdf-syntax-ns#"
   xmlns:svg="http://www.w3.org/2000/svg"
   xmlns="http://www.w3.org/2000/svg"
   id="svg8936"
   viewBox="0 0 24 24"
   height="24"
   width="24"
   version="1.2">
  <metadata
     id="metadata8942">
    <rdf:RDF>
      <cc:Work
         rdf:about="">
        <dc:format>image/svg+xml</dc:format>
        <dc:type
           rdf:resource="http://purl.org/dc/dcmitype/StillImage" />
        <dc:title></dc:title>
      </cc:Work>
    </rdf:RDF>
  </metadata>
  <defs
     id="defs8940" />
  <path
     style="fill:#c82829;fill-opacity:1;stroke-width:1.30056"
     id="path8934"
     d="m 19.0412,4.9586375 c -1.014432,-1.0157327 -2.663535,-1.0157327 -3.677967,0 L 12.000001,8.3218703 8.6367669,4.9586375 c -1.0144323,-1.0157327 -2.663535,-1.0157327 -3.6779673,0 -1.0157327,1.0157328 -1.0157327,2.6622343 0,3.6779673 L 8.3207319,11.999838 4.9587996,15.36307 c -1.0157327,1.015733 -1.0157327,2.662235 0,3.677968 0.5072161,0.508516 1.1730998,0.762124 1.8389836,0.762124 0.6658835,0 1.3317669,-0.253608 1.8389837,-0.762124 l 3.3632341,-3.363233 3.363232,3.363233 c 0.507216,0.508516 1.173099,0.762124 1.838984,0.762124 0.665882,0 1.331765,-0.253608 1.838983,-0.762124 1.015733,-1.015733 1.015733,-2.662235 0,-3.677968 L 15.679268,11.999838 19.0412,8.6366048 c 1.015733,-1.015733 1.015733,-2.6622345 0,-3.6779673 z" />
</svg>
