<?xml version="1.0" encoding="UTF-8" standalone="no"?>
<svg
   xmlns:dc="http://purl.org/dc/elements/1.1/"
   xmlns:cc="http://creativecommons.org/ns#"
   xmlns:rdf="http://www.w3.org/1999/02/22-rdf-syntax-ns#"
   xmlns:svg="http://www.w3.org/2000/svg"
   xmlns="http://www.w3.org/2000/svg"
   id="svg4695"
   viewBox="0 0 24 24"
   height="24"
   width="24"
   version="1.2">
  <metadata
     id="metadata4701">
    <rdf:RDF>
      <cc:Work
         rdf:about="">
        <dc:format>image/svg+xml</dc:format>
        <dc:type
           rdf:resource="http://purl.org/dc/dcmitype/StillImage" />
        <dc:title></dc:title>
      </cc:Work>
    </rdf:RDF>
  </metadata>
  <defs
     id="defs4699" />
  <path
     style="stroke-width:1.01740682;fill:#ad8700;fill-opacity:1"
     id="path4693"
     d="M 21.330638,15.197201 15.315729,5.1716738 C 14.526221,3.8561667 13.318559,3.1032856 12,3.1032856 c -1.31856,0 -2.5262214,0.7528811 -3.3157291,2.0663534 L 2.6693614,15.197201 c -0.7996818,1.331785 -0.8871787,2.752085 -0.2390906,3.896668 0.6470708,1.1456 1.9106901,1.802845 3.4652878,1.802845 H 18.104441 c 1.554598,0 2.818217,-0.657245 3.465288,-1.801828 0.648088,-1.144582 0.560591,-2.564882 -0.239091,-3.897685 z M 12,17.385643 c -0.868866,0 -1.576981,-0.707098 -1.576981,-1.575963 0,-0.869883 0.707098,-1.577998 1.576981,-1.577998 0.869882,0 1.57698,0.708115 1.57698,1.577998 0,0.868865 -0.708115,1.575963 -1.57698,1.575963 z m 1.661425,-7.5532283 c -0.01119,0.03154 -1.425387,3.5283663 -1.425387,3.5283663 -0.03866,0.09564 -0.132263,0.158716 -0.235021,0.158716 -0.102758,0 -0.19636,-0.06308 -0.235021,-0.158716 L 10.350783,9.8629369 c -0.09157,-0.2370558 -0.131245,-0.4507113 -0.131245,-0.6664015 0,-0.9817977 0.798664,-1.7804621 1.780462,-1.7804621 0.981797,0 1.780462,0.7986644 1.780462,1.7804621 0,0.2156902 -0.03968,0.4293457 -0.119037,0.6358793 z" />
</svg>
