<?xml version="1.0" encoding="UTF-8" standalone="no"?>
<svg
   xmlns:dc="http://purl.org/dc/elements/1.1/"
   xmlns:cc="http://creativecommons.org/ns#"
   xmlns:rdf="http://www.w3.org/1999/02/22-rdf-syntax-ns#"
   xmlns:svg="http://www.w3.org/2000/svg"
   xmlns="http://www.w3.org/2000/svg"
   xmlns:sodipodi="http://sodipodi.sourceforge.net/DTD/sodipodi-0.dtd"
   xmlns:inkscape="http://www.inkscape.org/namespaces/inkscape"
   inkscape:version="1.0rc1 (09960d6f05, 2020-04-09)"
   sodipodi:docname="book.svg"
   id="svg891"
   viewBox="0 0 24 24"
   height="24"
   width="24"
   version="1.2">
  <metadata
     id="metadata897">
    <rdf:RDF>
      <cc:Work
         rdf:about="">
        <dc:format>image/svg+xml</dc:format>
        <dc:type
           rdf:resource="http://purl.org/dc/dcmitype/StillImage" />
      </cc:Work>
    </rdf:RDF>
  </metadata>
  <defs
     id="defs895" />
  <sodipodi:namedview
     inkscape:current-layer="svg891"
     inkscape:window-maximized="1"
     inkscape:window-y="0"
     inkscape:window-x="0"
     inkscape:cy="12"
     inkscape:cx="12"
     inkscape:zoom="47.166667"
     showgrid="false"
     id="namedview893"
     inkscape:window-height="1344"
     inkscape:window-width="2560"
     inkscape:pageshadow="2"
     inkscape:pageopacity="0"
     guidetolerance="10"
     gridtolerance="10"
     objecttolerance="10"
     borderopacity="1"
     bordercolor="#666666"
     pagecolor="#ffffff"
     inkscape:document-rotation="0" />
  <path
     style="stroke-width:1.11111;fill:#8d1919;fill-opacity:1"
     inkscape:connector-curvature="0"
     id="path889"
     d="M 18.666667,2 H 6.4444444 C 6.15,2 5.8666667,2.1166667 5.6588889,2.3255556 l -3.3333333,3.3333333 -0.063333,0.068889 c -0.1544444,0.1833333 -0.25,0.4144444 -0.2611111,0.6666666 L 2,6.4533333 V 18.666667 C 2,20.504444 3.4955556,22 5.3333333,22 h 9.9999997 c 1.448889,0 2.684445,-0.928889 3.143334,-2.222222 h 0.745555 C 20.78,19.777778 22,18.314444 22,16.444444 V 5.3333333 C 22,3.4955556 20.504444,2 18.666667,2 Z M 5.3333333,19.777778 c -0.6122222,0 -1.1111111,-0.497778 -1.1111111,-1.111111 V 7.5555556 H 6.4444444 V 19.777778 Z M 16.444444,18.666667 c 0,0.613333 -0.498888,1.111111 -1.111111,1.111111 H 7.5555556 V 7.5555556 h 7.7777774 c 0.612223,0 1.111111,0.4977777 1.111111,1.1111111 z m 3.333334,-2.222223 c 0,0.688889 -0.36,1.111112 -0.555556,1.111112 H 18.666667 V 8.6666667 c 0,-1.8377778 -1.495556,-3.3333334 -3.333334,-3.3333334 H 5.7933333 L 6.9044444,4.2222222 H 18.666667 c 0.612222,0 1.111111,0.4977778 1.111111,1.1111111 z" />
  <path
     inkscape:connector-curvature="0"
     id="path5553"
     d="M 7.5689046,13.664311 V 7.5689046 h 3.9424194 c 2.796293,0 3.975082,0.00681 4.05477,0.023429 0.400795,0.083581 0.757991,0.4407772 0.841572,0.8415718 0.01675,0.080326 0.02308,1.5760396 0.02221,5.2473506 -0.0011,4.783382 -0.0037,5.144553 -0.03765,5.274529 -0.09319,0.356989 -0.395911,0.661599 -0.765333,0.770108 -0.103615,0.03044 -0.513154,0.03382 -4.086572,0.03382 H 7.5689046 Z"
     style="fill:#d64848;fill-opacity:1;stroke-width:0.0212014" />
  <path
     inkscape:connector-curvature="0"
     id="path5555"
     d="M 5.0035336,19.711467 C 4.6350882,19.585391 4.38211,19.323214 4.274107,18.955516 4.2435159,18.851368 4.2402827,18.30166 4.2402827,13.204633 V 7.5689046 h 1.1024735 1.1024735 v 6.0954064 6.095406 L 5.7932863,19.75917 c -0.6176254,-5.19e-4 -0.6591977,-0.003 -0.7897527,-0.0477 z"
     style="fill:#d64848;fill-opacity:1;stroke-width:0.0212014" />
  <path
     inkscape:connector-curvature="0"
     id="path5557"
     d="M 18.678271,13.035557 C 18.678158,10.081323 18.670549,8.4464784 18.656337,8.3224139 18.540177,7.3084088 18.014471,6.4396446 17.183746,5.888858 16.719508,5.5810596 16.242431,5.408369 15.677586,5.343663 15.553147,5.3294078 13.820471,5.3218427 10.653866,5.3217288 L 5.8200998,5.3215548 6.3604241,4.7809188 6.9007483,4.2402827 h 5.9698057 c 5.402863,0 5.980742,0.00321 6.084962,0.033824 0.37747,0.1108731 0.662105,0.396242 0.770744,0.7727316 0.03077,0.1066343 0.0334,0.65605 0.02838,5.9363957 l -0.0055,5.818886 -0.06261,0.179454 c -0.07162,0.205274 -0.197196,0.403273 -0.315637,0.497685 -0.0811,0.06465 -0.08266,0.06494 -0.386926,0.0722 l -0.305495,0.0073 z"
     style="fill:#aeaeae;fill-opacity:1;stroke-width:0.0212014" />
</svg>
