<?xml version="1.0" encoding="UTF-8" standalone="no"?>
<svg
   xmlns:dc="http://purl.org/dc/elements/1.1/"
   xmlns:cc="http://creativecommons.org/ns#"
   xmlns:rdf="http://www.w3.org/1999/02/22-rdf-syntax-ns#"
   xmlns:svg="http://www.w3.org/2000/svg"
   xmlns="http://www.w3.org/2000/svg"
   xmlns:sodipodi="http://sodipodi.sourceforge.net/DTD/sodipodi-0.dtd"
   xmlns:inkscape="http://www.inkscape.org/namespaces/inkscape"
   inkscape:version="1.0rc1 (09960d6f05, 2020-04-09)"
   sodipodi:docname="cancel.svg"
   id="svg934"
   viewBox="0 0 24 24"
   height="24"
   width="24"
   version="1.2">
  <metadata
     id="metadata940">
    <rdf:RDF>
      <cc:Work
         rdf:about="">
        <dc:format>image/svg+xml</dc:format>
        <dc:type
           rdf:resource="http://purl.org/dc/dcmitype/StillImage" />
      </cc:Work>
    </rdf:RDF>
  </metadata>
  <defs
     id="defs938" />
  <sodipodi:namedview
     inkscape:current-layer="svg934"
     inkscape:window-maximized="1"
     inkscape:window-y="0"
     inkscape:window-x="0"
     inkscape:cy="12"
     inkscape:cx="12"
     inkscape:zoom="38.125"
     showgrid="false"
     id="namedview936"
     inkscape:window-height="1344"
     inkscape:window-width="2560"
     inkscape:pageshadow="2"
     inkscape:pageopacity="0"
     guidetolerance="10"
     gridtolerance="10"
     objecttolerance="10"
     borderopacity="1"
     bordercolor="#666666"
     pagecolor="#ffffff"
     inkscape:document-rotation="0" />
  <path
     style="stroke-width:1.25;fill:#d64848;fill-opacity:1"
     inkscape:connector-curvature="0"
     id="path932"
     d="M 12,2 C 6.48625,2 2,6.48625 2,12 2,17.51375 6.48625,22 12,22 17.51375,22 22,17.51375 22,12 22,6.48625 17.51375,2 12,2 Z M 5.75,12 c 0,-1.04 0.28,-2.005 0.73,-2.86875 L 14.86875,17.52 C 14.005,17.97 13.04,18.25 12,18.25 8.55375,18.25 5.75,15.44625 5.75,12 Z M 17.52,14.86875 9.13125,6.48 C 9.995,6.03 10.96,5.75 12,5.75 c 3.44625,0 6.25,2.80375 6.25,6.25 0,1.04 -0.28,2.005 -0.73,2.86875 z" />
</svg>
