<?xml version="1.0" encoding="UTF-8" standalone="no"?>
<svg
   xmlns:dc="http://purl.org/dc/elements/1.1/"
   xmlns:cc="http://creativecommons.org/ns#"
   xmlns:rdf="http://www.w3.org/1999/02/22-rdf-syntax-ns#"
   xmlns:svg="http://www.w3.org/2000/svg"
   xmlns="http://www.w3.org/2000/svg"
   xmlns:sodipodi="http://sodipodi.sourceforge.net/DTD/sodipodi-0.dtd"
   xmlns:inkscape="http://www.inkscape.org/namespaces/inkscape"
   inkscape:version="1.0rc1 (09960d6f05, 2020-04-09)"
   sodipodi:docname="document-text.svg"
   id="svg2161"
   viewBox="0 0 24 24"
   height="24"
   width="24"
   version="1.2">
  <metadata
     id="metadata2167">
    <rdf:RDF>
      <cc:Work
         rdf:about="">
        <dc:format>image/svg+xml</dc:format>
        <dc:type
           rdf:resource="http://purl.org/dc/dcmitype/StillImage" />
      </cc:Work>
    </rdf:RDF>
  </metadata>
  <defs
     id="defs2165" />
  <sodipodi:namedview
     inkscape:current-layer="svg2161"
     inkscape:window-maximized="1"
     inkscape:window-y="0"
     inkscape:window-x="0"
     inkscape:cy="12"
     inkscape:cx="12.734426"
     inkscape:zoom="38.125"
     showgrid="false"
     id="namedview2163"
     inkscape:window-height="1344"
     inkscape:window-width="2560"
     inkscape:pageshadow="2"
     inkscape:pageopacity="0"
     guidetolerance="10"
     gridtolerance="10"
     objecttolerance="10"
     borderopacity="1"
     bordercolor="#666666"
     pagecolor="#ffffff"
     inkscape:document-rotation="0" />
  <g
     style="fill:#aeaeae;fill-opacity:1"
     transform="matrix(1.125,0,0,1.125,-1.5,-1.3749999)"
     id="g2159">
    <path
       style="fill:#363636;fill-opacity:1"
       inkscape:connector-curvature="0"
       id="path2157"
       d="M 17,21 H 7 C 5.346,21 4,19.654 4,18 V 6 C 4,4.346 5.346,3 7,3 h 10 c 1.654,0 3,1.346 3,3 v 12 c 0,1.654 -1.346,3 -3,3 z M 7,5 C 6.449,5 6,5.449 6,6 v 12 c 0,0.551 0.449,1 1,1 h 10 c 0.551,0 1,-0.449 1,-1 V 6 C 18,5.449 17.551,5 17,5 Z m 9,6 H 8 C 7.724,11 7.5,10.776 7.5,10.5 7.5,10.224 7.724,10 8,10 h 8 c 0.276,0 0.5,0.224 0.5,0.5 0,0.276 -0.224,0.5 -0.5,0.5 z M 16,8 H 8 C 7.724,8 7.5,7.776 7.5,7.5 7.5,7.224 7.724,7 8,7 h 8 c 0.276,0 0.5,0.224 0.5,0.5 C 16.5,7.776 16.276,8 16,8 Z m 0,6 H 8 C 7.724,14 7.5,13.776 7.5,13.5 7.5,13.224 7.724,13 8,13 h 8 c 0.276,0 0.5,0.224 0.5,0.5 0,0.276 -0.224,0.5 -0.5,0.5 z m 0,3 H 8 C 7.724,17 7.5,16.776 7.5,16.5 7.5,16.224 7.724,16 8,16 h 8 c 0.276,0 0.5,0.224 0.5,0.5 0,0.276 -0.224,0.5 -0.5,0.5 z" />
  </g>
  <path
     inkscape:connector-curvature="0"
     id="path4883"
     d="M 6.2256851,19.974083 C 5.9162854,19.934305 5.586273,19.716724 5.4240615,19.445563 5.2463925,19.148562 5.2590164,19.708025 5.2590164,12.131148 5.2590164,4.6228118 5.2486679,5.1280666 5.408465,4.8344667 5.5048695,4.6573399 5.7248573,4.4585472 5.9342026,4.3593823 L 6.1114754,4.2754098 H 12 17.888525 l 0.177273,0.083972 c 0.209345,0.099165 0.429332,0.2979576 0.525737,0.4750844 0.159797,0.2935999 0.149449,-0.2116549 0.149449,7.2966818 0,7.576876 0.01262,7.017413 -0.165045,7.314414 -0.168001,0.280838 -0.488235,0.486452 -0.825324,0.529918 -0.21179,0.02731 -11.3121139,0.02596 -11.5249299,-0.0014 z M 16.780915,17.683796 c 0.181536,-0.106709 0.264585,-0.245729 0.27689,-0.4635 0.01115,-0.197359 -0.03708,-0.325385 -0.170157,-0.451691 C 16.715859,16.605559 17.063756,16.616393 12,16.616393 c -5.0637558,0 -4.7158591,-0.01083 -4.8876481,0.152212 -0.2569536,0.243875 -0.2304181,0.679899 0.053551,0.87993 0.058375,0.04112 0.1459938,0.08426 0.1947075,0.09586 0.048714,0.0116 2.1600458,0.01927 4.6918486,0.01704 l 4.603279,-0.0041 z m -0.110024,-3.32685 c 0.231854,-0.06947 0.389775,-0.288226 0.390828,-0.541395 9.84e-4,-0.236388 -0.09696,-0.403345 -0.301063,-0.513186 l -0.104918,-0.05646 H 12 7.3442623 l -0.1168681,0.06557 c -0.1811029,0.101616 -0.2728252,0.252519 -0.2850563,0.468979 -0.00804,0.142352 8.766e-4,0.199648 0.044347,0.284857 0.06286,0.123216 0.2175354,0.260338 0.331348,0.293746 0.1245293,0.03655 9.2306691,0.0345 9.3528581,-0.0021 z m 0.04471,-3.394403 c 0.124564,-0.05203 0.232418,-0.154663 0.299359,-0.284859 0.04159,-0.08088 0.05067,-0.139947 0.04283,-0.278616 -0.01143,-0.20226 -0.08521,-0.334165 -0.24888,-0.4449696 l -0.09686,-0.065574 -4.685922,-0.00677 -4.6859215,-0.00677 -0.1160029,0.061243 c -0.1782659,0.094114 -0.2695847,0.2433476 -0.2818617,0.4606206 -0.011307,0.200104 0.036345,0.327398 0.170014,0.454164 0.1696241,0.160864 -0.1773069,0.150117 4.8819331,0.15124 4.122412,9.15e-4 4.634368,-0.0034 4.721312,-0.03971 z m 0.06532,-3.4033372 C 16.962451,7.4524968 17.0455,7.313477 17.057805,7.095706 17.068957,6.8983468 17.020728,6.7703209 16.887648,6.6440144 16.715859,6.4809691 17.063756,6.4918033 12,6.4918033 c -5.0637558,0 -4.7158591,-0.010834 -4.8876481,0.1522111 -0.2569536,0.2438752 -0.2304181,0.6798998 0.053551,0.87993 0.058375,0.04112 0.1459938,0.084256 0.1947075,0.095858 0.048714,0.011602 2.1600458,0.019269 4.6918486,0.017039 l 4.603279,-0.00405 z"
     style="fill:#ededed;fill-opacity:1;stroke-width:0.0262295" />
</svg>
