<?xml version="1.0" encoding="UTF-8" standalone="no"?>
<svg
   xmlns:dc="http://purl.org/dc/elements/1.1/"
   xmlns:cc="http://creativecommons.org/ns#"
   xmlns:rdf="http://www.w3.org/1999/02/22-rdf-syntax-ns#"
   xmlns:svg="http://www.w3.org/2000/svg"
   xmlns="http://www.w3.org/2000/svg"
   xmlns:sodipodi="http://sodipodi.sourceforge.net/DTD/sodipodi-0.dtd"
   xmlns:inkscape="http://www.inkscape.org/namespaces/inkscape"
   inkscape:version="1.0rc1 (09960d6f05, 2020-04-09)"
   sodipodi:docname="folder.svg"
   id="svg2765"
   viewBox="0 0 24 24"
   height="24"
   width="24"
   version="1.2">
  <metadata
     id="metadata2771">
    <rdf:RDF>
      <cc:Work
         rdf:about="">
        <dc:format>image/svg+xml</dc:format>
        <dc:type
           rdf:resource="http://purl.org/dc/dcmitype/StillImage" />
      </cc:Work>
    </rdf:RDF>
  </metadata>
  <defs
     id="defs2769" />
  <sodipodi:namedview
     inkscape:current-layer="svg2765"
     inkscape:window-maximized="1"
     inkscape:window-y="0"
     inkscape:window-x="0"
     inkscape:cy="12"
     inkscape:cx="12"
     inkscape:zoom="38.125"
     showgrid="false"
     id="namedview2767"
     inkscape:window-height="1344"
     inkscape:window-width="2560"
     inkscape:pageshadow="2"
     inkscape:pageopacity="0"
     guidetolerance="10"
     gridtolerance="10"
     objecttolerance="10"
     borderopacity="1"
     bordercolor="#666666"
     pagecolor="#ffffff"
     inkscape:document-rotation="0" />
  <path
     style="stroke-width:1.11803;fill:#ffff84;fill-opacity:1"
     inkscape:connector-curvature="0"
     id="path2763"
     d="M 18.666667,5.2499999 H 12 C 12,4.008 11.004444,3 9.777778,3 H 5.3333333 C 3.4955556,3 2,4.51425 2,6.3749999 V 17.624999 C 2,19.48575 3.4955556,21 5.3333333,21 H 18.666667 C 20.504444,21 22,19.48575 22,17.624999 V 8.625 C 22,6.76425 20.504444,5.2499999 18.666667,5.2499999 Z m -13.3333337,0 H 9.777778 c 0,1.2420001 0.995555,2.25 2.222222,2.25 h 6.666667 c 0.613333,0 1.111111,0.504 1.111111,1.1250001 H 4.2222222 V 6.3749999 c 0,-0.6209999 0.4977778,-1.125 1.1111111,-1.125 z M 18.666667,18.75 H 5.3333333 C 4.72,18.75 4.2222222,18.246 4.2222222,17.624999 V 9.75 H 19.777778 v 7.874999 C 19.777778,18.246 19.28,18.75 18.666667,18.75 Z" />
  <path
     inkscape:connector-curvature="0"
     id="path4283"
     d="M 4.9929498,18.680231 C 4.6814599,18.574057 4.4784637,18.391551 4.3311669,18.085246 l -0.081987,-0.170492 -0.00688,-4.085246 -0.00688,-4.0852457 h 7.7646601 7.76466 l -0.007,4.0852457 -0.007,4.085246 -0.08416,0.177674 c -0.09641,0.203537 -0.305224,0.428296 -0.481751,0.518539 -0.266549,0.136263 0.115168,0.12942 -7.198023,0.129028 L 5.1671339,18.73963 4.9928706,18.68023 Z"
     style="fill:#ffffc0;fill-opacity:1;stroke-width:0.0262295" />
  <path
     inkscape:connector-curvature="0"
     id="path4285"
     d="m 4.2416674,7.3508197 0.00751,-1.2655738 0.081243,-0.1704918 C 4.4809023,5.5989666 4.7369519,5.3811843 5.0583656,5.2956046 5.1678331,5.2664578 5.6266424,5.25958 7.4783494,5.2593277 l 2.2849067,-3.113e-4 0.017937,0.1979438 c 0.085297,0.9412787 0.7469579,1.7224442 1.6811019,1.9847292 l 0.209836,0.058917 3.632787,0.013631 c 3.346635,0.012558 3.64159,0.017163 3.74455,0.058471 0.369484,0.1482376 0.668606,0.5282354 0.706753,0.8978401 l 0.01505,0.1458447 h -7.76856 -7.7685596 z"
     style="fill:#ffffc0;fill-opacity:1;stroke-width:0.0262295" />
</svg>
