<?xml version="1.0" encoding="UTF-8"?>
<svg width="24" height="24" version="1.2" viewBox="0 0 24 24" xmlns="http://www.w3.org/2000/svg">
 <g>
  <path d="m5.8887 3.4453c-0.67344 0-1.2227 0.54726-1.2227 1.2207v14.668c0 0.67344 0.54921 1.2207 1.2227 1.2207h12.223c0.67345 0 1.2227-0.54726 1.2227-1.2207v-14.668c0-0.67344-0.54921-1.2207-1.2227-1.2207h-12.223z" fill="#fff" opacity=".95"/>
  <path d="m5.8887 3.4453c-0.67344 0-1.2227 0.54726-1.2227 1.2207v1.334 1.1895 2.8691h14.668v-2.8691-1.1895-1.334c0-0.67344-0.54921-1.2207-1.2227-1.2207h-12.223z" fill="#69c" stroke-width="0"/>
  <g stroke-width="1.2222">
   <path d="m7.1113 13.223c-0.33733 0-0.61133 0.27399-0.61133 0.61133 0 0.33733 0.27399 0.61133 0.61133 0.61133h9.7773c0.33733 1e-6 0.61133-0.274 0.61133-0.61133 0-0.33733-0.27399-0.61133-0.61133-0.61133zm0 3.666c-0.33733 0-0.61133 0.27399-0.61133 0.61133s0.27399 0.61133 0.61133 0.61133h9.7773c0.33733 0 0.61133-0.27399 0.61133-0.61133s-0.27399-0.61133-0.61133-0.61133z" fill="#595959"/>
   <path d="m5.8887 1c-2.0216 0-3.666 1.6445-3.666 3.666v14.668c1e-7 2.0216 1.6445 3.666 3.666 3.666h12.223c2.0216 0 3.666-1.6445 3.666-3.666v-14.668c0-2.0216-1.6445-3.666-3.666-3.666zm0 2.4453h12.223c0.67345 0 1.2227 0.54726 1.2227 1.2207v14.668c0 0.67344-0.54921 1.2207-1.2227 1.2207h-12.223c-0.67344-1e-6 -1.2227-0.54726-1.2227-1.2207v-14.668c0-0.67344 0.54921-1.2207 1.2227-1.2207z" fill="#848484"/>
   <path d="m7.1113 5.8887c-0.33733 0-0.61133 0.27399-0.61133 0.61133 0 0.33733 0.27399 0.61133 0.61133 0.61133h9.7773c0.33733 0 0.61133-0.27399 0.61133-0.61133 0-0.33733-0.27399-0.61133-0.61133-0.61133h-9.7773z" fill="#fff"/>
  </g>
 </g>
</svg>
