<?xml version="1.0" encoding="UTF-8"?>
<svg width="24" height="24" version="1.2" viewBox="0 0 24 24" xmlns="http://www.w3.org/2000/svg">
 <path d="m10.331 2c-4.5925 0-8.3306 3.7382-8.3306 8.3306 0 1.3919 0.34678 2.7026 0.95327 3.8572 0.084308-0.10841 0.15909-0.22884 0.25343-0.32318l1.5415-1.5415c-0.22447-0.62612-0.36968-1.2902-0.36968-1.9926 0-3.281 2.6711-5.9498 5.9521-5.9498 0.7023 0 1.3665 0.14293 1.9926 0.36736l1.8182-1.8182c-1.1435-0.59154-2.4373-0.93002-3.8107-0.93002zm5.6359 3.4852-0.60451 0.60451 2.5459 2.5482 0.46036-0.46268c-0.036008-0.134-0.06915-0.26865-0.1116-0.39991zm0.29296 4.4246c0.0083 0.11891 0.01733 0.23734 0.01861 0.35806l0.16973-0.16973zm2.06 2.6994-5.7103 5.7103c0.10535-0.03032 0.21718-0.04484 0.32086-0.07906l0.89282 0.89049 1.7996 1.7973 0.07208 0.07208 0.07672 0.06743c0.71523 0.60218 1.6044 0.93234 2.5041 0.93234 2.0541 0 3.7247-1.6718 3.7247-3.727 0-0.99966-0.39046-1.9368-1.0997-2.6389l-1.13-1.1741-0.63939-0.63939-0.89049-0.89282c0.03403-0.10314 0.04885-0.21376 0.07906-0.31853zm-11.76 2.2878-0.49291 0.49291 0.54173 0.54173 0.57196-0.57196c-0.21994-0.13829-0.42139-0.29768-0.62079-0.46268zm2.718 1.2857-1.209 1.209 0.54173 0.54173 1.6578-1.6554c-0.33728-0.0036-0.66871-0.03764-0.99047-0.09533z" fill="#69c" stroke-width="1.1901"/>
 <path d="m15.967 2.4766c-0.39666 0-0.79244 0.15073-1.0951 0.45338l-11.3 11.3c-0.30266 0.30266-0.57591 0.75143-0.77424 1.2276-0.19833 0.47826-0.32086 0.99063-0.32086 1.4183v4.6478h4.6478c0.42764 0 0.93769-0.12253 1.4159-0.32086 0.47826-0.19833 0.92729-0.47158 1.2299-0.77424l11.3-11.3c0.30266-0.30266 0.45338-0.7018 0.45338-1.0974 0-0.39666-0.15073-0.79244-0.45338-1.0951l-4.006-4.006c-0.30266-0.30266-0.7018-0.45338-1.0974-0.45338zm0 2.2785 3.276 3.276-1.3346 1.3369-3.276-3.276zm-2.0646 2.067 1.2718 1.2718-8.5654 8.5678-1.2718-1.2741zm2.0042 2.0042 1.2718 1.2718-8.5654 8.5654-1.2741-1.2718zm-11.2 7.4239c0.010333-0.02065 3.0644 3.0342 3.0644 3.0342-0.33261 0.13842-0.56682 0.17205-0.64636 0.17205h-1.5485l-1.0323-1.0323v-1.5485c0-0.07953 0.033633-0.31555 0.16275-0.62544z" fill="#9c9" stroke-width="1.1901"/>
 <path d="m2.4766 18.937v2.5859h2.5605z" fill="#0a0a0a" opacity=".95"/>
</svg>
