<?xml version="1.0" encoding="UTF-8"?>
<svg width="24" height="24" version="1.2" viewBox="0 0 24 24" xmlns="http://www.w3.org/2000/svg">
 <path d="m17.714 22h-11.429c-2.3629 0-4.2857-1.9229-4.2857-4.2857v-11.429c0-2.3629 1.9229-4.2857 4.2857-4.2857h7.1429c0.79 0 1.4286 0.64 1.4286 1.4286 0 0.78857-0.63857 1.4286-1.4286 1.4286h-7.1429c-0.78857 0-1.4286 0.64143-1.4286 1.4286v11.429c0 0.78714 0.64 1.4286 1.4286 1.4286h11.429c0.78857 0 1.4286-0.64143 1.4286-1.4286v-4.2857c0-0.78857 0.63857-1.4286 1.4286-1.4286s1.4286 0.64 1.4286 1.4286v4.2857c0 2.3629-1.9229 4.2857-4.2857 4.2857z" fill="#848484" stroke-width="1.4286"/>
 <path d="m19.02 3.3503c-0.60933 0.010623-1.2003 0.31545-1.5586 0.86719l-5.0977 7.8477-2.3672-3.6445c-0.57329-0.88278-1.7442-1.1319-2.627-0.55859-0.88278 0.57329-1.1319 1.7461-0.55859 2.6289l3.9199 6.0391c0.38514 0.59307 1.0409 0.88965 1.6973 0.85352 0.03023-2.78e-4 0.05972-0.0041 0.08984-0.0059 0.0556-0.0057 0.11074-0.0088 0.16602-0.01953 0.52104-0.07621 1.0077-0.36147 1.3184-0.83984l6.6445-10.23c0.57329-0.88278 0.32419-2.0556-0.55859-2.6289-0.33104-0.21498-0.70276-0.31497-1.0684-0.30859z" fill="#9c9" stroke-linecap="round" stroke-linejoin="round" stroke-width="1.111"/>
</svg>
