<?xml version="1.0" encoding="UTF-8"?>
<svg width="24" height="24" version="1.2" viewBox="0 0 24 24" xmlns="http://www.w3.org/2000/svg">
 <path d="m5.8898 3.4449c-0.67467 1e-7 -1.2225 0.5478-1.2225 1.2225v14.665c0 0.67466 0.5478 1.2225 1.2225 1.2225h12.22c0.67466 0 1.2225-0.5478 1.2225-1.2225v-11h-1.8326c-1.6854 0-3.0551-1.3696-3.0551-3.0551v-1.8326zm9.7775 0.50488v1.3277c0 1.0108 0.82184 1.8326 1.8326 1.8326h1.3277z" fill="#e5e5e5" fill-opacity=".5" stroke-linecap="round" stroke-width=".55"/>
 <path d="m5.8898 1c-2.0216 0-3.6674 1.6458-3.6674 3.6674v14.665c0 2.0216 1.6458 3.6674 3.6674 3.6674h12.22c2.0216 0 3.6674-1.6458 3.6674-3.6674v-12.222c0-0.32511-0.12901-0.63512-0.35879-0.86367l-4.8877-4.8877c-0.22856-0.22978-0.53856-0.35879-0.86367-0.35879zm0 2.4449h8.5551v1.8326c0 1.6854 1.3696 3.0551 3.0551 3.0551h1.8326v11c0 0.67466-0.5478 1.2225-1.2225 1.2225h-12.22c-0.67467 0-1.2225-0.5478-1.2225-1.2225v-14.665c0-0.67467 0.5478-1.2225 1.2225-1.2225zm9.7775 0.50488 3.1604 3.1604h-1.3277c-1.0108 0-1.8326-0.82184-1.8326-1.8326z" fill="#aeaeae" stroke-width="1.2222"/>
 <path d="m10.105 9.9584-3.785 0.4196c-0.13651 0.01653-0.25722 0.10777-0.30249 0.24644-0.045266 0.13867 0 0.28308 0.10059 0.37434 1.1252 1.0267 2.8158 2.5643 2.8158 2.5643-0.00143 0-0.46415 2.2367-0.77166 3.729-0.025865 0.13508 0.022992 0.27806 0.14083 0.36356 0.11711 0.0855 0.268 0.08694 0.38655 0.02012 1.3249-0.753 3.3094-1.8853 3.3094-1.8853l3.308 1.886c0.12071 0.0661 0.27159 0.06467 0.38871-0.02084 0.11783-0.0855 0.16669-0.22848 0.1401-0.36284l-0.7695-3.7297 2.8158-2.5622c0.10059-0.09412 0.14514-0.23854 0.10059-0.37649-0.04454-0.13794-0.16525-0.22919-0.30177-0.245-1.5146-0.16956-3.7857-0.42104-3.7857-0.42104l-1.5685-3.4703c-0.05892-0.1243-0.1825-0.21124-0.32764-0.21124-0.14514 0-0.26944 0.087654-0.32548 0.21124z" fill="#ffff84" stroke-width=".7185"/>
</svg>
