<?xml version="1.0" encoding="UTF-8"?>
<svg width="24" height="24" version="1.2" viewBox="0 0 24 24" xmlns="http://www.w3.org/2000/svg">
 <path d="m3.1113 3.666c-0.61332 0-1.1094 0.49689-1.1094 1.1113v15.557h-0.0019531c0 0.61443 0.498 1.1094 1.1113 1.1094h15.557c0.61332 0 1.1113-0.49494 1.1113-1.1094v-8.2578c-0.61899 0.57364-1.3634 1.0131-2.252 1.2578-0.004058 2.0524-0.007162 4.0735 0.005859 5.8887h-13.311v-13.318c1.6116-0.00848 2.8992 0 4.4648 0 0.75712-0.75269 1.5907-1.5005 2.3418-2.2383h-7.918z" fill="#9c9"/>
 <path d="m21.996 3.1106v-0.55556c-1.8789 2.8644-4 4.3922-6.6667 4.4444v-3.3333c0-0.61222-0.56778-1.1111-1.27-1.1111-0.40444 0-0.75 0.17556-0.98111 0.43444-2.1478 2.2544-6.6378 6.7878-6.6378 6.7878s4.49 4.5356 6.6389 6.8189c0.23111 0.22778 0.57556 0.40333 0.98 0.40333 0.70222 0 1.27-0.49667 1.27-1.1111v-3.3333c5.1778 0 6.6667-5.4122 6.6667-9.4444z" fill="#9c9" stroke-width="1.1111"/>
</svg>
