<?xml version="1.0" encoding="UTF-8" standalone="no"?>
<svg
   xmlns:dc="http://purl.org/dc/elements/1.1/"
   xmlns:cc="http://creativecommons.org/ns#"
   xmlns:rdf="http://www.w3.org/1999/02/22-rdf-syntax-ns#"
   xmlns:svg="http://www.w3.org/2000/svg"
   xmlns="http://www.w3.org/2000/svg"
   width="24"
   height="24"
   version="1.2"
   viewBox="0 0 24 24"
   id="svg2931">
  <defs
     id="defs2935" />
  <metadata
     id="metadata2925">
    <rdf:RDF>
      <cc:Work
         rdf:about="">
        <dc:format>image/svg+xml</dc:format>
        <dc:type
           rdf:resource="http://purl.org/dc/dcmitype/StillImage" />
        <dc:title></dc:title>
      </cc:Work>
    </rdf:RDF>
  </metadata>
  <path
     id="path2927"
     style="fill:#848484;fill-opacity:1"
     d="M 6.2851562,2 C 3.9296438,1.9318024 1.8530839,4.1116184 2,6.4548618 2.0068983,10.304935 1.9861657,14.15563 2.0104329,18.005313 2.1401885,20.174302 4.0868901,22.059322 6.2851562,22 c 3.8832648,-0.0037 7.7667178,0.0074 11.6498648,-0.0056 C 20.253096,21.935675 22.190613,19.73469 22,17.432001 21.996299,13.643017 22.007418,9.8538453 21.994414,6.0649793 21.935675,3.7469037 19.734691,1.8093866 17.432001,2 13.716386,2 10.000771,2 6.2851562,2 Z m 7.1621098,2.8554688 c 1.517767,0.018193 3.040205,-0.037158 4.55493,0.029088 0.831903,0.1432784 1.247019,1.0200413 1.140382,1.796579 -0.0049,3.726426 0.0098,7.453347 -0.0074,11.179464 -0.06228,0.897202 -0.990183,1.406807 -1.816343,1.281978 -3.726391,-0.005 -7.4532932,0.0099 -11.1793638,-0.0075 -0.8893499,-0.06498 -1.4061831,-0.991209 -1.2820783,-1.81622 0.00424,-3.720679 -0.00847,-7.4417768 0.00635,-11.1621953 0.056947,-0.8627405 0.9413144,-1.4230927 1.7608001,-1.2992468 2.2741995,-0.00131 4.5486615,0.00261 6.8226985,-0.00195 z" />
  <rect
     x="7"
     y="10.1"
     width="10"
     height="3.8"
     rx="1.9"
     ry="1.9"
     fill="#f99157"
     stroke-linecap="round"
     stroke-linejoin="round"
     stroke-width="1.111"
     id="rect2929" />
</svg>
