<?xml version="1.0" encoding="UTF-8"?>
<svg width="24" height="24" version="1.1" viewBox="0 0 6.35 6.35" xmlns="http://www.w3.org/2000/svg">
 <path d="m1.3715 3.0659q-0.32092-0.25674-0.44928-0.44928-0.12836-0.19255-0.12837-0.44928 0-0.42361 0.28241-0.69319 0.28241-0.28241 0.68035-0.28241 0.25674 0 0.44928 0.10269 0.19255 0.089858 0.3466 0.23106 0.24391 0.4878 0.24391 1.0141 0 0.42361-0.14121 0.82157-0.12837 0.38511-0.37227 0.71886-0.23106 0.33377-0.55199 0.61618-0.30808 0.26958-0.65467 0.46213l-0.25674-0.41078q0.29525-0.21822 0.57766-0.53914 0.28241-0.33375 0.46213-0.73171zm2.7598 0q-0.32092-0.25674-0.44928-0.44928-0.12837-0.19255-0.12837-0.44928 0-0.42361 0.28241-0.69319 0.28241-0.28241 0.68035-0.28241 0.25674 0 0.44928 0.10269 0.19255 0.089858 0.3466 0.23106 0.24391 0.4878 0.24391 1.0141 0 0.42361-0.14121 0.82157-0.12837 0.38511-0.37227 0.71886-0.23106 0.33377-0.55199 0.61618-0.30808 0.26958-0.65467 0.46213l-0.25674-0.41078q0.29525-0.21822 0.57766-0.53914 0.28241-0.33375 0.46213-0.73171z" fill="#aeaeae" fill-opacity=".78039" stroke-width="1.8194"/>
</svg>
