<?xml version="1.0" encoding="UTF-8"?>
<svg width="24" height="24" version="1.1" viewBox="0 0 6.35 6.35" xmlns="http://www.w3.org/2000/svg">
 <path d="m0.35984 4.85h0.67663l0.28152-0.85936h1.3137l0.28152 0.85936h0.70626l-1.1903-3.4276h-0.81492zm1.1458-1.4273 0.47413-1.452 0.46919 1.452zm3.1955 1.4674c0.30621 0 0.56797-0.10372 0.75071-0.29139l0.0889 0.242h0.44944v-1.4422c0-0.65194-0.37042-1.0075-1.0767-1.0075-0.34572 0-0.7112 0.084-0.99272 0.23213l0.14817 0.43956c0.24694-0.0988 0.48895-0.14816 0.7112-0.14816 0.38523 0 0.59267 0.14816 0.59267 0.43462v0.0642c-1.0421 0.0148-1.5014 0.25189-1.5014 0.76059 0 0.43462 0.32597 0.71614 0.82973 0.71614zm-0.19756-0.8001c0-0.21731 0.25188-0.31609 0.86924-0.32597v0.45438c-0.11853 0.1136-0.28152 0.1778-0.46426 0.1778-0.24201 0-0.40499-0.12347-0.40499-0.30621z" fill="#aeaeae" style="font-feature-settings:normal;font-variant-caps:normal;font-variant-ligatures:normal;font-variant-numeric:normal"/>
</svg>
