<?xml version="1.0" encoding="UTF-8"?>
<svg width="24" height="24" version="1.1" viewBox="0 0 6.35 6.35" xmlns="http://www.w3.org/2000/svg">
 <path d="m3.5108 3.5121h0.54822l-0.12347-0.77541 0.61242 0.49883 0.25682-0.43956-0.76553-0.32103 0.78034-0.29139-0.25188-0.43956-0.63712 0.48401 0.12841-0.8001h-0.54822l0.13829 0.79516-0.6223-0.50377-0.25188 0.43956 0.77047 0.31609-0.77541 0.30621 0.24694 0.4445 0.63218-0.50376zm-1.5557 1.41c0.25188 0 0.41981-0.18274 0.41981-0.4198 0-0.25189-0.16792-0.43463-0.41981-0.43463-0.25682 0-0.42474 0.18274-0.42474 0.43463 0 0.23706 0.16792 0.4198 0.42474 0.4198z" fill="#aeaeae" style="font-feature-settings:normal;font-variant-caps:normal;font-variant-ligatures:normal;font-variant-numeric:normal"/>
</svg>
