<?xml version="1.0" encoding="UTF-8" standalone="no"?>
<svg
   xmlns:dc="http://purl.org/dc/elements/1.1/"
   xmlns:cc="http://creativecommons.org/ns#"
   xmlns:rdf="http://www.w3.org/1999/02/22-rdf-syntax-ns#"
   xmlns:svg="http://www.w3.org/2000/svg"
   xmlns="http://www.w3.org/2000/svg"
   width="24"
   height="24"
   viewBox="0 0 6.3499999 6.3500002"
   version="1.1"
   id="svg8">
  <defs
     id="defs2" />
  <metadata
     id="metadata5">
    <rdf:RDF>
      <cc:Work
         rdf:about="">
        <dc:format>image/svg+xml</dc:format>
        <dc:type
           rdf:resource="http://purl.org/dc/dcmitype/StillImage" />
        <dc:title></dc:title>
      </cc:Work>
    </rdf:RDF>
  </metadata>
  <g
     style="fill:#aeaeae;fill-opacity:1"
     id="layer1"
     transform="translate(0,-290.64999)">
    <g
       aria-label="Aa"
       style="font-style:normal;font-variant:normal;font-weight:normal;font-stretch:normal;font-size:5.64444px;line-height:1.25;font-family:Roboto;-inkscape-font-specification:Roboto;letter-spacing:0px;word-spacing:0px;fill:#aeaeae;fill-opacity:1;stroke:none;stroke-width:0.264583"
       id="text817">
      <g
         id="g968"
         style="fill:#aeaeae;fill-opacity:1">
        <path
           id="path961"
           style="font-style:normal;font-variant:normal;font-weight:bold;font-stretch:normal;font-size:4.93889px;font-family:Cantarell;-inkscape-font-specification:'Cantarell, Bold';font-variant-ligatures:normal;font-variant-caps:normal;font-variant-numeric:normal;font-feature-settings:normal;text-align:start;writing-mode:lr-tb;text-anchor:start;fill:#aeaeae;fill-opacity:1;stroke-width:0.264583"
           d="M 0.35983601,295.49539 H 1.0364638 l 0.2815167,-0.85936 H 2.631725 l 0.2815166,0.85936 H 3.6195028 L 2.4292305,292.0678 H 1.6143138 Z m 1.14582229,-1.42734 0.4741333,-1.45203 0.4691945,1.45203 z" />
        <path
           id="path963"
           style="font-style:normal;font-variant:normal;font-weight:bold;font-stretch:normal;font-size:4.93889px;font-family:Cantarell;-inkscape-font-specification:'Cantarell, Bold';font-variant-ligatures:normal;font-variant-caps:normal;font-variant-numeric:normal;font-feature-settings:normal;text-align:start;writing-mode:lr-tb;text-anchor:start;fill:#aeaeae;fill-opacity:1;stroke-width:0.264583"
           d="m 4.701114,295.54478 c 0.3062111,0 0.5679722,-0.10372 0.7507111,-0.29139 l 0.0889,0.242 H 5.990164 v -1.44215 c 0,-0.65194 -0.3704167,-1.00754 -1.0766778,-1.00754 -0.3457222,0 -0.7112,0.084 -0.9927167,0.23213 l 0.1481667,0.43956 c 0.2469444,-0.0988 0.48895,-0.14816 0.7112,-0.14816 0.3852334,0 0.5926667,0.14816 0.5926667,0.43462 v 0.0642 c -1.0421056,0.0148 -1.5014223,0.25189 -1.5014223,0.76059 0,0.43462 0.3259667,0.71614 0.8297334,0.71614 z m -0.1975556,-0.8001 c 0,-0.21731 0.2518834,-0.31609 0.8692445,-0.32597 v 0.45438 c -0.1185333,0.1136 -0.2815167,0.1778 -0.4642556,0.1778 -0.2420055,0 -0.4049889,-0.12347 -0.4049889,-0.30621 z" />
      </g>
    </g>
  </g>
</svg>
