<?xml version="1.0" encoding="UTF-8"?>
<svg width="24" height="24" version="1.1" viewBox="0 0 6.35 6.35" xmlns="http://www.w3.org/2000/svg">
 <path d="m3.1782 5.2917q-0.4121 0-0.79922-0.1561-0.38087-0.1561-0.67434-0.44331l0.42459-0.49326q0.21853 0.20604 0.49951 0.33716 0.28098 0.12488 0.56195 0.12488 0.34965 0 0.53073-0.14361 0.18108-0.14361 0.18108-0.38087 0-0.12488-0.04995-0.21229-0.043707-0.087414-0.13112-0.14985-0.08117-0.068682-0.1998-0.12488-0.11239-0.056194-0.24975-0.11239l-0.56195-0.24351q-0.14985-0.062438-0.29971-0.1561-0.14361-0.093662-0.26224-0.22478-0.11863-0.13112-0.19356-0.30595-0.068682-0.17483-0.068682-0.39961 0-0.24351 0.099902-0.44955 0.10614-0.21229 0.28722-0.36839 0.18108-0.1561 0.43083-0.24351 0.256-0.087414 0.55571-0.087414 0.3559 0 0.68683 0.14361 0.33092 0.13737 0.56819 0.37463l-0.36839 0.46204q-0.1998-0.16234-0.4121-0.256-0.21229-0.093662-0.47453-0.093662-0.29346 0-0.46829 0.13112-0.17483 0.12488-0.17483 0.34965 0 0.11863 0.04995 0.20604 0.056194 0.08117 0.14361 0.14985 0.093662 0.062439 0.21229 0.11863 0.11863 0.04995 0.24351 0.099902l0.5557 0.23102q0.18108 0.074925 0.33092 0.17483 0.14985 0.099902 0.256 0.23102 0.11239 0.13112 0.17483 0.30595 0.062439 0.16859 0.062439 0.39336 0 0.24975-0.099902 0.46829-0.099902 0.21853-0.29347 0.38712-0.18732 0.16234-0.46204 0.26224-0.26849 0.093653-0.61189 0.093653zm-2.1198-2.3518h4.2333v0.47037h-4.2333z" fill="#aeaeae" stroke-opacity=".78039" stroke-width=".46829"/>
 <path d="m4.9555 5.5562v-0.43195h0.54619v-3.8986h-0.54619v-0.43195h1.1299v4.7624z" fill="#69c" stroke-width="1.1186"/>
 <path d="m0.26458 5.5562v-4.7624h1.1299v0.43195h-0.54083v3.8986h0.54083v0.43195z" fill="#69c" stroke-width="1.1186"/>
</svg>
