<?xml version="1.0" encoding="UTF-8"?>
<svg width="24" height="24" version="1.1" viewBox="0 0 6.35 6.35" xmlns="http://www.w3.org/2000/svg">
 <path d="m3.1785 5.5562q-0.46361 0-0.89912-0.17561-0.42848-0.17561-0.75863-0.49873l0.47766-0.55492q0.24585 0.2318 0.56195 0.37931 0.3161 0.14049 0.63219 0.14049 0.39336 0 0.59707-0.16156t0.20371-0.42848q0-0.14049-0.056194-0.23883-0.04917-0.098341-0.14751-0.16858-0.091316-0.077267-0.22478-0.14049-0.12644-0.063219-0.28097-0.12644l-0.63219-0.27395q-0.16858-0.070243-0.33717-0.17561-0.16156-0.10537-0.29502-0.25288t-0.21775-0.34419q-0.077268-0.19668-0.077268-0.44956 0-0.27395 0.11239-0.50575 0.11941-0.23883 0.32312-0.41444t0.48468-0.27395q0.288-0.098341 0.62517-0.098341 0.40039 0 0.77268 0.16156 0.37229 0.15454 0.63921 0.42146l-0.41444 0.5198q-0.22478-0.18263-0.46361-0.288t-0.53385-0.10537q-0.33014 0-0.52683 0.14751-0.19668 0.14049-0.19668 0.39336 0 0.13346 0.056194 0.2318 0.063219 0.091316 0.16156 0.16858 0.10537 0.070244 0.23883 0.13346 0.13346 0.056194 0.27395 0.11239l0.62516 0.2599q0.20371 0.084291 0.37229 0.19668 0.16858 0.11239 0.288 0.2599 0.12644 0.14751 0.19668 0.34419 0.070244 0.18966 0.070244 0.44253 0 0.28097-0.11239 0.52683-0.11239 0.24585-0.33015 0.43551-0.21073 0.18263-0.5198 0.29502-0.30205 0.10536-0.68838 0.10536zm-2.3848-2.6458h4.7625v0.52917h-4.7625z" fill="#aeaeae" stroke-opacity=".78039" stroke-width=".52683"/>
</svg>
