<?xml version="1.0" encoding="UTF-8"?>
<svg width="24" height="24" version="1.1" viewBox="0 0 6.35 6.35" xmlns="http://www.w3.org/2000/svg">
 <g fill="#aeaeae" stroke-width="1.1">
  <path d="m0.79397 2.8846-0.29357-0.21175 0.28393-0.5005-0.51975-0.23582 0.11068-0.3465 0.55825 0.1155 0.062562-0.56787h0.37057l0.062562 0.57268 0.55343-0.12032 0.1155 0.3465-0.51975 0.23582 0.28393 0.5005-0.29356 0.21175-0.385-0.42832z"/>
  <path d="m2.8219 3.15-0.09999 0.37496h0.86866l-0.09374-0.37496q-0.08749-0.30622-0.16873-0.64993-0.081241-0.34372-0.16248-0.66243h-0.024997q-0.074992 0.32496-0.15623 0.66868-0.074992 0.33747-0.16248 0.64369zm-1.4749 2.0623 1.2749-4.0746h1.1062l1.2749 4.0746h-0.97489l-0.24997-0.96865h-1.2437l-0.24997 0.96865z"/>
  <path d="m4.7812 2.8846-0.29357-0.21175 0.28394-0.5005-0.51975-0.23582 0.11069-0.3465 0.55825 0.1155 0.062562-0.56787h0.37056l0.062562 0.57268 0.55343-0.12032 0.1155 0.3465-0.51975 0.23582 0.28393 0.5005-0.29356 0.21175-0.385-0.42832z"/>
 </g>
</svg>
