<?xml version="1.0" encoding="UTF-8"?>
<svg width="24" height="24" version="1.1" viewBox="0 0 6.35 6.35" xmlns="http://www.w3.org/2000/svg">
 <path d="m3.9467 3.175v-1.9843h0.62793q0.15324 0 0.27942 0.027307 0.12919 0.024274 0.22233 0.081922 0.09615 0.054615 0.14722 0.14868 0.054082 0.094058 0.054082 0.23059 0 0.14261-0.072107 0.26397-0.072107 0.12137-0.2013 0.16688v0.012138q0.16224 0.03641 0.2674 0.15475 0.10816 0.1153 0.10816 0.31556 0 0.14868-0.057086 0.2579-0.057085 0.10922-0.15923 0.18204-0.099142 0.072818-0.23735 0.10922-0.13821 0.033375-0.30045 0.033375zm0.34853-1.1651h0.24937q0.20732 0 0.29744-0.075853 0.093141-0.075853 0.093141-0.20328 0-0.14564-0.09615-0.20632-0.09615-0.060682-0.28843-0.060682h-0.25538zm0 0.89208h0.29443q0.21632 0 0.3335-0.078888 0.11718-0.081923 0.11718-0.24879 0-0.15777-0.11418-0.22756-0.11418-0.07282-0.33651-0.07282h-0.29443z" fill="#fff" stroke-opacity=".78039" stroke-width=".25475"/>
 <path d="m2.2992 3.0475-0.13958 0.48548h1.0134l-0.13958-0.48548q-0.097092-0.31556-0.18812-0.64932-0.084958-0.33377-0.16992-0.66146h-0.024273q-0.084958 0.33377-0.16992 0.66753-0.084958 0.32769-0.18205 0.64325zm-1.329 2.1118 1.2926-3.9688h0.82531l1.2926 3.9688h-0.74035l-0.30949-1.0741h-1.3351l-0.30949 1.0741z" fill="#aeaeae" stroke-opacity=".78039" stroke-width=".45513"/>
 <path d="m0.26458 5.5562v-4.7624h1.1299v0.43195h-0.54083v3.8986h0.54083v0.43195z" fill="#69c" stroke-width="1.1186"/>
 <path d="m4.9555 5.5562v-0.43195h0.54619v-3.8986h-0.54619v-0.43195h1.1299v4.7624z" fill="#69c" stroke-width="1.1186"/>
</svg>
