<?xml version="1.0" encoding="UTF-8"?>
<svg width="24" height="24" version="1.1" viewBox="0 0 6.35 6.35" xmlns="http://www.w3.org/2000/svg">
 <path d="m3.1782 5.0271q-0.36231 0-0.6547-0.1017-0.28603-0.10806-0.49579-0.33689-0.2034-0.22883-0.31782-0.58479-0.10806-0.36231-0.10806-0.87717v-2.3328h0.73733v2.3899q0 0.33689 0.057206 0.57207 0.063563 0.22883 0.17162 0.36866 0.11441 0.13984 0.26697 0.2034 0.15255 0.057206 0.34324 0.057206 0.19068 0 0.3496-0.057206 0.15891-0.063564 0.27332-0.2034 0.11441-0.13984 0.17798-0.36866 0.063564-0.23519 0.063564-0.57207v-2.3899h0.70555v2.3328q0 0.51487-0.10806 0.87717-0.10806 0.35595-0.31782 0.58479-0.2034 0.22883-0.49579 0.33689-0.28603 0.1017-0.64835 0.1017z" fill="#aeaeae" stroke-opacity=".78039" stroke-width=".47673"/>
 <rect x="1.0583" y="5.2917" width="4.2333" height=".52917" fill="#aeaeae" stroke-width="1.2172"/>
</svg>
