<?xml version="1.0" encoding="UTF-8"?>
<svg width="24" height="24" version="1.1" viewBox="0 0 6.35 6.35" xmlns="http://www.w3.org/2000/svg">
 <rect x=".26458" y=".79375" width="5.8208" height="4.7625" fill="#ffff84" fill-opacity=".8" stroke-linecap="round" stroke-width=".1354"/>
 <path d="m1.3229 5.2917v-4.2333h0.98087l0.6397 1.8829q0.060924 0.18829 0.11576 0.38957 0.054831 0.19479 0.11576 0.38957h0.024369q0.060924-0.19479 0.10966-0.38957 0.054831-0.20128 0.11576-0.38957l0.62752-1.8829h0.97478v4.2333h-0.81638v-1.5518q0-0.15583 0.012185-0.34412 0.012185-0.18829 0.030462-0.37658 0.018277-0.19479 0.036554-0.37658 0.018277-0.18829 0.036554-0.34412h-0.02437l-0.3229 1.0064-0.56659 1.6167h-0.49348l-0.56659-1.6167-0.3168-1.0064h-0.024369q0.018277 0.15583 0.036554 0.34412 0.018277 0.1818 0.036554 0.37658 0.018277 0.18829 0.030462 0.37658 0.012185 0.18829 0.012185 0.34412v1.5518z" fill="#808080" stroke-linecap="round" stroke-width=".11793"/>
 <path d="m4.9555 5.5562v-0.43195h0.54619v-3.8986h-0.54619v-0.43195h1.1299v4.7624z" fill="#69c" stroke-width="1.1186"/>
 <path d="m0.26458 5.5562v-4.7624h1.1299v0.43195h-0.54083v3.8986h0.54083v0.43195z" fill="#69c" stroke-width="1.1186"/>
</svg>
