<?xml version="1.0" encoding="UTF-8" standalone="no"?>
<svg
   xmlns:dc="http://purl.org/dc/elements/1.1/"
   xmlns:cc="http://creativecommons.org/ns#"
   xmlns:rdf="http://www.w3.org/1999/02/22-rdf-syntax-ns#"
   xmlns:svg="http://www.w3.org/2000/svg"
   xmlns="http://www.w3.org/2000/svg"
   version="1.2"
   width="24"
   height="24"
   viewBox="0 0 24 24"
   id="svg2161">
  <metadata
     id="metadata2167">
    <rdf:RDF>
      <cc:Work
         rdf:about="">
        <dc:format>image/svg+xml</dc:format>
        <dc:type
           rdf:resource="http://purl.org/dc/dcmitype/StillImage" />
        <dc:title></dc:title>
      </cc:Work>
    </rdf:RDF>
  </metadata>
  <defs
     id="defs2165" />
  <path
     id="rect12986"
     d="m 5.8888883,3.4444441 c -0.6734444,0 -1.2222222,0.5487778 -1.2222222,1.2222222 V 19.333334 c 0,0.673444 0.5487778,1.222222 1.2222222,1.222222 H 18.11111 c 0.673446,0 1.222224,-0.548778 1.222224,-1.222222 V 4.6666663 c 0,-0.6734444 -0.548778,-1.2222222 -1.222224,-1.2222222 z m 1.2222222,2.4444444 h 9.7777775 c 0.337334,0 0.611112,0.2737778 0.611112,0.6111112 0,0.3373334 -0.273778,0.6111113 -0.611112,0.6111113 H 7.1111105 c -0.3373332,0 -0.611111,-0.2737779 -0.611111,-0.6111112 0,-0.3373335 0.2737778,-0.6111112 0.611111,-0.6111113 z m 0,3.6666664 h 9.7777775 c 0.337334,0 0.611112,0.2737789 0.611112,0.6111111 0,0.337334 -0.273778,0.611112 -0.611112,0.611112 H 7.1111105 c -0.3373332,0 -0.611111,-0.273778 -0.611111,-0.611112 0,-0.3373322 0.2737778,-0.6111111 0.611111,-0.6111111 z m 0,3.6666671 h 9.7777775 c 0.337334,0 0.611112,0.273778 0.611112,0.611112 0,0.337332 -0.273778,0.61111 -0.611112,0.61111 H 7.1111105 c -0.3373332,0 -0.611111,-0.273778 -0.611111,-0.61111 0,-0.337334 0.2737778,-0.611112 0.611111,-0.611112 z m 0,3.666666 h 9.7777775 c 0.337334,0 0.611112,0.273778 0.611112,0.611112 0,0.337334 -0.273778,0.611112 -0.611112,0.611112 H 7.1111105 c -0.3373332,0 -0.611111,-0.273778 -0.611111,-0.611112 0,-0.337334 0.2737778,-0.611112 0.611111,-0.611112 z"
     style="display:inline;opacity:0.95;fill:#ffffff;fill-opacity:1;stroke:none;stroke-width:1.88635;stroke-miterlimit:4;stroke-dasharray:none;stroke-opacity:1" />
  <path
     id="path2157"
     style="display:inline;fill:#595959;fill-opacity:1;stroke-width:1.22222"
     d="M 7.1113281 5.8886719 C 6.7739949 5.8886719 6.5 6.1626666 6.5 6.5 C 6.5 6.8373334 6.7739949 7.1113281 7.1113281 7.1113281 L 16.888672 7.1113281 C 17.226006 7.1113281 17.5 6.8373334 17.5 6.5 C 17.5 6.1626666 17.226006 5.8886719 16.888672 5.8886719 L 7.1113281 5.8886719 z M 7.1113281 9.5546875 C 6.7739949 9.5546875 6.5 9.8286836 6.5 10.166016 C 6.5 10.50335 6.7739949 10.777344 7.1113281 10.777344 L 16.888672 10.777344 C 17.226006 10.777344 17.5 10.50335 17.5 10.166016 C 17.5 9.8286836 17.226006 9.5546875 16.888672 9.5546875 L 7.1113281 9.5546875 z M 7.1113281 13.222656 C 6.7739949 13.222656 6.5 13.49665 6.5 13.833984 C 6.5 14.171316 6.7739949 14.445312 7.1113281 14.445312 L 16.888672 14.445312 C 17.226006 14.445313 17.5 14.171316 17.5 13.833984 C 17.5 13.49665 17.226006 13.222656 16.888672 13.222656 L 7.1113281 13.222656 z M 7.1113281 16.888672 C 6.7739949 16.888672 6.5 17.162666 6.5 17.5 C 6.5 17.837334 6.7739949 18.111328 7.1113281 18.111328 L 16.888672 18.111328 C 17.226006 18.111328 17.5 17.837334 17.5 17.5 C 17.5 17.162666 17.226006 16.888672 16.888672 16.888672 L 7.1113281 16.888672 z " />
  <path
     id="path902"
     style="display:inline;fill:#848484;fill-opacity:1;stroke-width:1.22222"
     d="M 5.8886719,1 C 3.8671165,1 2.2226562,2.6444602 2.2226562,4.6660156 V 19.333984 C 2.2226563,21.355538 3.8671165,23 5.8886719,23 H 18.111328 c 2.021556,0 3.666016,-1.644462 3.666016,-3.666016 V 4.6660156 C 21.777344,2.6444602 20.132884,1 18.111328,1 Z m 0,2.4453125 H 18.111328 c 0.673446,0 1.222656,0.5472587 1.222656,1.2207031 V 19.333984 c 0,0.673444 -0.54921,1.220704 -1.222656,1.220704 H 5.8886719 c -0.6734444,-10e-7 -1.2226563,-0.54726 -1.2226563,-1.220704 V 4.6660156 c 0,-0.6734444 0.5492119,-1.2207031 1.2226563,-1.2207031 z" />
</svg>
