<?xml version="1.0" encoding="UTF-8"?>
<svg width="24" height="24" version="1.2" viewBox="0 0 24 24" xmlns="http://www.w3.org/2000/svg">
 <path d="m19.861 3.6198c-0.46061-0.1909-0.99019-0.084979-1.3424 0.26725-1.5567 1.5555-4.0901 1.5567-5.648 0-2.5186-2.5161-6.6136-2.5161-9.131 0-0.23154 0.23031-0.36085 0.54436-0.36085 0.87073v16.011c0 0.67983 0.55052 1.2316 1.2316 1.2316 0.68107 0 1.2316-0.55175 1.2316-1.2316v-5.6074c1.5653-1.2279 3.8438-1.122 5.2872 0.32021 2.5186 2.5161 6.6148 2.5161 9.131 0 0.23154-0.23154 0.36086-0.54436 0.36086-0.87073v-9.8527c0-0.49879-0.30051-0.94709-0.75989-1.138z" fill="#f99157" stroke-width="1.2316"/>
</svg>
