<?xml version="1.0" encoding="UTF-8"?>
<svg width="24" height="24" version="1.2" viewBox="0 0 24 24" xmlns="http://www.w3.org/2000/svg">
 <path d="m6.8889 16.889v0.61111c2.0668-3.1509 4.4-4.8314 7.3333-4.8889v3.6667c0 0.67344 0.62456 1.2222 1.397 1.2222 0.44489 0 0.825-0.19311 1.0792-0.47789 2.3626-2.4799 7.3016-7.4666 7.3016-7.4666s-4.939-4.9891-7.3028-7.5008c-0.25422-0.25056-0.63311-0.44367-1.078-0.44367-0.77244 0-1.397 0.54633-1.397 1.2222v3.6667c-5.6956 0-7.3333 5.9534-7.3333 10.389zm-3.6667 5.5h17.111c0.67589 0 1.2222-0.54756 1.2222-1.2222v-7.3896c-0.81156 0.82622-1.6671 1.7026-2.4444 2.5019v3.6654h-14.667v-14.667h8.5556v-2.4444h-9.7778c-0.67589 0-1.2222 0.54756-1.2222 1.2222v17.111c0 0.67467 0.54633 1.2222 1.2222 1.2222z" fill="#aeaeae" stroke-width="1.2222"/>
</svg>
