<?xml version="1.0" encoding="UTF-8" standalone="no"?>
<svg
   version="1.2"
   width="24"
   height="24"
   viewBox="0 0 24 24"
   id="svg1169"
   xmlns="http://www.w3.org/2000/svg"
   xmlns:svg="http://www.w3.org/2000/svg">
  <defs
     id="defs1173" />
  <path
     d="M 6.8888889,16.888889 V 17.5 c 2.0667778,-3.150889 4.4000001,-4.831444 7.3333331,-4.888889 v 3.666666 c 0,0.673444 0.624556,1.222223 1.397,1.222223 0.444889,0 0.825,-0.193112 1.079223,-0.477889 C 19.061,14.542222 24,9.5555555 24,9.5555555 c 0,0 -4.939,-4.9891115 -7.302778,-7.5007781 -0.254222,-0.2505555 -0.633111,-0.4436667 -1.078,-0.4436667 -0.772444,0 -1.397,0.5463333 -1.397,1.2222222 v 3.6666667 c -5.6955553,0 -7.3333331,5.9534434 -7.3333331,10.3888894 z m -3.6666667,5.5 H 20.333333 c 0.675889,0 1.222222,-0.547557 1.222222,-1.222223 V 13.77711 c -0.811555,0.826222 -1.66711,1.702555 -2.444444,2.501889 v 3.665444 H 4.4444445 V 5.2777775 H 13 V 2.833333 H 3.2222222 C 2.5463333,2.833333 2,3.3808886 2,4.0555552 V 21.166666 c 0,0.674666 0.5463333,1.222223 1.2222222,1.222223 z"
     id="path1167"
     style="stroke-width:1.22222;fill:#aeaeae;fill-opacity:1" />
</svg>
