<?xml version="1.0" encoding="UTF-8"?>
<svg width="24" height="24" version="1.2" viewBox="0 0 24 24" xmlns="http://www.w3.org/2000/svg">
 <path d="m6.4444 16.444v0.55556c1.8789-2.8644 4-4.3922 6.6667-4.4444v3.3333c0 0.61222 0.56778 1.1111 1.27 1.1111 0.40444 0 0.75-0.17556 0.98111-0.43444 2.1478-2.2544 6.6378-6.7878 6.6378-6.7878s-4.49-4.5356-6.6389-6.8189c-0.23111-0.22778-0.57556-0.40333-0.98-0.40333-0.70222 0-1.27 0.49667-1.27 1.1111v3.3333c-5.1778 0-6.6667 5.4122-6.6667 9.4444zm-3.3333 5h15.556c0.61444 0 1.1111-0.49778 1.1111-1.1111v-6.7178c-0.73778 0.75111-1.5156 1.5478-2.2222 2.2744v3.3322h-13.333v-13.333h7.7778v-2.2222h-8.8889c-0.61444 0-1.1111 0.49778-1.1111 1.1111v15.556c0 0.61333 0.49667 1.1111 1.1111 1.1111z" fill="#69c" stroke-width="1.1111"/>
</svg>
