<?xml version="1.0" encoding="UTF-8"?>
<svg width="24" height="24" version="1.2" viewBox="0 0 24 24" xmlns="http://www.w3.org/2000/svg">
 <path d="m7.0789 3.8947a2.8947 2.8947 0 0 1-2.8947 2.8947 2.8947 2.8947 0 0 1-2.8947-2.8947 2.8947 2.8947 0 0 1 2.8947-2.8947 2.8947 2.8947 0 0 1 2.8947 2.8947zm0 8.1053a2.8947 2.8947 0 0 1-2.8947 2.8947 2.8947 2.8947 0 0 1-2.8947-2.8947 2.8947 2.8947 0 0 1 2.8947-2.8947 2.8947 2.8947 0 0 1 2.8947 2.8947zm0 8.1053a2.8947 2.8947 0 0 1-2.8947 2.8947 2.8947 2.8947 0 0 1-2.8947-2.8947 2.8947 2.8947 0 0 1 2.8947-2.8947 2.8947 2.8947 0 0 1 2.8947 2.8947zm13.316-2.3158h-8.1053c-1.2772 0-2.3158 1.0386-2.3158 2.3158s1.0386 2.3158 2.3158 2.3158h8.1053c1.2772 0 2.3158-1.0386 2.3158-2.3158s-1.0386-2.3158-2.3158-2.3158zm0-8.1053h-8.1053c-1.2772 0-2.3158 1.0386-2.3158 2.3158s1.0386 2.3158 2.3158 2.3158h8.1053c1.2772 0 2.3158-1.0386 2.3158-2.3158s-1.0386-2.3158-2.3158-2.3158zm0-8.1053h-8.1053c-1.2772 0-2.3158 1.0386-2.3158 2.3158s1.0386 2.3158 2.3158 2.3158h8.1053c1.2772 0 2.3158-1.0386 2.3158-2.3158s-1.0386-2.3158-2.3158-2.3158z" fill="#aeaeae" stroke-width="1.1579"/>
</svg>
