<?xml version="1.0" encoding="UTF-8"?>
<svg width="24" height="24" version="1.2" viewBox="0 0 24 24" xmlns="http://www.w3.org/2000/svg">
 <path d="m12 2a2.6315 2.6315 0 0 0-2.6314 2.6314 2.6315 2.6315 0 0 0 2.6314 2.6314 2.6315 2.6315 0 0 0 2.6314-2.6314 2.6315 2.6315 0 0 0-2.6314-2.6314zm0 7.3686a2.6315 2.6315 0 0 0-2.6314 2.6314 2.6315 2.6315 0 0 0 2.6314 2.6314 2.6315 2.6315 0 0 0 2.6314-2.6314 2.6315 2.6315 0 0 0-2.6314-2.6314zm0 7.3686a2.6315 2.6315 0 0 0-2.6314 2.6314 2.6315 2.6315 0 0 0 2.6314 2.6314 2.6315 2.6315 0 0 0 2.6314-2.6314 2.6315 2.6315 0 0 0-2.6314-2.6314z" fill="#aeaeae" stroke-width=".90909"/>
</svg>
