<?xml version="1.0" encoding="UTF-8"?>
<svg width="24" height="24" version="1.2" viewBox="0 0 24 24" xmlns="http://www.w3.org/2000/svg">
 <path d="m20 0h-14.667c-0.35333 0-0.69333 0.14-0.94267 0.39067l-4 4-0.076 0.082667c-0.18533 0.22-0.3 0.49733-0.31333 0.8l-0.0013333 0.070666v14.656c0 2.2053 1.7947 4 4 4h12c1.7387 0 3.2213-1.1147 3.772-2.6667h0.89467c1.8693 0 3.3333-1.756 3.3333-4v-13.333c0-2.2053-1.7947-4-4-4zm-16 21.333c-0.73467 0-1.3333-0.59733-1.3333-1.3333v-13.333h2.6667v14.667zm13.333-1.3333c0 0.736-0.59867 1.3333-1.3333 1.3333h-9.3333v-14.667h9.3333c0.73467 0 1.3333 0.59733 1.3333 1.3333zm4-2.6667c0 0.82667-0.432 1.3333-0.66667 1.3333h-0.66667v-10.667c0-2.2053-1.7947-4-4-4h-11.448l1.3333-1.3333h14.115c0.73467 0 1.3333 0.59733 1.3333 1.3333z" fill="#aeaeae" stroke-width="1.3333"/>
</svg>
