<?xml version="1.0" encoding="UTF-8"?>
<svg width="24" height="24" version="1.2" viewBox="0 0 24 24" xmlns="http://www.w3.org/2000/svg">
 <path d="m15.667 12h-2.4444v-2.4444c0-0.67589-0.54633-1.2222-1.2222-1.2222s-1.2222 0.54633-1.2222 1.2222v2.4444h-2.4444c-0.67589 0-1.2222 0.54633-1.2222 1.2222s0.54633 1.2222 1.2222 1.2222h2.4444v2.4444c0 0.67589 0.54633 1.2222 1.2222 1.2222s1.2222-0.54633 1.2222-1.2222v-2.4444h2.4444c0.67589 0 1.2222-0.54633 1.2222-1.2222s-0.54633-1.2222-1.2222-1.2222zm5.753-5.753-4.8889-4.8889c-0.22856-0.22978-0.539-0.35811-0.86411-0.35811h-9.7778c-2.0216 0-3.6667 1.6451-3.6667 3.6667v14.667c0 2.0216 1.6451 3.6667 3.6667 3.6667h12.222c2.0216 0 3.6667-1.6451 3.6667-3.6667v-12.222c0-0.32511-0.12833-0.63556-0.35811-0.86411zm-2.5923 0.86411h-1.3273c-1.0108 0-1.8333-0.82256-1.8333-1.8333v-1.3273zm-0.71622 13.444h-12.222c-0.67467 0-1.2222-0.54756-1.2222-1.2222v-14.667c0-0.67467 0.54756-1.2222 1.2222-1.2222h8.5556v1.8333c0 1.6854 1.3701 3.0556 3.0556 3.0556h1.8333v11c0 0.67467-0.54756 1.2222-1.2222 1.2222z" fill="#aeaeae" stroke-width="1.2222"/>
</svg>
