<?xml version="1.0" encoding="UTF-8"?>
<svg width="24" height="24" version="1.2" viewBox="0 0 24 24" xmlns="http://www.w3.org/2000/svg">
 <path d="m20.121 3.8786c-1.17-1.1715-3.072-1.1715-4.2421 0l-3.879 3.8791-3.879-3.8791c-1.17-1.1715-3.072-1.1715-4.2421 0-1.1715 1.1715-1.1715 3.0705 0 4.2421l3.8776 3.879-3.8776 3.879c-1.1715 1.1715-1.1715 3.0705 0 4.2421 0.58502 0.58652 1.353 0.87902 2.1211 0.87902 0.76801 0 1.5361-0.29251 2.1211-0.87902l3.879-3.879 3.879 3.879c0.58502 0.58652 1.353 0.87902 2.1211 0.87902 0.76801 0 1.5361-0.29251 2.1211-0.87902 1.1715-1.1715 1.1715-3.0705 0-4.2421l-3.8776-3.879 3.8776-3.879c1.1715-1.1715 1.1715-3.0705 0-4.2421z" fill="#d64848" stroke-width="1.5001"/>
</svg>
