<?xml version="1.0" encoding="UTF-8"?>
<svg width="24" height="24" version="1.2" viewBox="0 0 24 24" xmlns="http://www.w3.org/2000/svg">
 <path d="m14.526 2.5261c0-1.3958-1.1318-2.5264-2.5264-2.5264s-2.5264 1.1306-2.5264 2.5264v15.158h5.0528zm6.3159 5.0528c0-1.3958-1.1318-2.5264-2.5264-2.5264-1.3946 0-2.5264 1.1306-2.5264 2.5264v10.106h5.0527zm-12.632 3.7896c0-1.3958-1.1318-2.5264-2.5264-2.5264s-2.5264 1.1306-2.5264 2.5264v6.3159h5.0527zm12.632 10.105h-17.685c-0.69854 0-1.2632 0.56464-1.2632 1.2632 0 0.69854 0.56464 1.2632 1.2632 1.2632h17.685c0.69854 0 1.2632-0.56464 1.2632-1.2632 0-0.69854-0.56464-1.2632-1.2632-1.2632z" fill="#aeaeae" stroke-width="1.2632"/>
</svg>
