<?xml version="1.0" encoding="UTF-8" standalone="no"?>
<svg
   xmlns:dc="http://purl.org/dc/elements/1.1/"
   xmlns:cc="http://creativecommons.org/ns#"
   xmlns:rdf="http://www.w3.org/1999/02/22-rdf-syntax-ns#"
   xmlns:svg="http://www.w3.org/2000/svg"
   xmlns="http://www.w3.org/2000/svg"
   id="svg14474"
   viewBox="0 0 24 24"
   height="24"
   width="24"
   version="1.2">
  <metadata
     id="metadata14480">
    <rdf:RDF>
      <cc:Work
         rdf:about="">
        <dc:format>image/svg+xml</dc:format>
        <dc:type
           rdf:resource="http://purl.org/dc/dcmitype/StillImage" />
        <dc:title></dc:title>
      </cc:Work>
    </rdf:RDF>
  </metadata>
  <defs
     id="defs14478" />
  <path
     style="fill:#99cc99;fill-opacity:1"
     id="path14472"
     d="M21 6.879l-3.879-3.879c-.293-.293-.678-.439-1.061-.439-.384 0-.767.146-1.06.439l-10.939 10.939c-.293.293-.558.727-.75 1.188-.192.463-.311.959-.311 1.373v4.5h4.5c.414 0 .908-.119 1.371-.311.463-.192.896-.457 1.189-.75l10.94-10.939c.293-.293.439-.678.439-1.061 0-.384-.146-.767-.439-1.06zm-15.232 8.182l8.293-8.293 1.232 1.232-8.293 8.293-1.232-1.232zm1.732 3.939h-1.5l-1-1v-1.5c0-.077.033-.305.158-.605.01-.02 2.967 2.938 2.967 2.938-.322.134-.548.167-.625.167zm1.439-.768l-1.232-1.232 8.293-8.293 1.232 1.232-8.293 8.293zm9-9l-3.172-3.172 1.293-1.293 3.17 3.172-1.291 1.293z" />
  <path
     id="rect19553"
     d="M 3,18.414062 V 21 h 2.5605469 z"
     style="display:inline;opacity:0.95;fill:#0a0a0a;fill-opacity:1;stroke:none;stroke-width:1.88249397;stroke-miterlimit:4;stroke-dasharray:none;stroke-opacity:1" />
</svg>
