<?xml version="1.0" encoding="UTF-8"?>
<svg width="24" height="24" version="1.2" viewBox="0 0 24 24" xmlns="http://www.w3.org/2000/svg">
 <path d="m10.692 12.288h-7.692v-7.689c0.012-1.7022 1.0065-2.1116 2.2095-0.90734l1.731 1.7367c1.5225-1.1923 3.3855-1.8447 5.349-1.8447 2.325 0 4.5135 0.90583 6.156 2.5511 1.6485 1.6377 2.5545 3.8288 2.5545 6.1533 0 2.3291-0.906 4.5172-2.5515 6.1594-1.6455 1.6452-3.8325 2.5525-6.159 2.5525-2.325 0-4.5135-0.90734-6.159-2.554-0.444-0.44542-0.837-0.93132-1.17-1.4472-0.5205-0.81135-0.285-1.8897 0.525-2.4071 0.8085-0.51891 1.887-0.28344 2.406 0.5249 0.1995 0.31044 0.438 0.59988 0.702 0.86984 0.9885 0.98682 2.301 1.5297 3.696 1.5297 1.395 0 2.7075-0.5414 3.696-1.5297 0.9855-0.98682 1.53-2.2991 1.53-3.6969 0-1.3948-0.543-2.707-1.53-3.6908-0.9885-0.98682-2.301-1.5312-3.696-1.5312-1.032 0-2.019 0.30144-2.8635 0.85784l2.172 2.1761c1.2045 1.2027 0.795 2.1866-0.906 2.1866z" fill="#9c9" stroke-width="1.3332"/>
</svg>
