<?xml version="1.0" encoding="UTF-8"?>
<svg width="24" height="24" version="1.2" viewBox="0 0 24 24" xmlns="http://www.w3.org/2000/svg">
 <path d="M 22,12 A 2.6315,2.6315 0 0 0 19.3686,9.3686 2.6315,2.6315 0 0 0 16.7372,12 2.6315,2.6315 0 0 0 19.3686,14.6314 2.6315,2.6315 0 0 0 22,12 Z m -7.3686,0 A 2.6315,2.6315 0 0 0 12,9.3686 2.6315,2.6315 0 0 0 9.3686,12 2.6315,2.6315 0 0 0 12,14.6314 2.6315,2.6315 0 0 0 14.6314,12 Z M 7.2628,12 A 2.6315,2.6315 0 0 0 4.6314,9.3686 2.6315,2.6315 0 0 0 2,12 2.6315,2.6315 0 0 0 4.6314,14.6314 2.6315,2.6315 0 0 0 7.2628,12 Z" fill="#aeaeae" stroke-width=".90909"/>
</svg>
