<?xml version="1.0" encoding="UTF-8"?>
<svg width="24" height="24" version="1.2" viewBox="0 0 24 24" xmlns="http://www.w3.org/2000/svg">
 <path d="m23.197 15.837-7.2179-12.031c-0.94741-1.5786-2.3966-2.4821-3.9789-2.4821s-3.0315 0.90347-3.9789 2.4796l-7.2179 12.033c-0.95962 1.5981-1.0646 3.3025-0.28691 4.6761 0.77648 1.3747 2.2928 2.1634 4.1583 2.1634h14.651c1.8655 0 3.3819-0.7887 4.1583-2.1622 0.7777-1.3735 0.67271-3.0778-0.28691-4.6772zm-11.197 2.6262c-1.0426 0-1.8924-0.84852-1.8924-1.8912 0-1.0439 0.84852-1.8936 1.8924-1.8936 1.0439 0 1.8924 0.84975 1.8924 1.8936 0 1.0426-0.84974 1.8912-1.8924 1.8912zm1.9937-9.064c-0.01343 0.037847-1.7105 4.2341-1.7105 4.2341-0.04639 0.11477-0.15872 0.19046-0.28203 0.19046s-0.23563-0.0757-0.28202-0.19046l-1.6983-4.1974c-0.10988-0.28447-0.15749-0.54085-0.15749-0.79969 0-1.1782 0.9584-2.1366 2.1366-2.1366s2.1366 0.95836 2.1366 2.1366c0 0.25883-0.04762 0.51522-0.14284 0.76306z" fill="#f99157" stroke-width="1.2209"/>
</svg>
