<?xml version="1.0" encoding="UTF-8"?>
<svg width="24" height="24" version="1.2" viewBox="0 0 24 24" xmlns="http://www.w3.org/2000/svg">
 <path d="m12 0c-6.6285 0-12 5.373-12 12s5.3715 12 12 12 12-5.373 12-12-5.3715-12-12-12zm5.5605 15.44c0.5865 0.5865 0.5865 1.5345 0 2.121-0.2925 0.2925-0.6765 0.4395-1.0605 0.4395s-0.768-0.147-1.0605-0.4395l-3.4395-3.4395-3.4395 3.4395c-0.2925 0.2925-0.6765 0.4395-1.0605 0.4395s-0.768-0.147-1.0605-0.4395c-0.5865-0.5865-0.5865-1.5345 0-2.121l3.4395-3.4395-3.4395-3.4395c-0.5865-0.5865-0.5865-1.5345 0-2.121s1.5345-0.5865 2.121 0l3.4395 3.4395 3.4395-3.4395c0.5865-0.5865 1.5345-0.5865 2.121 0s0.5865 1.5345 0 2.121l-3.4395 3.4395z" fill="#d64848" stroke-width="1.5"/>
</svg>
