<?xml version="1.0" encoding="UTF-8"?>
<svg width="24" height="24" version="1.2" viewBox="0 0 24 24" xmlns="http://www.w3.org/2000/svg">
 <path d="m8.8419 8.5973-6.3084 0.69934c-0.22752 0.027548-0.4287 0.17962-0.50415 0.41074-0.075443 0.23112 0 0.47181 0.16765 0.6239 1.8753 1.7112 4.693 4.2739 4.693 4.2739-0.00239 0-0.77358 3.7278-1.2861 6.215-0.043109 0.22513 0.03832 0.46343 0.23471 0.60594 0.19519 0.1425 0.44667 0.1449 0.64425 0.03354 2.2082-1.255 5.5157-3.1422 5.5157-3.1422l5.5133 3.1434c0.20118 0.11017 0.45265 0.10778 0.64785-0.03473 0.19639-0.1425 0.27782-0.3808 0.23351-0.60474l-1.2825-6.2162 4.693-4.2703c0.16765-0.15687 0.2419-0.39757 0.16765-0.62749-0.074239-0.22992-0.27542-0.382-0.50295-0.40835-2.5243-0.28261-6.3096-0.70173-6.3096-0.70173l-2.6141-5.7839c-0.0982-0.20717-0.30416-0.35206-0.54606-0.35206s-0.44906 0.14609-0.54247 0.35206z" fill="#ffff84" stroke-width="1.1975"/>
</svg>
