<?xml version="1.0" encoding="UTF-8"?>
<svg width="24" height="24" version="1.2" viewBox="0 0 24 24" xmlns="http://www.w3.org/2000/svg">
 <path d="m16.642 2.3676c-0.48554-0.48803-1.2744-0.49053-1.7649-0.00499-0.12981 0.12981-0.21968 0.28333-0.28084 0.4431-1.0385 2.1668-2.1818 3.3888-3.6247 4.1102-1.6189 0.79883-3.4774 1.3543-6.473 1.3543-0.16226 0-0.32452 0.0312-0.4768 0.09486-0.3058 0.12731-0.54794 0.3707-0.67526 0.67526-0.12606 0.30455-0.12606 0.64905 0 0.9536 0.063657 0.15352 0.15477 0.29207 0.27085 0.4069l4.0478 4.0478-5.6629 7.5514 7.5514-5.6629 4.0466 4.0466c0.11483 0.11733 0.25338 0.2072 0.4069 0.27085 0.15228 0.06366 0.31454 0.09736 0.4768 0.09736 0.16226 0 0.32452-0.0337 0.4768-0.09736 0.3058-0.12731 0.54919-0.36821 0.67526-0.67526 0.06366-0.15103 0.09611-0.31454 0.09611-0.47555 0-2.9956 0.55419-4.8541 1.3518-6.448 0.72019-1.4429 1.9421-2.5862 4.1102-3.6247 0.16101-0.06115 0.31329-0.15103 0.44185-0.28084 0.48554-0.49053 0.48304-1.2794-5e-3 -1.7649z" fill="#69c" stroke-width="1.2482"/>
</svg>
