<?xml version="1.0" encoding="UTF-8"?>
<svg width="24" height="24" version="1.2" viewBox="0 0 24 24" xmlns="http://www.w3.org/2000/svg">
 <g fill="#69c" stroke-width="1.0526">
  <path d="m19.632 17.263h-7.3684c-1.1611 0-2.1053 0.94421-2.1053 2.1053s0.94421 2.1053 2.1053 2.1053h7.3684c1.1611 0 2.1053-0.94421 2.1053-2.1053s-0.94421-2.1053-2.1053-2.1053zm0-7.3684h-7.3684c-1.1611 0-2.1053 0.94421-2.1053 2.1053s0.94421 2.1053 2.1053 2.1053h7.3684c1.1611 0 2.1053-0.94421 2.1053-2.1053s-0.94421-2.1053-2.1053-2.1053zm0-7.3684h-7.3684c-1.1611 0-2.1053 0.94421-2.1053 2.1053 0 1.1611 0.94421 2.1053 2.1053 2.1053h7.3684c1.1611 0 2.1053-0.94421 2.1053-2.1053 0-1.1611-0.94421-2.1053-2.1053-2.1053z"/>
  <circle cx="4.8947" cy="19.368" r="2.6316"/>
  <circle cx="4.8947" cy="12" r="2.6316"/>
  <circle cx="4.8947" cy="4.6316" r="2.6316"/>
 </g>
</svg>
