<?xml version="1.0" encoding="UTF-8"?>
<svg width="24" height="24" version="1.2" viewBox="0 0 24 24" xmlns="http://www.w3.org/2000/svg">
 <path d="m23.197 16.312-7.2179-13.523c-0.94741-1.7744-2.3966-2.7899-3.9789-2.7899-1.5823 0-3.0315 1.0155-3.9789 2.7871l-7.2179 13.525c-0.95962 1.7963-1.0646 3.712-0.28691 5.2559 0.77648 1.5452 2.2928 2.4317 4.1583 2.4317h14.651c1.8655 0 3.3819-0.8865 4.1583-2.4303 0.7777-1.5438 0.67271-3.4595-0.28691-5.2572zm-11.197 2.9518c-1.0426 0-1.8924-0.95374-1.8924-2.1257 0-1.1733 0.84852-2.1284 1.8924-2.1284 1.0439 0 1.8924 0.95512 1.8924 2.1284 0 1.1719-0.84974 2.1257-1.8924 2.1257zm1.9937-10.188c-0.01343 0.04254-1.7105 4.7591-1.7105 4.7591-0.04639 0.129-0.15872 0.21408-0.28203 0.21408-0.12331 0-0.23563-0.08509-0.28202-0.21408l-1.6983-4.7179c-0.10988-0.31974-0.15749-0.60792-0.15749-0.89885 0-1.3243 0.9584-2.4015 2.1366-2.4015 1.1782 0 2.1366 1.0772 2.1366 2.4015 0 0.29092-0.04762 0.57911-0.14284 0.85768z" fill="#f99157" stroke-width="1.2944"/>
</svg>
