<?xml version="1.0" encoding="UTF-8"?>
<svg width="24" height="24" version="1.2" viewBox="0 0 24 24" xmlns="http://www.w3.org/2000/svg">
 <path d="m22.803 11.373c-0.0913-0.1309-2.2682-3.2384-5.2724-5.3626-1.5576-1.1033-3.5222-1.7105-5.5309-1.7105-2.0075 0-3.9721 0.60721-5.5331 1.7105-3.0041 2.1241-5.1789 5.2317-5.2702 5.3626-0.2618 0.3773-0.2618 0.87781 0 1.2551 0.091301 0.1309 2.266 3.2384 5.2702 5.3626 1.5609 1.1022 3.5255 1.7094 5.5331 1.7094 2.0086 0 3.9732-0.60721 5.5309-1.7105 3.0041-2.1241 5.1811-5.2317 5.2724-5.3626 0.2629-0.3762 0.2629-0.87781 0-1.254zm-10.803 4.4771c-2.1274 0-3.85-1.727-3.85-3.85 0-2.1274 1.7226-3.85 3.85-3.85 2.123 0 3.85 1.7226 3.85 3.85 0 2.123-1.727 3.85-3.85 3.85zm2.2-3.85c0 1.2122-0.98781 2.2-2.2 2.2-1.2155 0-2.2-0.98781-2.2-2.2 0-1.2155 0.98451-2.2 2.2-2.2 1.2122 0 2.2 0.98451 2.2 2.2z" fill="#69c" stroke-width="1.1"/>
</svg>
