<?xml version="1.0" encoding="UTF-8"?>
<svg width="24" height="24" version="1.2" viewBox="0 0 24 24" xmlns="http://www.w3.org/2000/svg">
 <path d="m6.7051 7.8828v9.4121c0 1.2988 1.0547 2.3516 2.3535 2.3516h5.8828c1.2988 0 2.3535-1.0527 2.3535-2.3516v-9.4121h-10.59zm1.7656 1.7637c0.32353 0 0.58789 0.26436 0.58789 0.58789v7.0605c0 0.32353-0.26436 0.58789-0.58789 0.58789-0.32353 1e-6 -0.58789-0.26436-0.58789-0.58789v-7.0605c0-0.32353 0.26436-0.58789 0.58789-0.58789zm2.3535 0c0.32353 0 0.58789 0.26436 0.58789 0.58789v7.0605c0 0.32353-0.26436 0.58789-0.58789 0.58789-0.32353 1e-6 -0.58984-0.26436-0.58984-0.58789v-7.0605c0-0.32353 0.26631-0.58789 0.58984-0.58789zm2.3516 0c0.32353 0 0.58984 0.26436 0.58984 0.58789v7.0605c0 0.32353-0.26632 0.58789-0.58984 0.58789-0.32353 1e-6 -0.58789-0.26436-0.58789-0.58789v-7.0605c0-0.32353 0.26436-0.58789 0.58789-0.58789zm2.3535 0c0.32353 0 0.58789 0.26436 0.58789 0.58789v7.0605c-1e-6 0.32353-0.26436 0.58789-0.58789 0.58789-0.32353 1e-6 -0.58789-0.26436-0.58789-0.58789v-7.0605c0-0.32353 0.26436-0.58789 0.58789-0.58789z" fill="#ededed" opacity=".95"/>
 <path d="m19.647 5.5294h-1.1765v-1.1765c0-1.2988-1.0541-2.3529-2.3529-2.3529h-8.2353c-1.2988 0-2.3529 1.0541-2.3529 2.3529v1.1765h-1.1765c-0.64941 0-1.1765 0.52706-1.1765 1.1765 0 0.64941 0.52706 1.1765 1.1765 1.1765v9.4118c0 2.5953 2.1106 4.7059 4.7059 4.7059h5.8824c2.5953 0 4.7059-2.1106 4.7059-4.7059v-9.4118c0.64941 0 1.1765-0.52706 1.1765-1.1765 0-0.64941-0.52706-1.1765-1.1765-1.1765zm-11.765-1.1765h8.2353v1.1765h-8.2353zm9.4118 12.941c0 1.2988-1.0541 2.3529-2.3529 2.3529h-5.8824c-1.2988 0-2.3529-1.0541-2.3529-2.3529v-9.4118h10.588zm-8.8235-7.6471c-0.32353 0-0.58824 0.26471-0.58824 0.58824v7.0588c0 0.32353 0.26471 0.58824 0.58824 0.58824 0.32353 0 0.58824-0.26471 0.58824-0.58824v-7.0588c0-0.32353-0.26471-0.58824-0.58824-0.58824zm2.3529 0c-0.32353 0-0.58824 0.26471-0.58824 0.58824v7.0588c0 0.32353 0.2647 0.58824 0.58824 0.58824 0.32353 0 0.58824-0.26471 0.58824-0.58824v-7.0588c0-0.32353-0.26471-0.58824-0.58824-0.58824zm2.3529 0c-0.32353 0-0.58824 0.26471-0.58824 0.58824v7.0588c0 0.32353 0.26471 0.58824 0.58824 0.58824s0.58824-0.26471 0.58824-0.58824v-7.0588c0-0.32353-0.26471-0.58824-0.58824-0.58824zm2.3529 0c-0.32353 0-0.58824 0.26471-0.58824 0.58824v7.0588c0 0.32353 0.26471 0.58824 0.58824 0.58824 0.32353 0 0.58824-0.26471 0.58824-0.58824v-7.0588c0-0.32353-0.2647-0.58824-0.58824-0.58824z" fill="#aeaeae" stroke-width="1.1765"/>
</svg>
