<?xml version="1.0" encoding="UTF-8"?>
<svg width="24" height="24" version="1.2" viewBox="0 0 24 24" xmlns="http://www.w3.org/2000/svg">
 <path d="m21.322 7.3994-4.7022-4.7281c-0.88446-0.88916-2.4264-0.89857-3.3285-0.0070569-0.23052 0.23052-0.41165 0.5128-0.49163 0.73979-0.76802 1.6019-1.5925 2.6052-2.651 3.2073l-0.25522 0.12349c-1.1385 0.57043-2.6875 1.1514-5.5502 1.1514-0.31285 0-0.61277 0.061159-0.90092 0.17877-0.56925 0.23758-1.0338 0.6998-1.2726 1.2749-0.23405 0.56925-0.23405 1.2244 0 1.7936 0.12232 0.29286 0.29404 0.55396 0.51162 0.76567l3.8048 3.8048-4.4952 6.2959 6.2947-4.4952 3.7954 3.7954c0.21876 0.22229 0.47751 0.39871 0.77155 0.51868 0.29051 0.12114 0.5916 0.18113 0.90092 0.18113s0.61042-0.06116 0.89975-0.18113c0.58572-0.24111 1.0385-0.69628 1.2702-1.2679 0.12114-0.28463 0.1823-0.5963 0.1823-0.90328 0-2.8651 0.58101-4.4129 1.1503-5.5526 0.58337-1.1667 1.6101-2.0559 3.2391-2.8392 0.31873-0.12232 0.59983-0.30109 0.83624-0.5375 0.90798-0.91974 0.90328-2.4123-0.0094-3.3191zm-6.1724 5.6467c-0.96326 1.9324-1.3973 3.9636-1.4055 6.5911l-9.4009-9.3985c2.5158 0 4.4858-0.39401 6.3465-1.2749l0.27639-0.12349c1.6454-0.82212 2.9027-2.2264 3.9848-4.5093l4.6152 4.7645c-2.1912 1.0503-3.5943 2.3052-4.4164 3.9507z" fill="#69c" stroke-width="1.1761"/>
</svg>
