<?xml version="1.0" encoding="UTF-8"?>
<svg width="24" height="24" version="1.2" viewBox="0 0 24 24" xmlns="http://www.w3.org/2000/svg">
 <path d="m12 2c-5.5238 0-10 4.4775-10 10s4.4762 10 10 10 10-4.4775 10-10-4.4762-10-10-10zm4.6338 12.866c0.48875 0.48875 0.48875 1.2788 0 1.7675-0.24375 0.24375-0.56375 0.36625-0.88375 0.36625s-0.64-0.1225-0.88375-0.36625l-2.8662-2.8662-2.8662 2.8662c-0.24375 0.24375-0.56375 0.36625-0.88375 0.36625s-0.64-0.1225-0.88375-0.36625c-0.48875-0.48875-0.48875-1.2788 0-1.7675l2.8662-2.8662-2.8662-2.8662c-0.48875-0.48875-0.48875-1.2788 0-1.7675s1.2788-0.48875 1.7675 0l2.8662 2.8662 2.8662-2.8662c0.48875-0.48875 1.2788-0.48875 1.7675 0s0.48875 1.2788 0 1.7675l-2.8662 2.8662z" fill="#d64848" stroke-width="1.25"/>
</svg>
