<?xml version="1.0" encoding="UTF-8"?>
<svg width="24" height="24" version="1.2" viewBox="0 0 24 24" xmlns="http://www.w3.org/2000/svg">
 <path d="m5.334 5.25c-0.61333 0-1.1113 0.504-1.1113 1.125v2.25h15.555c0-0.621-0.498-1.125-1.1113-1.125h-6.666c-1.2267 0-2.2227-1.008-2.2227-2.25h-4.4434zm-1.1113 4.5v7.875c1e-7 0.621 0.49799 1.125 1.1113 1.125h13.332c0.61333 0 1.1113-0.504 1.1113-1.125v-7.875h-15.555z" fill="#ffffc0"/>
 <path d="m18.667 5.25h-6.6667c0-1.242-0.99556-2.25-2.2222-2.25h-4.4444c-1.8378 0-3.3333 1.5142-3.3333 3.375v11.25c0 1.8608 1.4956 3.375 3.3333 3.375h13.333c1.8378 0 3.3333-1.5142 3.3333-3.375v-9c0-1.8608-1.4956-3.375-3.3333-3.375zm-13.333 0h4.4444c0 1.242 0.99556 2.25 2.2222 2.25h6.6667c0.61333 0 1.1111 0.504 1.1111 1.125h-15.556v-2.25c0-0.621 0.49778-1.125 1.1111-1.125zm13.333 13.5h-13.333c-0.61333 0-1.1111-0.504-1.1111-1.125v-7.875h15.556v7.875c0 0.621-0.49778 1.125-1.1111 1.125z" fill="#ffff84" stroke-width="1.118"/>
</svg>
