<?xml version="1.0" encoding="UTF-8"?>
<svg width="24" height="24" version="1.2" viewBox="0 0 24 24" xmlns="http://www.w3.org/2000/svg">
 <path d="m22.462 10.769v-2.1538c0-2.3754-1.9323-4.3077-4.3077-4.3077h-0.93415c-0.17354-2.4394-2.4037-4.3077-5.2197-4.3077-2.816 0-5.0462 1.8683-5.2197 4.3077h-0.93415c-2.3754 0-4.3077 1.9323-4.3077 4.3077v2.1538c0 1.2455 0.63262 2.2732 1.5938 2.7643-0.44062 0.23138-0.82215 0.57723-1.1003 1.0154-0.32246 0.50954-0.49354 1.1175-0.49354 1.7588v3.3846c0 2.3754 1.9323 4.3077 4.3077 4.3077h3.3846c1.2012 0 2.2535-0.61169 2.7594-1.5988l0.04431 0.08123c0.53538 0.95015 1.5582 1.5175 2.7348 1.5175h3.3846c2.3754 0 4.3077-1.9323 4.3077-4.3077v-3.3846c0-1.2468-0.63384-2.2757-1.5963-2.7655 0.95508-0.50585 1.5963-1.5458 1.5963-2.7729zm-2.4615 8.9231c0 1.0154-0.83077 1.8462-1.8462 1.8462h-3.3846c-0.43815 0-0.89108-0.26585-0.48123-0.94277 0.30277-0.34462 0.48123-0.76185 0.48123-1.2111 0-1.1902-1.2394-2.1538-2.7692-2.1538-1.5298 0-2.7692 0.96369-2.7692 2.1538 0 0.36923 0.11692 0.70892 0.31385 1.0129 0.624 0.82831 0.16738 1.1409-0.31385 1.1409h-3.3846c-1.0154 0-1.8462-0.83077-1.8462-1.8462v-3.3846c0-0.31754 0.13908-0.64123 0.47262-0.64123 0.128 0 0.28185 0.048 0.47015 0.16 0.34462 0.30277 0.76308 0.48123 1.2111 0.48123 1.1889 0 2.1538-1.2406 2.1538-2.7692 0-1.5286-0.96492-2.7692-2.1538-2.7692-0.36923 0-0.70892 0.11692-1.0117 0.31385-0.29169 0.21046-0.51938 0.29908-0.69169 0.29908-0.32 0-0.45046-0.30154-0.45046-0.61292v-2.1538c0-1.0154 0.83077-1.8462 1.8462-1.8462h3.3846c0.48123 0 0.93785-0.31262 0.29908-1.1409-0.18215-0.304-0.29908-0.64369-0.29908-1.0129 0-1.1902 1.2394-2.1538 2.7692-2.1538s2.7692 0.96369 2.7692 2.1538c0 0.44923-0.17846 0.86646-0.48123 1.2111-0.40985 0.67692 0.04308 0.94277 0.48123 0.94277h3.3846c1.0154 0 1.8462 0.83077 1.8462 1.8462v2.1538c0 0.31754-0.13908 0.64123-0.47262 0.64123-0.128 0-0.28185-0.048-0.47015-0.16-0.34462-0.30277-0.76308-0.48123-1.2111-0.48123-1.1889 0-2.1538 1.2406-2.1538 2.7692 0 1.5286 0.96492 2.7692 2.1538 2.7692 0.36923 0 0.70892-0.11692 1.0117-0.31385 0.29169-0.21046 0.51938-0.30031 0.69169-0.29908 0.31877 0 0.44923 0.30154 0.44923 0.61292v3.3846zm-16-7.1458c0.14277 0.03938 0.29046 0.06646 0.44923 0.06646 0.42092 0 0.84062-0.14646 1.2775-0.448l0.084923-0.05046c0.11938-0.077539 0.23138-0.11446 0.34215-0.11446 0.43569 0 0.92308 0.65846 0.92308 1.5385s-0.48738 1.5385-0.92308 1.5385c-0.13292 0-0.26708-0.05908-0.39877-0.17477l-0.176-0.128c-0.37046-0.22523-0.74338-0.33846-1.1065-0.33846-0.16492 0-0.32123 0.02831-0.47262 0.07262zm15.551 1.9175c-0.42092 0-0.84062 0.14646-1.2775 0.448l-0.08492 0.05046c-0.11938 0.07754-0.23138 0.11446-0.34092 0.11446-0.43569 0-0.92308-0.65846-0.92308-1.5385s0.48738-1.5385 0.92308-1.5385c0.13292 0 0.26708 0.05908 0.39877 0.17477l0.176 0.128c0.37169 0.22523 0.74338 0.33846 1.1065 0.33846 0.16738 0 0.32246-0.03077 0.47262-0.07631v1.9655c-0.144-0.03938-0.29169-0.06646-0.45046-0.06646zm-8.5452 7.0745c0.12431-0.42585 0.11446-1.0043-0.37538-1.7182l-0.05415-0.09108c-0.07631-0.12062-0.11569-0.23262-0.11569-0.34338 0-0.43569 0.65723-0.92308 1.5385-0.92308 0.88123 0 1.5385 0.48738 1.5385 0.92308 0 0.13292-0.05908 0.26708-0.176 0.4l-0.128 0.17477c-0.4 0.66092-0.38277 1.2049-0.27077 1.5803h-1.9569z" fill="#aeaeae" stroke-width="1.2308"/>
</svg>
