<?xml version="1.0" encoding="UTF-8"?>
<svg width="24" height="24" version="1.2" viewBox="0 0 24 24" xmlns="http://www.w3.org/2000/svg">
 <path d="m14.251 5e-8a3.7505 3.7505 0 0 0-3.7505 3.7505 3.7505 3.7505 0 0 0 3.7505 3.7505 3.7505 3.7505 0 0 0 3.7505-3.7505 3.7505 3.7505 0 0 0-3.7505-3.7505zm-3.2787 8.9982c-2.7738 0-4.6394 1.6216-4.7174 1.6906-0.26853 0.23703-0.33381 0.62858-0.15529 0.93761 0.18002 0.30904 0.55162 0.45104 0.89366 0.33402 0.0075-3e-3 0.8387-0.28128 1.5588-0.28128 0.39455 0 0.55408 0.0827 0.60359 0.1172 0.25353 0.17702 0.72342 0.51058-0.07618 2.1038l-1.5002 2.9916c-0.89111 1.7777-1.0233 3.4948-0.36919 4.8375 0.53406 1.0996 1.5585 1.8542 2.8832 2.1243 0.47106 0.09451 0.9528 0.1465 1.4299 0.1465 2.7753 0 4.6452-1.6216 4.7232-1.6906 0.26853-0.23553 0.33088-0.62858 0.15236-0.93761-0.18002-0.30754-0.55176-0.44504-0.8878-0.33402-9e-3 3e-3 -0.8387 0.27835-1.5588 0.27835-0.39755 0-0.55844-0.0812-0.60945-0.1172-0.25203-0.17552-0.72198-0.50465 0.07911-2.1008l1.5002-2.9916c0.88961-1.7762 1.0233-3.4933 0.36918-4.8375-0.53406-1.0996-1.5586-1.8542-2.8802-2.1243-0.47556-0.09751-0.9601-0.1465-1.4387-0.1465z" fill="#69c" stroke-width="1.5002"/>
</svg>
