<?xml version="1.0" encoding="UTF-8" standalone="no"?>
<svg
   xmlns:dc="http://purl.org/dc/elements/1.1/"
   xmlns:cc="http://creativecommons.org/ns#"
   xmlns:rdf="http://www.w3.org/1999/02/22-rdf-syntax-ns#"
   xmlns:svg="http://www.w3.org/2000/svg"
   xmlns="http://www.w3.org/2000/svg"
   version="1.2"
   width="24"
   height="24"
   viewBox="0 0 24 24"
   id="svg5828">
  <metadata
     id="metadata5834">
    <rdf:RDF>
      <cc:Work
         rdf:about="">
        <dc:format>image/svg+xml</dc:format>
        <dc:type
           rdf:resource="http://purl.org/dc/dcmitype/StillImage" />
        <dc:title></dc:title>
      </cc:Work>
    </rdf:RDF>
  </metadata>
  <defs
     id="defs5832" />
  <g
     id="g6383"
     transform="translate(0.25)"
     style="fill:#aeaeae;fill-opacity:1">
    <path
       id="path5820"
       d="m 19,17 h -7 c -1.103,0 -2,0.897 -2,2 0,1.103 0.897,2 2,2 h 7 c 1.103,0 2,-0.897 2,-2 0,-1.103 -0.897,-2 -2,-2 z m 0,-7 h -7 c -1.103,0 -2,0.897 -2,2 0,1.103 0.897,2 2,2 h 7 c 1.103,0 2,-0.897 2,-2 0,-1.103 -0.897,-2 -2,-2 z m 0,-7 h -7 c -1.103,0 -2,0.897 -2,2 0,1.103 0.897,2 2,2 h 7 C 20.103,7 21,6.103 21,5 21,3.897 20.103,3 19,3 Z"
       style="fill:#aeaeae;fill-opacity:1" />
    <circle
       id="circle5822"
       r="2.5"
       cy="19"
       cx="5"
       style="fill:#aeaeae;fill-opacity:1" />
    <circle
       id="circle5824"
       r="2.5"
       cy="12"
       cx="5"
       style="fill:#aeaeae;fill-opacity:1" />
    <circle
       id="circle5826"
       r="2.5"
       cy="5"
       cx="5"
       style="fill:#aeaeae;fill-opacity:1" />
  </g>
</svg>
