<?xml version="1.0" encoding="UTF-8" standalone="no"?>
<svg
   xmlns:dc="http://purl.org/dc/elements/1.1/"
   xmlns:cc="http://creativecommons.org/ns#"
   xmlns:rdf="http://www.w3.org/1999/02/22-rdf-syntax-ns#"
   xmlns:svg="http://www.w3.org/2000/svg"
   xmlns="http://www.w3.org/2000/svg"
   version="1.2"
   width="24"
   height="24"
   viewBox="0 0 24 24"
   id="svg2150">
  <metadata
     id="metadata2156">
    <rdf:RDF>
      <cc:Work
         rdf:about="">
        <dc:format>image/svg+xml</dc:format>
        <dc:type
           rdf:resource="http://purl.org/dc/dcmitype/StillImage" />
        <dc:title></dc:title>
      </cc:Work>
    </rdf:RDF>
  </metadata>
  <defs
     id="defs2154" />
  <path
     d="m 17,6.4445834 h -2.317778 l 1.436667,-1.4366667 c 0.434444,-0.4344445 0.434444,-1.1366667 0,-1.5711111 -0.434445,-0.4344445 -1.136667,-0.4344445 -1.571111,0 l -4.118889,4.1188889 4.118889,4.1188895 c 0.216666,0.216666 0.501111,0.325555 0.785555,0.325555 0.284445,0 0.568889,-0.108889 0.785556,-0.325555 0.434444,-0.434445 0.434444,-1.136667 0,-1.571112 L 14.682222,8.6668056 H 17 c 1.532222,0 2.777778,1.4955554 2.777778,3.3333334 0,1.837778 -1.495556,3.333333 -3.333334,3.333333 -0.614444,0 -1.111111,0.497778 -1.111111,1.111112 0,0.613333 0.496667,1.111111 1.111111,1.111111 C 19.507778,17.555695 22,15.063472 22,12.000139 22,8.9368056 19.756667,6.4445834 17,6.4445834 Z M 7.8811111,12.325695 c -0.4344444,0.434444 -0.4344444,1.136666 0,1.571111 L 9.317778,15.333472 H 7 c -1.5322222,0 -2.7777778,-1.495555 -2.7777778,-3.333333 0,-1.837778 1.4955556,-3.3333334 3.3333334,-3.3333334 0.6144444,0 1.1111111,-0.4977778 1.1111111,-1.1111111 C 8.6666667,6.9423611 8.17,6.4445834 7.5555556,6.4445834 4.4922222,6.4445834 2,8.9368056 2,12.000139 c 0,3.063333 2.2433333,5.555556 5,5.555556 h 2.317778 l -1.4366669,1.436666 c -0.4344444,0.434445 -0.4344444,1.136667 0,1.571111 0.2166667,0.216667 0.5011111,0.325556 0.7855556,0.325556 0.2844444,0 0.5688893,-0.108889 0.7855553,-0.325556 l 4.118889,-4.118888 -4.118889,-4.118889 c -0.434444,-0.434445 -1.1366664,-0.434445 -1.5711109,0 z"
     id="path2148"
     style="stroke-width:1.11111116;fill:#aeaeae;fill-opacity:1" />
</svg>
