<?xml version="1.0" encoding="UTF-8" standalone="no"?>
<svg
   xmlns:dc="http://purl.org/dc/elements/1.1/"
   xmlns:cc="http://creativecommons.org/ns#"
   xmlns:rdf="http://www.w3.org/1999/02/22-rdf-syntax-ns#"
   xmlns:svg="http://www.w3.org/2000/svg"
   xmlns="http://www.w3.org/2000/svg"
   id="svg6422"
   viewBox="0 0 24 24"
   height="24"
   width="24"
   version="1.2">
  <metadata
     id="metadata6428">
    <rdf:RDF>
      <cc:Work
         rdf:about="">
        <dc:format>image/svg+xml</dc:format>
        <dc:type
           rdf:resource="http://purl.org/dc/dcmitype/StillImage" />
        <dc:title></dc:title>
      </cc:Work>
    </rdf:RDF>
  </metadata>
  <defs
     id="defs6426" />
  <path
     style="stroke-width:1.29032;fill:#6699cc;fill-opacity:1"
     id="path6420"
     d="m 18.129032,10.709677 c 0.469677,0 0.908387,0.187097 1.269677,0.504517 0.708388,0.428387 0.988388,-0.04387 0.988388,-0.504517 V 8.451613 c 0,-1.0645162 -0.870968,-1.935484 -1.935484,-1.935484 h -3.548387 c -0.459355,0 -0.934194,-0.2787096 -0.504517,-0.9883871 0.31742,-0.3612903 0.504517,-0.7987096 0.504517,-1.2696774 C 14.903226,3.0103226 13.603871,2 12,2 10.396129,2 9.096774,3.0103226 9.096774,4.2580645 9.096774,4.6451613 9.219355,5.0012903 9.425806,5.32 10.08,6.1883871 9.60129,6.516129 9.096774,6.516129 H 5.5483869 c -1.0645162,0 -1.9354839,0.8709678 -1.9354839,1.935484 v 2.258064 c 0,0.504517 0.3277419,0.983226 1.1974194,0.314839 0.3174193,-0.192258 0.6735483,-0.314839 1.0606451,-0.314839 1.2464516,0 2.2580645,1.300646 2.2580645,2.903226 0,1.602581 -1.0116129,2.903226 -2.2580645,2.903226 -0.4696774,0 -0.9083871,-0.187097 -1.2696774,-0.504516 C 3.892903,15.583226 3.612903,16.055484 3.612903,16.516129 v 3.548387 C 3.612903,21.129032 4.4838707,22 5.5483869,22 H 9.096774 C 9.60129,22 10.08,21.672258 9.410322,20.803871 9.219355,20.485161 9.096774,20.129032 9.096774,19.741935 c 0,-1.247741 1.299355,-2.258064 2.903226,-2.258064 1.603871,0 2.903226,1.010323 2.903226,2.258064 0,0.470968 -0.187097,0.908388 -0.504517,1.269678 C 13.969032,21.72129 14.443871,22 14.903226,22 h 3.548387 c 1.064516,0 1.935484,-0.870968 1.935484,-1.935484 v -3.548387 c 0,-0.504516 -0.327742,-0.983226 -1.19742,-0.314839 -0.317419,0.192258 -0.673548,0.314839 -1.060645,0.314839 -1.246452,0 -2.258064,-1.300645 -2.258064,-2.903226 0,-1.60258 1.011612,-2.903226 2.258064,-2.903226 z" />
</svg>
