<?xml version="1.0" encoding="UTF-8" standalone="no"?>
<svg
   xmlns:dc="http://purl.org/dc/elements/1.1/"
   xmlns:cc="http://creativecommons.org/ns#"
   xmlns:rdf="http://www.w3.org/1999/02/22-rdf-syntax-ns#"
   xmlns:svg="http://www.w3.org/2000/svg"
   xmlns="http://www.w3.org/2000/svg"
   version="1.2"
   width="24"
   height="24"
   viewBox="0 0 24 24"
   id="svg11367">
  <metadata
     id="metadata11373">
    <rdf:RDF>
      <cc:Work
         rdf:about="">
        <dc:format>image/svg+xml</dc:format>
        <dc:type
           rdf:resource="http://purl.org/dc/dcmitype/StillImage" />
        <dc:title></dc:title>
      </cc:Work>
    </rdf:RDF>
  </metadata>
  <defs
     id="defs11371" />
  <path
     d="M 17.142857,21 H 6.8571429 C 4.7305714,21 3,19.269429 3,17.142857 V 6.8571429 C 3,4.7305714 4.7305714,3 6.8571429,3 h 6.4285711 c 0.711,0 1.285715,0.576 1.285715,1.2857143 0,0.7097143 -0.574715,1.2857143 -1.285715,1.2857143 H 6.8571429 c -0.7097143,0 -1.2857143,0.5772857 -1.2857143,1.2857143 V 17.142857 c 0,0.708429 0.576,1.285714 1.2857143,1.285714 H 17.142857 c 0.709714,0 1.285714,-0.577285 1.285714,-1.285714 V 13.285714 C 18.428571,12.576 19.003286,12 19.714286,12 20.425286,12 21,12.576 21,13.285714 v 3.857143 C 21,19.269429 19.269429,21 17.142857,21 Z m -3.643714,-5.357571 c -0.45,0 -0.885857,-0.178715 -1.209857,-0.502715 L 8.859,11.710714 c -0.668571,-0.669857 -0.668571,-1.755 0,-2.423571 0.669857,-0.669857 1.755,-0.669857 2.426143,0 L 13.105714,11.109 17.573571,4.0954286 c 0.459,-0.828 1.504286,-1.1275715 2.332286,-0.6672857 0.826714,0.4602857 1.125,1.5042857 0.666,2.331 l -5.572286,9.0000001 c -0.261,0.470571 -0.727714,0.790714 -1.26,0.865286 z"
     id="path11365"
     style="stroke-width:1.28571;fill:#000000;fill-opacity:0.77999997" />
</svg>
