<?xml version="1.0" encoding="UTF-8" standalone="no"?>
<svg
   xmlns:dc="http://purl.org/dc/elements/1.1/"
   xmlns:cc="http://creativecommons.org/ns#"
   xmlns:rdf="http://www.w3.org/1999/02/22-rdf-syntax-ns#"
   xmlns:svg="http://www.w3.org/2000/svg"
   xmlns="http://www.w3.org/2000/svg"
   xmlns:sodipodi="http://sodipodi.sourceforge.net/DTD/sodipodi-0.dtd"
   xmlns:inkscape="http://www.inkscape.org/namespaces/inkscape"
   version="1.2"
   width="24"
   height="24"
   viewBox="0 0 24 24"
   id="svg873"
   sodipodi:docname="search.svg"
   inkscape:version="1.0rc1 (09960d6f05, 2020-04-09)">
  <metadata
     id="metadata879">
    <rdf:RDF>
      <cc:Work
         rdf:about="">
        <dc:format>image/svg+xml</dc:format>
        <dc:type
           rdf:resource="http://purl.org/dc/dcmitype/StillImage" />
        <dc:title></dc:title>
      </cc:Work>
    </rdf:RDF>
  </metadata>
  <defs
     id="defs877" />
  <sodipodi:namedview
     inkscape:document-rotation="0"
     pagecolor="#ffffff"
     bordercolor="#666666"
     borderopacity="1"
     objecttolerance="10"
     gridtolerance="10"
     guidetolerance="10"
     inkscape:pageopacity="0"
     inkscape:pageshadow="2"
     inkscape:window-width="2560"
     inkscape:window-height="1344"
     id="namedview875"
     showgrid="false"
     inkscape:zoom="33.35187"
     inkscape:cx="11.516995"
     inkscape:cy="11.05035"
     inkscape:window-x="0"
     inkscape:window-y="0"
     inkscape:window-maximized="1"
     inkscape:current-layer="svg873" />
  <path
     d="M 19.769714,14.460577 19.131808,13.821482 18.240407,12.92889 C 18.510564,12.110086 18.66171,11.238917 18.66171,10.330854 18.66171,5.7381732 14.923537,2 10.330856,2 5.7381752,2 2.000002,5.7381732 2.000002,10.330854 c 0,4.592681 3.7381732,8.330854 8.330854,8.330854 0.908063,0 1.780422,-0.151146 2.599226,-0.421303 l 0.892591,0.891401 1.799465,1.797084 0.07259,0.0726 0.07617,0.06545 C 16.486163,21.669146 17.375184,22 18.274916,22 c 2.054151,0 3.725082,-1.670931 3.725082,-3.726271 0,-0.999704 -0.390359,-1.937519 -1.099672,-2.639692 z M 4.3790558,10.330854 c 0,-3.2811664 2.6694437,-5.9506101 5.9506102,-5.9506101 3.281166,0 5.95061,2.6694437 5.95061,5.9506101 0,3.281166 -2.669444,5.95061 -5.95061,5.95061 -3.2811665,0 -5.9506102,-2.669444 -5.9506102,-5.95061 z"
     id="path871"
     inkscape:connector-curvature="0"
     sodipodi:nodetypes="cccsssscccccssccsssss"
     style="fill:#000000;fill-opacity:0.78;stroke-width:1.19012" />
</svg>
