<?xml version="1.0" encoding="UTF-8" standalone="no"?>
<svg
   xmlns:dc="http://purl.org/dc/elements/1.1/"
   xmlns:cc="http://creativecommons.org/ns#"
   xmlns:rdf="http://www.w3.org/1999/02/22-rdf-syntax-ns#"
   xmlns:svg="http://www.w3.org/2000/svg"
   xmlns="http://www.w3.org/2000/svg"
   xmlns:sodipodi="http://sodipodi.sourceforge.net/DTD/sodipodi-0.dtd"
   xmlns:inkscape="http://www.inkscape.org/namespaces/inkscape"
   inkscape:version="1.0rc1 (09960d6f05, 2020-04-09)"
   sodipodi:docname="time.svg"
   id="svg8332"
   viewBox="0 0 24 24"
   height="24"
   width="24"
   version="1.2">
  <metadata
     id="metadata8338">
    <rdf:RDF>
      <cc:Work
         rdf:about="">
        <dc:format>image/svg+xml</dc:format>
        <dc:type
           rdf:resource="http://purl.org/dc/dcmitype/StillImage" />
      </cc:Work>
    </rdf:RDF>
  </metadata>
  <defs
     id="defs8336" />
  <sodipodi:namedview
     inkscape:current-layer="svg8332"
     inkscape:window-maximized="1"
     inkscape:window-y="0"
     inkscape:window-x="0"
     inkscape:cy="12"
     inkscape:cx="12"
     inkscape:zoom="38.125"
     showgrid="false"
     id="namedview8334"
     inkscape:window-height="1344"
     inkscape:window-width="2560"
     inkscape:pageshadow="2"
     inkscape:pageopacity="0"
     guidetolerance="10"
     gridtolerance="10"
     objecttolerance="10"
     borderopacity="1"
     bordercolor="#666666"
     pagecolor="#ffffff" />
  <path
     style="stroke-width:1.11111;fill:#000000;fill-opacity:0.77999997"
     inkscape:connector-curvature="0"
     id="path8330"
     d="m 16.444444,12 c 0,-0.611111 -0.5,-1.111111 -1.111111,-1.111111 H 12 c -0.611111,0 -1.111111,0.5 -1.111111,1.111111 0,0.611111 0.5,1.111111 1.111111,1.111111 h 3.333333 c 0.611111,0 1.111111,-0.5 1.111111,-1.111111 z M 12,4.2222222 c 4.287778,0 7.777778,3.49 7.777778,7.7777778 0,4.287778 -3.49,7.777778 -7.777778,7.777778 -4.2877778,0 -7.7777778,-3.49 -7.7777778,-7.777778 0,-4.2877778 3.49,-7.7777778 7.7777778,-7.7777778 M 12,2 C 6.4766667,2 2,6.4766667 2,12 2,17.523333 6.4766667,22 12,22 17.523333,22 22,17.523333 22,12 22,6.4766667 17.523333,2 12,2 Z m 1.111111,6.666667 c 0,-0.611111 -0.5,-1.1111114 -1.111111,-1.1111114 -0.611111,0 -1.111111,0.5000004 -1.111111,1.1111114 V 12 c 0,0.611111 0.5,1.111111 1.111111,1.111111 0.611111,0 1.111111,-0.5 1.111111,-1.111111 z M 12,6.4444444 c 3.063333,0 5.555556,2.4922226 5.555556,5.5555556 0,3.063333 -2.492223,5.555556 -5.555556,5.555556 C 8.9366667,17.555556 6.4444444,15.063333 6.4444444,12 6.4444444,8.936667 8.9366667,6.4444444 12,6.4444444 M 12,5.3333333 C 8.32,5.3333333 5.3333333,8.317778 5.3333333,12 5.3333333,15.68 8.32,18.666667 12,18.666667 15.68,18.666667 18.666667,15.68 18.666667,12 18.666667,8.317778 15.68,5.3333333 12,5.3333333 Z" />
</svg>
