<?xml version="1.0" encoding="UTF-8" standalone="no"?>
<svg
   xmlns:dc="http://purl.org/dc/elements/1.1/"
   xmlns:cc="http://creativecommons.org/ns#"
   xmlns:rdf="http://www.w3.org/1999/02/22-rdf-syntax-ns#"
   xmlns:svg="http://www.w3.org/2000/svg"
   xmlns="http://www.w3.org/2000/svg"
   version="1.2"
   width="24"
   height="24"
   viewBox="0 0 24 24"
   id="svg10159">
  <metadata
     id="metadata10165">
    <rdf:RDF>
      <cc:Work
         rdf:about="">
        <dc:format>image/svg+xml</dc:format>
        <dc:type
           rdf:resource="http://purl.org/dc/dcmitype/StillImage" />
        <dc:title></dc:title>
      </cc:Work>
    </rdf:RDF>
  </metadata>
  <defs
     id="defs10163" />
  <path
     d="M 19.647058,5.5294118 H 18.470589 V 4.3529412 C 18.470589,3.0541176 17.41647,2 16.117646,2 H 7.8823529 C 6.5835293,2 5.5294117,3.0541176 5.5294117,4.3529412 V 5.5294118 H 4.3529411 c -0.6494118,0 -1.1764706,0.5270588 -1.1764706,1.1764706 0,0.6494117 0.5270588,1.1764705 1.1764706,1.1764705 V 17.294118 C 4.3529411,19.889412 6.4635293,22 9.0588234,22 h 5.8823536 c 2.595293,0 4.705881,-2.110588 4.705881,-4.705882 V 7.8823529 c 0.649413,0 1.176471,-0.5270588 1.176471,-1.1764705 0,-0.6494118 -0.527059,-1.1764706 -1.176471,-1.1764706 z M 7.8823529,4.3529412 H 16.117646 V 5.5294118 H 7.8823529 Z M 17.294118,17.294118 c 0,1.298823 -1.054118,2.352941 -2.352941,2.352941 H 9.0588234 c -1.2988235,0 -2.3529411,-1.054118 -2.3529411,-2.352941 V 7.8823529 H 17.294118 Z M 8.4705881,9.647059 c -0.3235294,0 -0.5882352,0.264706 -0.5882352,0.588235 v 7.058824 c 0,0.323529 0.2647058,0.588235 0.5882352,0.588235 0.3235295,0 0.5882353,-0.264706 0.5882353,-0.588235 v -7.058824 c 0,-0.323529 -0.2647058,-0.588235 -0.5882353,-0.588235 z m 2.3529419,0 c -0.32353,0 -0.588235,0.264706 -0.588235,0.588235 v 7.058824 c 0,0.323529 0.264705,0.588235 0.588235,0.588235 0.323529,0 0.588235,-0.264706 0.588235,-0.588235 v -7.058824 c 0,-0.323529 -0.264706,-0.588235 -0.588235,-0.588235 z m 2.352941,0 c -0.323529,0 -0.588235,0.264706 -0.588235,0.588235 v 7.058824 c 0,0.323529 0.264706,0.588235 0.588235,0.588235 0.323529,0 0.588235,-0.264706 0.588235,-0.588235 v -7.058824 c 0,-0.323529 -0.264706,-0.588235 -0.588235,-0.588235 z m 2.352941,0 c -0.323529,0 -0.588235,0.264706 -0.588235,0.588235 v 7.058824 c 0,0.323529 0.264706,0.588235 0.588235,0.588235 0.32353,0 0.588235,-0.264706 0.588235,-0.588235 v -7.058824 c 0,-0.323529 -0.264705,-0.588235 -0.588235,-0.588235 z"
     id="path10157"
     style="stroke-width:1.17647;fill:#000000;fill-opacity:0.77999997" />
</svg>
