<?xml version="1.0" encoding="UTF-8" standalone="no"?>
<svg
   xmlns:dc="http://purl.org/dc/elements/1.1/"
   xmlns:cc="http://creativecommons.org/ns#"
   xmlns:rdf="http://www.w3.org/1999/02/22-rdf-syntax-ns#"
   xmlns:svg="http://www.w3.org/2000/svg"
   xmlns="http://www.w3.org/2000/svg"
   id="svg4"
   viewBox="0 0 20 20"
   height="20"
   width="20"
   version="1.2">
  <metadata
     id="metadata10">
    <rdf:RDF>
      <cc:Work
         rdf:about="">
        <dc:format>image/svg+xml</dc:format>
        <dc:type
           rdf:resource="http://purl.org/dc/dcmitype/StillImage" />
        <dc:title></dc:title>
      </cc:Work>
    </rdf:RDF>
  </metadata>
  <defs
     id="defs8" />
  <path
     style="fill:#000000;fill-opacity:0.35294118;stroke:none;stroke-opacity:1"
     id="path2"
     d="m 16,14.184 v -1.851 c 0,-1.93 -1.57,-3.5 -3.5,-3.5 -0.827,0 -1.5,-0.673 -1.5,-1.5 V 5.816 C 12.161,5.401 13,4.302 13,3 13,1.346 11.654,0 10,0 8.346,0 7,1.346 7,3 7,4.302 7.839,5.401 9,5.815 v 1.518 c 0,0.827 -0.673,1.5 -1.5,1.5 -1.93,0 -3.5,1.57 -3.5,3.5 v 1.851 C 2.839,14.599 2,15.698 2,17 c 0,1.654 1.346,3 3,3 1.654,0 3,-1.346 3,-3 0,-1.302 -0.839,-2.401 -2,-2.816 v -1.851 c 0,-0.827 0.673,-1.5 1.5,-1.5 0.979,0 1.864,-0.407 2.5,-1.058 0.636,0.651 1.521,1.058 2.5,1.058 0.827,0 1.5,0.673 1.5,1.5 v 1.851 c -1.161,0.415 -2,1.514 -2,2.816 0,1.654 1.346,3 3,3 1.654,0 3,-1.346 3,-3 0,-1.302 -0.839,-2.401 -2,-2.816 z M 5,18 c -0.552,0 -1,-0.449 -1,-1 0,-0.551 0.448,-1 1,-1 0.552,0 1,0.449 1,1 0,0.551 -0.448,1 -1,1 z M 10,2 c 0.552,0 1,0.449 1,1 0,0.551 -0.448,1 -1,1 C 9.448,4 9,3.551 9,3 9,2.449 9.448,2 10,2 Z m 5,16 c -0.552,0 -1,-0.449 -1,-1 0,-0.551 0.448,-1 1,-1 0.552,0 1,0.449 1,1 0,0.551 -0.448,1 -1,1 z" />
</svg>
