<?xml version="1.0" encoding="UTF-8"?>
<svg width="1024" height="1024" version="1.1" viewBox="0 0 270.93 270.93" xmlns="http://www.w3.org/2000/svg" xmlns:cc="http://creativecommons.org/ns#" xmlns:dc="http://purl.org/dc/elements/1.1/" xmlns:rdf="http://www.w3.org/1999/02/22-rdf-syntax-ns#" xmlns:xlink="http://www.w3.org/1999/xlink">
 <defs>
  <filter id="filter1444" x="-.021584" y="-.024942" width="1.0489" height="1.0565" color-interpolation-filters="sRGB">
   <feFlood flood-color="rgb(0,0,0)" flood-opacity=".49804" result="flood"/>
   <feComposite in="flood" in2="SourceGraphic" operator="in" result="composite1"/>
   <feGaussianBlur in="composite1" result="blur" stdDeviation="1"/>
   <feOffset dx="1" dy="1" result="offset"/>
   <feComposite in="SourceGraphic" in2="offset" result="composite2"/>
  </filter>
  <filter id="filter1456" x="-.040088" y="-.077879" width="1.0909" height="1.1765" color-interpolation-filters="sRGB">
   <feFlood flood-color="rgb(0,0,0)" flood-opacity=".49804" result="flood"/>
   <feComposite in="flood" in2="SourceGraphic" operator="in" result="composite1"/>
   <feGaussianBlur in="composite1" result="blur" stdDeviation="1"/>
   <feOffset dx="1" dy="1" result="offset"/>
   <feComposite in="SourceGraphic" in2="offset" result="composite2"/>
  </filter>
  <radialGradient id="radialGradient1474" cx="111.19" cy="67.111" r="130.97" gradientTransform="matrix(2.2584 1.5089 -.74487 1.1148 -169.6 -163.94)" gradientUnits="userSpaceOnUse">
   <stop stop-color="#7a9cb8" offset="0"/>
   <stop stop-color="#5978a6" offset="1"/>
  </radialGradient>
 </defs>
 <metadata>
  <rdf:RDF>
   <cc:Work rdf:about="">
    <dc:format>image/svg+xml</dc:format>
    <dc:type rdf:resource="http://purl.org/dc/dcmitype/StillImage"/>
   </cc:Work>
  </rdf:RDF>
 </metadata>
 <g>
  <rect x="5.8208" y="5.8208" width="259.29" height="259.29" rx="21.167" ry="21.167" fill="url(#radialGradient1474)" stroke="#517995" stroke-linejoin="round" stroke-width="2.6458"/>
  <path d="m82.55 52.917c-11.726 0-21.167 9.4403-21.167 21.167v52.916a74.083 74.083 0 0 0 0 5.3e-4 74.083 74.083 0 0 0 0 5e-3v52.912c0 11.726 9.4403 21.167 21.167 21.167s21.167-9.4403 21.167-21.167v-52.917a31.75 31.75 0 0 1 31.75-31.75 31.75 31.75 0 0 1 31.75 31.75v74.834h42.333v-74.834a74.083 74.083 0 0 0-74.083-74.083 74.083 74.083 0 0 0-0.21445 0 74.083 74.083 0 0 0-35.313 9.0744c-3.8165-5.4906-10.167-9.0747-17.39-9.0747zm61.241 149.02c-0.16451 0.0257-0.32206 0.0591-0.47078 0.0997 0.14872-0.0407 0.30627-0.074 0.47078-0.0997zm-0.47078 0.0997c-0.14872 0.0407-0.28858 0.0887-0.41806 0.14263 0.12948-0.0539 0.26934-0.10194 0.41806-0.14263zm89.656-0.0997c0.1645 0.0257 0.32205 0.0591 0.47077 0.0997-0.14872-0.0407-0.30627-0.074-0.47077-0.0997zm0.47077 0.0997c0.14872 0.0407 0.28858 0.0887 0.41806 0.14263-0.12948-0.0539-0.26934-0.10194-0.41806-0.14263z" fill="#a11212" filter="url(#filter1444)" stroke="#7e1b1b" stroke-linejoin="round" stroke-width="2.6458"/>
  <rect x="69.85" y="67.998" width="10.583" height="119.06" rx="5.2917" ry="5.2917" fill="#c32222"/>
  <path d="m167.22 201.83v0.0434h-22.644c-1.4534 0-2.6236 0.59078-2.6236 1.3245 0 0.13837 0.0421 0.27172 0.11937 0.39688h-0.11782c0.0818 0.53871 0.32835 1.0578 0.74517 1.4743l43.815 43.787c1.0373 1.0367 2.7077 1.0367 3.745 0l43.815-43.787c0.4169-0.41662 0.66338-0.93551 0.74517-1.4743h-0.11782c0.0773-0.12516 0.11938-0.25851 0.11938-0.39688 0-0.73368-1.1703-1.3245-2.6236-1.3245h-22.644v-0.0434z" fill="#730d0d" filter="url(#filter1456)" stroke="#590d0d" stroke-linejoin="round" stroke-width="2.6458"/>
 </g>
</svg>
