<?xml version="1.0" encoding="UTF-8"?>
<svg width="24" height="24" version="1.2" viewBox="0 0 24 24" xmlns="http://www.w3.org/2000/svg">
 <path d="m17.714 22h-11.429c-2.3629 0-4.2857-1.9229-4.2857-4.2857v-11.429c0-2.3629 1.9229-4.2857 4.2857-4.2857h7.1429c0.79 0 1.4286 0.64 1.4286 1.4286 0 0.78857-0.63857 1.4286-1.4286 1.4286h-7.1429c-0.78857 0-1.4286 0.64143-1.4286 1.4286v11.429c0 0.78714 0.64 1.4286 1.4286 1.4286h11.429c0.78857 0 1.4286-0.64143 1.4286-1.4286v-4.2857c0-0.78857 0.63857-1.4286 1.4286-1.4286s1.4286 0.64 1.4286 1.4286v4.2857c0 2.3629-1.9229 4.2857-4.2857 4.2857z" fill="#333" stroke-width="1.4286"/>
 <path d="m17.99 3.3379c-0.48501 0.025418-0.96034 0.23584-1.3125 0.62695l-4.6777 5.1953-1.332-1.4785c-0.70433-0.78223-1.9014-0.84495-2.6836-0.14062-0.78223 0.70433-0.84495 1.9014-0.14062 2.6836l1.5996 1.7754-1.5977 1.7754c-0.70433 0.78223-0.64161 1.9793 0.14062 2.6836 0.78223 0.70433 1.9773 0.64161 2.6816-0.14062l1.332-1.4785 1.332 1.4785c0.70433 0.78224 1.9014 0.84495 2.6836 0.14062 0.78223-0.70433 0.84495-1.9014 0.14062-2.6836l-1.5996-1.7754 4.9453-5.4922c0.70433-0.78223 0.64161-1.9793-0.14062-2.6836-0.39112-0.35216-0.88608-0.51175-1.3711-0.48633z" fill="#c82829" stroke-linecap="round" stroke-linejoin="round" stroke-width="1.111"/>
</svg>
