<?xml version="1.0" encoding="UTF-8" standalone="no"?>
<svg
   xmlns:dc="http://purl.org/dc/elements/1.1/"
   xmlns:cc="http://creativecommons.org/ns#"
   xmlns:rdf="http://www.w3.org/1999/02/22-rdf-syntax-ns#"
   xmlns:svg="http://www.w3.org/2000/svg"
   xmlns="http://www.w3.org/2000/svg"
   width="24"
   height="24"
   version="1.2"
   viewBox="0 0 24 24"
   id="svg973">
  <defs
     id="defs977" />
  <metadata
     id="metadata967">
    <rdf:RDF>
      <cc:Work
         rdf:about="">
        <dc:format>image/svg+xml</dc:format>
        <dc:type
           rdf:resource="http://purl.org/dc/dcmitype/StillImage" />
        <dc:title></dc:title>
      </cc:Work>
    </rdf:RDF>
  </metadata>
  <path
     d="m2 17.714v-11.429c0-2.3629 1.9229-4.2857 4.2857-4.2857h11.429c2.3629 0 4.2857 1.9229 4.2857 4.2857v7.1429c0 0.79-0.64 1.4286-1.4286 1.4286-0.78857 0-1.4286-0.63857-1.4286-1.4286v-7.1429c0-0.78857-0.64143-1.4286-1.4286-1.4286h-11.429c-0.78714 0-1.4286 0.64-1.4286 1.4286v11.429c0 0.78857 0.64143 1.4286 1.4286 1.4286h4.2857c0.78857 0 1.4286 0.63857 1.4286 1.4286s-0.64 1.4286-1.4286 1.4286h-4.2857c-2.3629 0-4.2857-1.9229-4.2857-4.2857zm15.714 4.2857h-11.429c-2.3629 0-4.2857-1.9229-4.2857-4.2857v-11.429c0-2.3629 1.9229-4.2857 4.2857-4.2857h7.1429c0.79 0 1.4286 0.64 1.4286 1.4286 0 0.78857-0.63857 1.4286-1.4286 1.4286h-7.1429c-0.78857 0-1.4286 0.64143-1.4286 1.4286v11.429c0 0.78714 0.64 1.4286 1.4286 1.4286h11.429c0.78857 0 1.4286-0.64143 1.4286-1.4286v-4.2857c0-0.78857 0.63857-1.4286 1.4286-1.4286s1.4286 0.64 1.4286 1.4286v4.2857c0 2.3629-1.9229 4.2857-4.2857 4.2857z"
     fill="#333"
     stroke-width="1.4286"
     id="path969" />
  <rect
     x="7"
     y="10.1"
     width="10"
     height="3.8"
     rx="1.9"
     ry="1.9"
     fill="#f5871f"
     stroke-linecap="round"
     stroke-linejoin="round"
     stroke-width="1.111"
     id="rect971" />
</svg>
