<?xml version="1.0" encoding="UTF-8"?>
<svg width="24" height="24" version="1.2" viewBox="0 0 24 24" xmlns="http://www.w3.org/2000/svg">
 <path d="m7.8824 2c-1.2988 0-2.3529 1.0541-2.3529 2.3529v2.3529h-1.1765c-1.2988 0-2.3529 1.0541-2.3529 2.3529v10.588c0 1.2988 1.0541 2.3529 2.3529 2.3529h10.588c1.2988 0 2.3529-1.0541 2.3529-2.3529v-1.1765h2.3529c1.2988 0 2.3529-1.0541 2.3529-2.3529v-11.765c0-1.2988-1.0541-2.3529-2.3529-2.3529zm0 2.3529h11.765v11.765h-2.3529v-7.0588c0-1.2988-1.0541-2.3529-2.3529-2.3529h-7.0588zm-3.5294 4.7059h10.588c0.32353 0 0-0.32353 0 0v10.588h-10.588v-9.8943z" fill="#4271ae" stroke-width="1.1765"/>
</svg>
