<?xml version="1.0" encoding="UTF-8"?>
<svg width="24" height="24" version="1.2" viewBox="0 0 24 24" xmlns="http://www.w3.org/2000/svg">
 <path d="m19.16 0c-0.42553 0-0.84803 0.16053-1.1719 0.48438l-3.9355 3.9375h-9.9473c-0.61011 0-1.1055 0.49231-1.1055 1.1035v11.512 1.3926 4.4648c0 0.61121 0.49536 1.1055 1.1055 1.1055h14.369c0.6101 0 1.1035-0.49426 1.1035-1.1055v-4.4648-1.3926-7.0898l3.9375-3.9355c0.32384-0.32384 0.48438-0.74941 0.48438-1.1738 0-0.42442-0.16053-0.84608-0.48438-1.1699l-3.1836-3.1836c-0.32384-0.32384-0.74746-0.48438-1.1719-0.48438zm0 2.4395 2.4004 2.4004-1.4297 1.4297-2.4004-2.4004 1.4297-1.4297zm-2.2109 2.2109 2.4004 2.4004-6.9551 6.9551-2.4004-2.4004 6.9551-6.9551zm-11.738 1.9805h6.6309l-3.5137 3.5156c-0.32384 0.32384-0.52842 0.89662-0.69531 1.4238-0.17684 0.55263-0.21094 1.1674-0.21094 1.625v3.3828h3.3828c0.45758 0 1.2246-0.11031 1.7363-0.32031 0.51284-0.21 0.98976-0.38319 1.3125-0.70703l3.5156-3.3926v4.8789 1.3926 3.3594h-12.158v-3.3594-1.3926-10.406zm4.3535 5.8945 1.9414 1.9102-1.875-0.066406-0.066406-1.8438z" fill-opacity=".72157" stroke-width="1.1053"/>
</svg>
