<?xml version="1.0" encoding="UTF-8"?>
<svg width="24" height="24" version="1.2" viewBox="0 0 24 24" xmlns="http://www.w3.org/2000/svg">
 <path d="m6.2852 2c-2.3555-0.068198-4.4321 2.1116-4.2852 4.4549 0.0068983 3.8501-0.013834 7.7008 0.010433 11.55 0.12976 2.169 2.0765 4.054 4.2747 3.9947 3.8833-0.0037 7.7667 0.0074 11.65-0.0056 2.3181-0.058725 4.2556-2.2597 4.065-4.5624-0.003701-3.789 0.007418-7.5782-0.005586-11.367-0.058739-2.3181-2.2597-4.2556-4.5624-4.065h-11.147zm7.1621 2.8555c1.5178 0.018193 3.0402-0.037158 4.5549 0.029088 0.8319 0.14328 1.247 1.02 1.1404 1.7966-0.0049 3.7264 0.0098 7.4533-0.0074 11.179-0.06228 0.8972-0.99018 1.4068-1.8163 1.282-3.7264-5e-3 -7.4533 0.0099-11.179-0.0075-0.88935-0.06498-1.4062-0.99121-1.2821-1.8162 0.00424-3.7207-0.00847-7.4418 0.00635-11.162 0.056947-0.86274 0.94131-1.4231 1.7608-1.2992 2.2742-0.00131 4.5487 0.00261 6.8227-0.00195z" fill="#333"/>
 <rect x="7" y="10.1" width="10" height="3.8" rx="1.9" ry="1.9" fill="#f5871f" stroke-linecap="round" stroke-linejoin="round" stroke-width="1.111"/>
</svg>
