<?xml version="1.0" encoding="UTF-8"?>
<svg width="24" height="24" version="1.2" viewBox="0 0 24 24" xmlns="http://www.w3.org/2000/svg">
 <path d="m17.853 2.0017c-0.14248-0.00428-0.28548-1.936e-4 -0.42925 0.01171h-11.135c-2.3531-0.068148-4.4276 2.1102-4.2808 4.4518 0.00689 3.8473-0.014486 7.6959 0.00976 11.542 0.12963 2.1674 2.0751 4.0505 4.2711 3.9912 3.8794-0.0037 7.7592 0.0071 11.639-0.0059 2.3157-0.05864 4.2507-2.2581 4.0603-4.5591-0.0037-3.7862 0.0071-7.5728-0.0059-11.359-0.054966-2.1716-1.9914-4.0089-4.1286-4.0732zm-11.533 2.8514c0.10262-0.00515 0.20595 1.374e-4 0.30828 0.015613 2.2719-0.00131 4.5437 0.0026 6.8153-0.00195 1.5163 0.01818 3.0369-0.036922 4.5501 0.029275 0.83106 0.14317 1.246 1.0195 1.1395 1.7956-0.0023 1.7714-9.95e-4 3.543 0 5.3144h-14.271c-9.495e-4 -1.9468-0.0019-3.8929 0.00585-5.8394 0.049778-0.75434 0.73334-1.2775 1.4517-1.3135z" fill-opacity=".78039" stroke-width=".99912"/>
</svg>
