<?xml version="1.0" encoding="UTF-8"?>
<svg width="24" height="24" version="1.1" viewBox="0 0 6.35 6.35" xmlns="http://www.w3.org/2000/svg">
 <path d="m3.5108 3.5077h0.54822l-0.12347-0.77373 0.61242 0.49775 0.25682-0.43861-0.76553-0.32033 0.78034-0.29076-0.25188-0.43861-0.63712 0.48296 0.12841-0.79837h-0.54822l0.13829 0.79344-0.6223-0.50268-0.25188 0.43861 0.77047 0.31541-0.77541 0.30555 0.24694 0.44354 0.63218-0.50267zm-1.5557 1.4144c0.25188 0 0.41981-0.18234 0.41981-0.41889 0-0.25134-0.16792-0.43369-0.41981-0.43369-0.25682 0-0.42474 0.18234-0.42474 0.43369 0 0.23655 0.16792 0.41889 0.42474 0.41889z" fill-opacity=".78039" style="font-feature-settings:normal;font-variant-caps:normal;font-variant-ligatures:normal;font-variant-numeric:normal"/>
</svg>
