<?xml version="1.0" encoding="UTF-8"?>
<svg width="24" height="24" version="1.1" viewBox="0 0 6.35 6.35" xmlns="http://www.w3.org/2000/svg">
 <path d="m3.4396 4.8828h1.1593c0.75197 0 1.222-0.40993 1.222-1.0619 0-0.42968-0.2059-0.74083-0.56398-0.88406 0.19695-0.14323 0.3178-0.39511 0.3178-0.66675 0-0.52846-0.38942-0.81492-1.1056-0.81492h-1.0295zm0.57293-2.9139h0.4118c0.36256 0 0.56398 0.16792 0.56398 0.46426 0 0.1778-0.076092 0.31609-0.25066 0.42474h-0.72512zm0 2.4003v-1.0125h0.67141c0.3357 0 0.5416 0.21731 0.5416 0.54822 0 0.31609-0.17457 0.46426-0.55055 0.46426zm-3.4833 0.51364h0.61319l0.25512-0.85937h1.1906l0.25512 0.85937h0.64005l-1.0787-3.4276h-0.73852zm1.0384-1.4273 0.42968-1.452 0.42521 1.452z" fill-opacity=".78039" stroke-width=".25188" style="font-variant-caps:normal;font-variant-east-asian:normal;font-variant-ligatures:normal;font-variant-numeric:normal"/>
</svg>
