<?xml version="1.0" encoding="UTF-8"?>
<svg width="24" height="24" version="1.1" viewBox="0 0 6.35 6.35" xmlns="http://www.w3.org/2000/svg">
 <path d="m4.7011 4.89c0.30621 0 0.56797-0.10344 0.75071-0.29061l0.0889 0.24135h0.44944v-1.4383c0-0.65019-0.37042-1.0048-1.0767-1.0048-0.34572 0-0.7112 0.083774-0.99272 0.23151l0.14817 0.43838c0.24694-0.098534 0.48895-0.14776 0.7112-0.14776 0.38523 0 0.59267 0.14776 0.59267 0.43345v0.064027c-1.0421 0.01476-1.5014 0.25121-1.5014 0.75854 0 0.43345 0.32597 0.71421 0.82973 0.71421zm-0.19756-0.79795c0-0.21673 0.25188-0.31524 0.86924-0.32509v0.45316c-0.11853 0.11329-0.28152 0.17732-0.46426 0.17732-0.24201 0-0.40499-0.12314-0.40499-0.30539zm-4.1437 0.74869h0.67663l0.28152-0.85705h1.3137l0.28152 0.85705h0.70626l-1.1903-3.4184h-0.81492zm1.1458-1.4235 0.47413-1.4481 0.46919 1.4481z" fill-opacity=".78039" style="font-feature-settings:normal;font-variant-caps:normal;font-variant-ligatures:normal;font-variant-numeric:normal"/>
</svg>
