<?xml version="1.0" encoding="UTF-8"?>
<svg width="24" height="24" version="1.1" viewBox="0 0 6.35 6.35" xmlns="http://www.w3.org/2000/svg">
 <path d="m1.3672 5.5562v-4.7625h1.6289q0.37252 0 0.68662 0.058435 0.32139 0.051131 0.55513 0.18991 0.24104 0.13878 0.37252 0.36522 0.13878 0.22644 0.13878 0.56975 0 0.1607-0.043826 0.32139t-0.12417 0.29948q-0.080349 0.13878-0.19721 0.24835-0.10957 0.10957-0.25565 0.1607v0.029218q0.18261 0.043827 0.33601 0.13878 0.1534 0.087653 0.27027 0.22644 0.11687 0.13878 0.18261 0.3287 0.065739 0.18261 0.065739 0.42365 0 0.36522-0.14608 0.62818-0.13878 0.26295-0.39444 0.43826-0.24835 0.168-0.58435 0.25565-0.33601 0.080349-0.72313 0.080349zm1.0737-2.8561h0.50401q0.39444 0 0.56975-0.1534 0.18261-0.1534 0.18261-0.40905 0-0.27757-0.18261-0.39444t-0.56244-0.11687h-0.51131zm0 2.0233h0.60626q0.88383 0 0.88383-0.64279 0-0.31408-0.21914-0.44557-0.21914-0.13878-0.6647-0.13878h-0.60626z" fill-opacity=".78039" stroke-opacity=".78039" stroke-width=".54782"/>
</svg>
