<?xml version="1.0" encoding="UTF-8"?>
<svg width="24" height="24" version="1.1" viewBox="0 0 6.35 6.35" xmlns="http://www.w3.org/2000/svg">
 <path d="m2.124 3.0221-0.16749 0.58257h1.2161l-0.16749-0.58257q-0.11651-0.37867-0.22575-0.77919-0.10195-0.40052-0.2039-0.79375h-0.029128q-0.10195 0.40052-0.2039 0.80103-0.10195 0.39323-0.21846 0.7719zm-1.5948 2.5342 1.5511-4.7625h0.99037l1.5511 4.7625h-0.88842l-0.37139-1.2889h-1.6021l-0.37139 1.2889z" fill-opacity=".78039" stroke-opacity=".78039" stroke-width=".54616"/>
 <path d="m4.101 3.175v-2.3812h0.75352q0.18389 0 0.33531 0.032768 0.15503 0.029128 0.2668 0.098307 0.11538 0.065538 0.17667 0.17841 0.064898 0.11287 0.064898 0.27671 0 0.17113-0.086528 0.31676-0.086528 0.14564-0.24156 0.20026v0.014565q0.19469 0.043691 0.32088 0.1857 0.12979 0.13836 0.12979 0.37867 0 0.17841-0.068503 0.30948t-0.19108 0.21845q-0.11897 0.087382-0.28482 0.13107-0.16585 0.04005-0.36054 0.04005zm0.41824-1.3981h0.29924q0.24878 0 0.35693-0.091024 0.11177-0.091024 0.11177-0.24394 0-0.17477-0.11538-0.24759-0.11538-0.072818-0.34612-0.072818h-0.30646zm0 1.0705h0.35332q0.25959 0 0.4002-0.094666 0.14061-0.098307 0.14061-0.29855 0-0.18932-0.13701-0.27307-0.13701-0.087383-0.40381-0.087383h-0.35332z" fill="#4271ae" stroke-opacity=".78039" stroke-width=".27173"/>
</svg>
