<?xml version="1.0" encoding="UTF-8"?>
<svg width="24" height="24" version="1.1" viewBox="0 0 6.35 6.35" xmlns="http://www.w3.org/2000/svg">
 <path d="m1.568 5.2917v-4.2333h1.4479q0.33113 0 0.61033 0.051942 0.28568 0.04545 0.49345 0.16881 0.21426 0.12336 0.33113 0.32464 0.12336 0.20128 0.12336 0.50644 0 0.14284-0.038957 0.28568-0.038956 0.14284-0.11037 0.2662-0.071421 0.12336-0.1753 0.22076-0.097396 0.097396-0.22724 0.14284v0.025972q0.16232 0.038957 0.29868 0.12336 0.13636 0.077914 0.24024 0.20128 0.10388 0.12336 0.16232 0.29218 0.058435 0.16232 0.058435 0.37658 0 0.32464-0.12985 0.55838-0.12336 0.23373-0.35061 0.38956-0.22076 0.14933-0.51942 0.22724-0.29868 0.071422-0.64278 0.071422zm0.9544-2.5388h0.44801q0.35061 0 0.50644-0.13636 0.16232-0.13636 0.16232-0.3636 0-0.24673-0.16232-0.35061-0.16232-0.10388-0.49995-0.10388h-0.4545zm0 1.7985h0.5389q0.78563 0 0.78563-0.57137 0-0.27918-0.19479-0.39606-0.19479-0.12336-0.59084-0.12336h-0.5389z" fill-opacity=".78039" stroke-opacity=".78039" stroke-width=".48695"/>
 <path d="m4.9555 5.5562v-0.43195h0.54619v-3.8986h-0.54619v-0.43195h1.1299v4.7624z" fill="#4271ae" stroke-width="1.1186"/>
 <path d="m0.26458 5.5562v-4.7624h1.1299v0.43195h-0.54083v3.8986h0.54083v0.43195z" fill="#4271ae" stroke-width="1.1186"/>
</svg>
