<?xml version="1.0" encoding="UTF-8"?>
<svg width="24" height="24" version="1.1" viewBox="0 0 6.35 6.35" xmlns="http://www.w3.org/2000/svg">
 <path d="m1.9519 3.0221-0.16749 0.58257h1.2161l-0.16749-0.58257q-0.11651-0.37867-0.22575-0.77919-0.10195-0.40052-0.2039-0.79375h-0.029128q-0.10195 0.40052-0.2039 0.80103-0.10195 0.39323-0.21846 0.7719zm-1.5948 2.5342 1.5511-4.7625h0.99037l1.5511 4.7625h-0.88842l-0.37139-1.2889h-1.6021l-0.37139 1.2889z" fill-opacity=".78039" stroke-opacity=".78039" stroke-width=".54616"/>
 <path d="m4.4491 5.5562v-2.1167h0.67643q0.16506 0 0.30099 0.029128 0.13917 0.025892 0.2395 0.087385 0.10357 0.058257 0.15859 0.15859 0.058257 0.10033 0.058257 0.24597 0 0.15212-0.077675 0.28157-0.077675 0.12946-0.21684 0.17801v0.012947q0.17477 0.038837 0.28805 0.16506 0.11651 0.12299 0.11651 0.3366 0 0.15859-0.061493 0.2751-0.061493 0.11651-0.17153 0.19419-0.10681 0.077675-0.25568 0.11651-0.14888 0.035601-0.32365 0.035601zm0.37543-1.2428h0.26863q0.22332 0 0.32041-0.080912 0.10033-0.080912 0.10033-0.21684 0-0.15535-0.10357-0.22008-0.10357-0.064729-0.3107-0.064729h-0.2751zm0 0.95153h0.31718q0.23303 0 0.35925-0.084149 0.12622-0.087385 0.12622-0.26539 0-0.1683-0.12299-0.24274-0.12299-0.077676-0.36249-0.077676h-0.31718z" fill-opacity=".78039" stroke-opacity=".78039" stroke-width=".24274"/>
</svg>
