<?xml version="1.0" encoding="UTF-8" standalone="no"?>
<svg
   xmlns:dc="http://purl.org/dc/elements/1.1/"
   xmlns:cc="http://creativecommons.org/ns#"
   xmlns:rdf="http://www.w3.org/1999/02/22-rdf-syntax-ns#"
   xmlns:svg="http://www.w3.org/2000/svg"
   xmlns="http://www.w3.org/2000/svg"
   xmlns:sodipodi="http://sodipodi.sourceforge.net/DTD/sodipodi-0.dtd"
   xmlns:inkscape="http://www.inkscape.org/namespaces/inkscape"
   version="1.2"
   width="24"
   height="24"
   viewBox="0 0 24 24"
   id="svg5291"
   sodipodi:docname="status_lines.svg"
   inkscape:version="1.0.1 (3bc2e813f5, 2020-09-07)">
  <sodipodi:namedview
     pagecolor="#ffffff"
     bordercolor="#666666"
     borderopacity="1"
     objecttolerance="10"
     gridtolerance="10"
     guidetolerance="10"
     inkscape:pageopacity="0"
     inkscape:pageshadow="2"
     inkscape:window-width="2560"
     inkscape:window-height="1344"
     id="namedview7270"
     showgrid="false"
     inkscape:zoom="38.125"
     inkscape:cx="12.065574"
     inkscape:cy="12"
     inkscape:window-x="2560"
     inkscape:window-y="27"
     inkscape:window-maximized="1"
     inkscape:current-layer="svg5291" />
  <metadata
     id="metadata5297">
    <rdf:RDF>
      <cc:Work
         rdf:about="">
        <dc:format>image/svg+xml</dc:format>
        <dc:type
           rdf:resource="http://purl.org/dc/dcmitype/StillImage" />
        <dc:title />
      </cc:Work>
    </rdf:RDF>
  </metadata>
  <defs
     id="defs5295" />
  <g
     id="g5303"
     transform="matrix(1.1578947,0,0,1.1578947,-1.6052627,-1.8947364)"
     style="fill:#000000;fill-opacity:0.72">
    <path
       d="m 19,17 h -7 c -1.103,0 -2,0.897 -2,2 0,1.103 0.897,2 2,2 h 7 c 1.103,0 2,-0.897 2,-2 0,-1.103 -0.897,-2 -2,-2 z m 0,-7 h -7 c -1.103,0 -2,0.897 -2,2 0,1.103 0.897,2 2,2 h 7 c 1.103,0 2,-0.897 2,-2 0,-1.103 -0.897,-2 -2,-2 z m 0,-7 h -7 c -1.103,0 -2,0.897 -2,2 0,1.103 0.897,2 2,2 h 7 C 20.103,7 21,6.103 21,5 21,3.897 20.103,3 19,3 Z"
       id="path5283"
       style="fill:#000000;fill-opacity:0.72" />
    <circle
       cx="5"
       cy="19"
       r="2.5"
       id="circle5285"
       style="fill:#000000;fill-opacity:0.72" />
    <circle
       cx="5"
       cy="12"
       r="2.5"
       id="circle5287"
       style="fill:#000000;fill-opacity:0.72" />
    <circle
       cx="5"
       cy="5"
       r="2.5"
       id="circle5289"
       style="fill:#000000;fill-opacity:0.72" />
  </g>
</svg>
