<?xml version="1.0" encoding="UTF-8"?>
<svg width="24" height="24" version="1.2" viewBox="0 0 24 24" xmlns="http://www.w3.org/2000/svg">
 <path transform="matrix(1.1579 0 0 1.1579 -1.6053 -1.8947)" d="m7.5 5a2.5 2.5 0 0 1-2.5 2.5 2.5 2.5 0 0 1-2.5-2.5 2.5 2.5 0 0 1 2.5-2.5 2.5 2.5 0 0 1 2.5 2.5zm0 7a2.5 2.5 0 0 1-2.5 2.5 2.5 2.5 0 0 1-2.5-2.5 2.5 2.5 0 0 1 2.5-2.5 2.5 2.5 0 0 1 2.5 2.5zm0 7a2.5 2.5 0 0 1-2.5 2.5 2.5 2.5 0 0 1-2.5-2.5 2.5 2.5 0 0 1 2.5-2.5 2.5 2.5 0 0 1 2.5 2.5zm11.5-2h-7c-1.103 0-2 0.897-2 2s0.897 2 2 2h7c1.103 0 2-0.897 2-2s-0.897-2-2-2zm0-7h-7c-1.103 0-2 0.897-2 2s0.897 2 2 2h7c1.103 0 2-0.897 2-2s-0.897-2-2-2zm0-7h-7c-1.103 0-2 0.897-2 2s0.897 2 2 2h7c1.103 0 2-0.897 2-2s-0.897-2-2-2z" fill-opacity=".78039"/>
</svg>
