<?xml version="1.0" encoding="UTF-8"?>
<svg width="24" height="24" version="1.2" viewBox="0 0 24 24" xmlns="http://www.w3.org/2000/svg">
 <path d="m20.121 3.8786c-1.17-1.1715-3.0721-1.1715-4.2421 0l-3.8791 3.8791-3.8791-3.8791c-1.17-1.1715-3.0721-1.1715-4.2421 0-1.1715 1.1715-1.1715 3.0706 0 4.2421l3.8776 3.8791-3.8776 3.8791c-1.1715 1.1715-1.1715 3.0706 0 4.2421 0.58501 0.58651 1.353 0.87902 2.121 0.87902s1.536-0.29251 2.121-0.87902l3.8791-3.8791 3.8791 3.8791c0.58501 0.58651 1.353 0.87902 2.121 0.87902 0.76802 0 1.536-0.29251 2.121-0.87902 1.1715-1.1715 1.1715-3.0706 0-4.2421l-3.8776-3.8791 3.8776-3.8791c1.1715-1.1715 1.1715-3.0706 0-4.2421z" fill-opacity=".78039" stroke-width="1.5"/>
</svg>
