<?xml version="1.0" encoding="UTF-8"?>
<svg width="24" height="24" version="1.2" viewBox="0 0 24 24" xmlns="http://www.w3.org/2000/svg">
 <g>
  <path d="m5.8898 3.4449c-0.67467 1e-7 -1.2225 0.5478-1.2225 1.2225v14.665c0 0.67466 0.5478 1.2225 1.2225 1.2225h12.22c0.67466 0 1.2225-0.5478 1.2225-1.2225v-11h-1.8326c-1.6854 0-3.0551-1.3696-3.0551-3.0551v-1.8326zm9.7775 0.50488v1.3277c0 1.0108 0.82184 1.8326 1.8326 1.8326h1.3277z" fill="#ededed" stroke-linecap="round" stroke-width=".55"/>
  <path d="m5.8898 1c-2.0216 0-3.6674 1.6458-3.6674 3.6674v14.665c0 2.0216 1.6458 3.6674 3.6674 3.6674h12.22c2.0216 0 3.6674-1.6458 3.6674-3.6674v-12.222c0-0.32511-0.12901-0.63512-0.35879-0.86367l-4.8877-4.8877c-0.22856-0.22978-0.53856-0.35879-0.86367-0.35879zm0 2.4449h8.5551v1.8326c0 1.6854 1.3696 3.0551 3.0551 3.0551h1.8326v11c0 0.67466-0.5478 1.2225-1.2225 1.2225h-12.22c-0.67467 0-1.2225-0.5478-1.2225-1.2225v-14.665c0-0.67467 0.5478-1.2225 1.2225-1.2225zm9.7775 0.50488 3.1604 3.1604h-1.3277c-1.0108 0-1.8326-0.82184-1.8326-1.8326z" fill="#333" stroke-width="1.2222"/>
  <path d="m12 6c-0.82934 0-1.5 0.67081-1.5 1.5003v3.0007h-3c-0.82934 0-1.5 0.67081-1.5 1.5003 0 0.82952 0.67066 1.5003 1.5 1.5003h3v3.0007c0 0.82952 0.67066 1.4977 1.5 1.4977 0.82934 0 1.5-0.66817 1.5-1.4977v-3.0007h3c0.82934 0 1.5-0.67081 1.5-1.5003 1e-6 -0.82952-0.67066-1.5003-1.5-1.5003h-3v-3.0007c0-0.82952-0.67066-1.5003-1.5-1.5003z" fill="#4271ae" stroke-width="1.4999"/>
 </g>
</svg>
