<?xml version="1.0" encoding="UTF-8"?>
<svg width="24" height="24" version="1.2" viewBox="0 0 24 24" xmlns="http://www.w3.org/2000/svg">
 <path d="m15.75 2c-0.69125 0-1.25 0.56-1.25 1.25s0.55875 1.25 1.25 1.25h1.9825l-4.1162 4.1162c-0.48875 0.48875-0.48875 1.2788 0 1.7675 0.24375 0.24375 0.56375 0.36625 0.88375 0.36625s0.64-0.1225 0.88375-0.36625l4.1162-4.1162v1.9825c0 0.69 0.55875 1.25 1.25 1.25s1.25-0.56 1.25-1.25v-6.25zm-7.1338 11.616-4.1162 4.1162v-1.9825c0-0.69-0.55875-1.25-1.25-1.25s-1.25 0.56-1.25 1.25v6.2488h1.245l5.005 0.00125c0.69 0 1.25-0.56 1.25-1.25s-0.55875-1.25-1.25-1.25h-1.9825l4.1162-4.115c0.48875-0.48875 0.48875-1.2788 0-1.7675s-1.2788-0.49-1.7675-0.0012zm-2.8662-1.6162c0.69 0 1.25-0.56 1.25-1.25v-3.75h3.75c0.69125 0 1.25-0.56 1.25-1.25s-0.55875-1.25-1.25-1.25h-6.2488l-0.00125 6.25c0 0.69 0.55875 1.25 1.25 1.25zm12.5 0c-0.69125 0-1.25 0.56-1.25 1.25v3.75h-3.75c-0.69125 0-1.25 0.56-1.25 1.25s0.55875 1.25 1.25 1.25h6.25v-6.25c0-0.69-0.55875-1.25-1.25-1.25z" fill="#4271ae" stroke-width="1.25"/>
</svg>
