<?xml version="1.0" encoding="UTF-8"?>
<svg width="24" height="24" version="1.2" viewBox="0 0 24 24" xmlns="http://www.w3.org/2000/svg">
 <path d="m17.954 4.4261c-3.2885-3.2348-8.6201-3.2348-11.909 0-3.2885 3.2358-3.2885 8.4812 0 11.716l5.9538 5.858 5.9548-5.858c3.2885-3.2348 3.2885-8.4801 0-11.716zm-5.9548 8.6264c-0.70317 0-1.3632-0.27369-1.8611-0.77054-1.0263-1.0263-1.0263-2.6958 0-3.7222 0.49685-0.49685 1.1579-0.77054 1.8611-0.77054s1.3642 0.27369 1.8611 0.77054c1.0263 1.0263 1.0263 2.6969 0 3.7222-0.49685 0.49685-1.1579 0.77054-1.8611 0.77054z" fill="#4271ae" stroke-width="1.0526"/>
</svg>
