<?xml version="1.0" encoding="UTF-8"?>
<svg width="24" height="24" version="1.2" viewBox="0 0 24 24" xmlns="http://www.w3.org/2000/svg">
 <path d="m13.163 12.256h6.8373v-6.8347c-0.010667-1.5131-0.89467-1.877-1.964-0.80652l-1.5387 1.5437c-1.3533-1.0598-3.0093-1.6397-4.7547-1.6397-2.0667 0-4.012 0.80518-5.472 2.2676-1.4653 1.4557-2.2707 3.4034-2.2707 5.4696 0 2.0703 0.80533 4.0153 2.268 5.475 1.4627 1.4624 3.4067 2.2689 5.4747 2.2689 2.0667 0 4.012-0.80652 5.4747-2.2702 0.39467-0.39593 0.744-0.82784 1.04-1.2864 0.46267-0.7212 0.25333-1.6797-0.46667-2.1396-0.71867-0.46125-1.6773-0.25195-2.1387 0.46658-0.17733 0.27595-0.38933 0.53323-0.624 0.77319-0.87867 0.87717-2.0453 1.3597-3.2853 1.3597s-2.4067-0.48124-3.2853-1.3597c-0.876-0.87717-1.36-2.0436-1.36-3.2861 0-1.2398 0.48267-2.4062 1.36-3.2807 0.87867-0.87717 2.0453-1.3611 3.2853-1.3611 0.91733 0 1.7947 0.26795 2.5453 0.76252l-1.9307 1.9343c-1.0707 1.0691-0.70667 1.9436 0.80533 1.9436z" fill="#718c00" stroke-width="1.3332"/>
</svg>
