<?xml version="1.0" encoding="UTF-8" standalone="no"?>
<svg
   xmlns:dc="http://purl.org/dc/elements/1.1/"
   xmlns:cc="http://creativecommons.org/ns#"
   xmlns:rdf="http://www.w3.org/1999/02/22-rdf-syntax-ns#"
   xmlns:svg="http://www.w3.org/2000/svg"
   xmlns="http://www.w3.org/2000/svg"
   version="1.2"
   width="24"
   height="24"
   viewBox="0 0 24 24"
   id="svg11920">
  <metadata
     id="metadata11926">
    <rdf:RDF>
      <cc:Work
         rdf:about="">
        <dc:format>image/svg+xml</dc:format>
        <dc:type
           rdf:resource="http://purl.org/dc/dcmitype/StillImage" />
        <dc:title></dc:title>
      </cc:Work>
    </rdf:RDF>
  </metadata>
  <defs
     id="defs11924" />
  <path
     d="M 22.461538,10.769231 V 8.615385 C 22.461538,6.24 20.52923,4.3076923 18.153846,4.3076923 H 17.219692 C 17.046153,1.8683077 14.816,0 12,0 9.1839995,0 6.9538461,1.8683077 6.7803077,4.3076923 H 5.8461538 C 3.4707692,4.3076923 1.5384615,6.24 1.5384615,8.615385 v 2.153846 c 0,1.245538 0.6326154,2.273231 1.5938462,2.764307 C 2.6916923,13.764923 2.3101538,14.110769 2.032,14.548923 1.7095384,15.058462 1.5384615,15.666462 1.5384615,16.307692 v 3.384616 C 1.5384615,22.067692 3.4707692,24 5.8461538,24 H 9.2307695 C 10.432,24 11.484308,23.388308 11.990154,22.401231 l 0.04431,0.08123 C 12.569847,23.432615 13.592616,24 14.76923,24 h 3.384616 c 2.375384,0 4.307692,-1.932308 4.307692,-4.307692 v -3.384616 c 0,-1.246769 -0.633845,-2.275692 -1.596308,-2.765538 0.955077,-0.505846 1.596308,-1.545846 1.596308,-2.772923 z m -2.461539,8.923077 c 0,1.015384 -0.830769,1.846154 -1.846153,1.846154 H 14.76923 c -0.438154,0 -0.891077,-0.265847 -0.481231,-0.94277 0.30277,-0.344615 0.481231,-0.761846 0.481231,-1.211077 0,-1.190153 -1.239384,-2.153846 -2.769231,-2.153846 -1.529846,0 -2.7692295,0.963693 -2.7692295,2.153846 0,0.369231 0.116923,0.708923 0.313846,1.012923 0.6239995,0.828308 0.167384,1.140924 -0.313846,1.140924 H 5.8461538 C 4.8307692,21.538462 4,20.707692 4,19.692308 v -3.384616 c 0,-0.317538 0.1390769,-0.64123 0.4726153,-0.64123 0.128,0 0.2818462,0.048 0.4701539,0.16 0.3446154,0.302769 0.7630769,0.48123 1.2110769,0.48123 1.1889231,0 2.1538462,-1.240615 2.1538462,-2.76923 0,-1.528616 -0.9649231,-2.769231 -2.1538462,-2.769231 -0.3692308,0 -0.7089231,0.116923 -1.0116923,0.313846 C 4.8504615,11.293538 4.6227692,11.382154 4.4504615,11.382154 4.1304615,11.382154 4,11.080615 4,10.769231 V 8.615385 C 4,7.6 4.8307692,6.7692308 5.8461538,6.7692308 h 3.3846157 c 0.48123,0 0.9378465,-0.3126154 0.299077,-1.1409231 -0.182154,-0.304 -0.299077,-0.6436923 -0.299077,-1.0129231 0,-1.1901538 1.2393835,-2.1538461 2.7692305,-2.1538461 1.529847,0 2.76923,0.9636923 2.76923,2.1538461 0,0.4492308 -0.17846,0.8664616 -0.48123,1.2110769 -0.409846,0.6769231 0.04308,0.9427693 0.48123,0.9427693 h 3.384616 C 19.16923,6.7692308 20,7.6 20,8.615385 v 2.153846 c 0,0.317538 -0.139076,0.641231 -0.472616,0.641231 -0.128,0 -0.281846,-0.048 -0.470154,-0.16 -0.344615,-0.30277 -0.763077,-0.481231 -1.211077,-0.481231 -1.188923,0 -2.153846,1.240615 -2.153846,2.769231 0,1.528615 0.964923,2.76923 2.153846,2.76923 0.369231,0 0.708923,-0.116923 1.011693,-0.313846 0.291693,-0.210461 0.519384,-0.300308 0.691692,-0.299077 0.318769,0 0.449232,0.301539 0.449232,0.612923 v 3.384616 z M 4,12.546462 c 0.1427692,0.03938 0.2904615,0.06646 0.4492307,0.06646 0.4209231,0 0.8406154,-0.146461 1.2775385,-0.448 l 0.084923,-0.05046 C 5.9310769,12.036923 6.0430769,12 6.1538461,12 c 0.4356923,0 0.9230769,0.658462 0.9230769,1.538462 0,0.88 -0.4873846,1.538461 -0.9230769,1.538461 -0.1329231,0 -0.2670769,-0.05908 -0.3987692,-0.174769 l -0.176,-0.128 C 5.2086153,14.548923 4.8356923,14.435692 4.4726153,14.435692 4.3076923,14.435692 4.1513846,14.464002 4,14.508312 Z M 19.550769,14.464 c -0.420922,0 -0.840616,0.146462 -1.277539,0.448 l -0.08492,0.05046 c -0.119384,0.07754 -0.231383,0.114461 -0.340923,0.114461 -0.435692,0 -0.923077,-0.658461 -0.923077,-1.538461 0,-0.88 0.487385,-1.538462 0.923077,-1.538462 0.132924,0 0.267077,0.05908 0.39877,0.174769 l 0.175999,0.128 c 0.371693,0.225231 0.743385,0.338462 1.106462,0.338462 0.167384,0 0.322461,-0.03077 0.472616,-0.07631 v 1.965539 c -0.144,-0.03938 -0.291693,-0.06646 -0.450462,-0.06646 z m -8.54523,7.074462 C 11.129847,21.112615 11.12,20.534154 10.630154,19.820308 l -0.05415,-0.09108 c -0.07631,-0.120616 -0.115692,-0.232616 -0.115692,-0.343385 0,-0.435692 0.657231,-0.923077 1.538462,-0.923077 0.88123,0 1.538461,0.487385 1.538461,0.923077 0,0.132923 -0.05908,0.267077 -0.176,0.4 l -0.128,0.174769 c -0.4,0.660923 -0.382769,1.204923 -0.270769,1.580308 h -1.956923 z"
     id="path11918"
     style="stroke-width:1.23077;fill:#000000;fill-opacity:0.72156864" />
</svg>
