<?xml version="1.0" encoding="UTF-8"?>
<svg width="24" height="24" version="1.2" viewBox="0 0 24 24" xmlns="http://www.w3.org/2000/svg">
 <path d="m10.594 21.6h-4.8c-0.6636 0-1.2 0.5364-1.2 1.2s0.5364 1.2 1.2 1.2h12c0.6636 0 1.2-0.5364 1.2-1.2s-0.5364-1.2-1.2-1.2h-4.8v-1.476c1.968-0.4452 3.7752-1.4256 5.2356-2.8872 2.04-2.04 3.1644-4.752 3.1644-7.6368 0-2.4804-0.8304-4.8348-2.3616-6.7428l0.81-0.8076c0.4692-0.4692 0.4692-1.2276 0.0012-1.698-0.4692-0.4692-1.2288-0.468-1.698-0.0012l-2.4624 2.4588 0.8496 0.8496c1.5864 1.5864 2.4612 3.6972 2.4612 5.9412s-0.8748 4.3524-2.4612 5.9388-3.6948 2.4612-5.9388 2.4612-4.3524-0.8748-5.9388-2.4612c-0.4692-0.4692-1.2276-0.4692-1.6968 0-0.4692 0.468-0.4692 1.2276 0 1.6968 2.0388 2.04 4.7508 3.1644 7.6356 3.1644zm0-19.2c1.9884 0 3.7884 0.8064 5.0916 2.1084 1.302 1.3032 2.1084 3.1032 2.1084 5.0916 0 1.9872-0.8064 3.7872-2.1084 5.0904-1.3032 1.3032-3.1032 2.1096-5.0916 2.1096-1.9896 0-3.7884-0.8064-5.0904-2.1084-1.302-1.3032-2.1072-3.1032-2.1072-5.0916s0.8052-3.7884 2.1072-5.0916c1.302-1.302 3.1008-2.1084 5.0904-2.1084z" fill-opacity=".78" stroke-width="1.2"/>
</svg>
