<?xml version="1.0" encoding="UTF-8"?>
<svg width="24" height="24" version="1.2" viewBox="0 0 24 24" xmlns="http://www.w3.org/2000/svg">
 <path d="m16.203 2h-8.4065c-1.738 0-3.1524 1.4144-3.1524 3.1524v14.711c0 0.54012 0.10928 0.99406 0.32365 1.3503 0.59265 0.9825 1.9072 1.0592 2.9559 0.0084l3.3332-3.3332c0.39405-0.393 1.0918-0.393 1.4858 0l3.3332 3.3332c0.51594 0.51595 1.0529 0.7776 1.5972 0.7776 0.83749 0 1.6823-0.66096 1.6823-2.1363v-14.711c0-1.738-1.4144-3.1524-3.1524-3.1524zm-8.4065 2.1016h8.4065c0.57899 0 1.0508 0.47181 1.0508 1.0508v10.408l-2.5755-2.3612c-1.4774-1.3545-3.8806-1.3534-5.3581 0l-2.5745 2.3612v-10.408c0-0.57899 0.47181-1.0508 1.0508-1.0508zm6.432 12.302c-0.59371-0.59371-1.385-0.92051-2.2288-0.92051-0.8438 0-1.6351 0.32785-2.2288 0.92051l-3.0253 3.0253v-2.4421l3.2848-3.0116c1.0855-0.99511 2.8519-0.99511 3.9374 0l3.2859 3.0116v2.4421z" fill="#4271ae" stroke-width="1.0508"/>
</svg>
