<?xml version="1.0" encoding="UTF-8"?>
<svg width="24" height="24" version="1.2" viewBox="0 0 24 24" xmlns="http://www.w3.org/2000/svg">
 <path d="m12 5.1429c-0.31543 0-0.57143 0.256-0.57143 0.57143s0.256 0.57143 0.57143 0.57143c1.2377 0 2.2446 1.0069 2.2446 2.2446 0 0.31543 0.256 0.57143 0.57143 0.57143s0.57143-0.256 0.57143-0.57143c0-1.8674-1.52-3.3874-3.3874-3.3874zm0-5.1429c-4.7269 0-8.5714 3.8446-8.5714 8.5714 0 1.6983 0.50286 3.3394 1.456 4.76l0.091429 0.15428c2.0857 2.9783 2.4526 3.92 2.4526 4.8v3.4286c0 0.63086 0.512 1.1429 1.1429 1.1429h2.2857c0 0.29714 0.12572 0.59429 0.33143 0.81143 0.21714 0.20572 0.51429 0.33143 0.81143 0.33143s0.59428-0.12571 0.81143-0.33143c0.20571-0.21714 0.33143-0.51428 0.33143-0.81143h2.2857c0.63086 0 1.1429-0.512 1.1429-1.1429v-3.4286c0-0.89371 0.36457-1.84 2.4366-4.7989 1.0229-1.4571 1.5634-3.1566 1.5634-4.9154 0-4.7269-3.8446-8.5714-8.5714-8.5714zm2.2857 20.571h-4.5714v-1.1429h4.5714zm2.8514-8.3966c-1.6754 2.392-2.4491 3.7589-2.7257 4.968h-1.2686v-2.2857c0-0.63086-0.512-1.1429-1.1429-1.1429-0.63086 0-1.1429 0.512-1.1429 1.1429v2.2857h-1.272c-0.27428-1.1771-1.0263-2.5143-2.6354-4.8229l-0.088-0.14743c-0.75086-1.0674-1.1474-2.3131-1.1474-3.6011 0-3.4663 2.8194-6.2857 6.2857-6.2857s6.2857 2.8194 6.2857 6.2857c0 1.2869-0.39657 2.5326-1.1486 3.6034z" fill="#4271ae" stroke-width="1.1429"/>
</svg>
