<?xml version="1.0" encoding="UTF-8"?>
<svg width="24" height="24" version="1.2" viewBox="0 0 24 24" xmlns="http://www.w3.org/2000/svg">
 <path d="m6.9043 4.2227-1.1113 1.1113h9.541c1.8378 0 3.332 1.4943 3.332 3.332v8.8887h0.55664c0.19556-1e-6 0.55469-0.42049 0.55469-1.1094v-11.111c0-0.61333-0.49911-1.1113-1.1113-1.1113h-11.762zm-1.582 3.332v10.912h1.123v-10.912h-1.123zm2.2324 0v10.912h8.8906v-9.8008c1e-6 -0.61333-0.4991-1.1113-1.1113-1.1113h-7.7793z" fill="#aeaeae" opacity=".95"/>
 <path d="m4.2227 7.5547v11.111c1e-7 0.61333 0.49911 1.1113 1.1113 1.1113h1.1113v-12.223h-2.2227zm3.332 0v12.223h7.7793c0.61222 0 1.1113-0.498 1.1113-1.1113v-10c1e-6 -0.61333-0.4991-1.1113-1.1113-1.1113h-7.7793z" fill="#c82829" opacity=".95"/>
 <path d="m18.667 2h-12.222c-0.29444 0-0.57778 0.11667-0.78556 0.32556l-3.3333 3.3333-0.063333 0.068889c-0.15444 0.18333-0.25 0.41444-0.26111 0.66667l-0.0011115 0.058889v12.213c0 1.8378 1.4956 3.3333 3.3333 3.3333h10c1.4489 0 2.6844-0.92889 3.1433-2.2222h0.74556c1.5578 0 2.7778-1.4633 2.7778-3.3333v-11.111c0-1.8378-1.4956-3.3333-3.3333-3.3333zm-13.333 17.778c-0.61222 0-1.1111-0.49778-1.1111-1.1111v-11.111h2.2222v12.222zm11.111-1.1111c0 0.61333-0.49889 1.1111-1.1111 1.1111h-7.7778v-12.222h7.7778c0.61222 0 1.1111 0.49778 1.1111 1.1111zm3.3333-2.2222c0 0.68889-0.36 1.1111-0.55556 1.1111h-0.55556v-8.8889c0-1.8378-1.4956-3.3333-3.3333-3.3333h-9.54l1.1111-1.1111h11.762c0.61222 0 1.1111 0.49778 1.1111 1.1111z" fill="#8d1919" stroke-width="1.1111"/>
</svg>
