<?xml version="1.0" encoding="UTF-8"?>
<svg width="24" height="24" version="1.2" viewBox="0 0 24 24" xmlns="http://www.w3.org/2000/svg">
 <path d="m4.9412 19.647c0 1.1765 2.6471 2.3529 7.0588 2.3529 4.1388 0 7.0588-1.1765 7.0588-2.3529 0-2.3529-2.7694-4.7059-7.0588-4.7059-4.4118 0-7.0588 2.3529-7.0588 4.7059z" fill="#718c00" stroke-width="1.1765"/>
 <path d="m17.882 7.8824c0-1.6247-0.65882-3.0953-1.7224-4.1588-1.0647-1.0647-2.5353-1.7235-4.16-1.7235-1.6247 0-3.0953 0.65882-4.16 1.7235-1.0635 1.0635-1.7224 2.5341-1.7224 4.1588 0 1.6247 0.65882 3.0953 1.7224 4.1588 1.0647 1.0647 2.5353 1.7235 4.16 1.7235 1.6247 0 3.0953-0.65882 4.16-1.7235 1.0635-1.0635 1.7224-2.5341 1.7224-4.1588z" fill="#a26941" stroke-width="1.1765"/>
</svg>
