<?xml version="1.0" encoding="UTF-8"?>
<svg width="24" height="24" version="1.2" viewBox="0 0 24 24" xmlns="http://www.w3.org/2000/svg">
 <path d="m4.6515 13.25c-0.69123 0-1.25 0.56001-1.25 1.25 0 0.69001 0.55873 1.25 1.25 1.25h1.8312l-4.1161 4.1163c-0.48873 0.48876-0.48873 1.2788 0 1.7675 0.24374 0.24375 0.56373 0.36626 0.88372 0.36626s0.63998-0.1225 0.88372-0.36626l4.2674-4.2676v2.1338c0 0.69001 0.55873 1.25 1.25 1.25 0.69123 0 1.0987-0.56001 1.0987-1.25v-6.2501zm1.0987-2.5c0.68998 0 1.25-0.56001 1.25-1.25v-2.5h2.4999c0.69123 0 1.25-0.56001 1.25-1.25s-0.55873-1.25-1.25-1.25h-4.9986l-0.00125 5.0001c0 0.69001 0.55873 1.25 1.25 1.25zm12.5 2.5c-0.69123 0-1.25 0.56001-1.25 1.25v2.5h-2.4999c-0.69123 0-1.25 0.56001-1.25 1.25s0.55873 1.25 1.25 1.25h4.9998v-5.0001c0-0.69001-0.55873-1.25-1.25-1.25zm1.6162-10.884-4.1161 4.1163v-1.9825c0-0.69001-0.55873-1.25-1.25-1.25-0.69123 0-1.25 0.56001-1.25 1.25v6.2501h6.2498c0.68998 0 1.25-0.56001 1.25-1.25 0-0.69001-0.55873-1.25-1.25-1.25h-1.9824l4.1161-4.1151c0.48874-0.48876 0.48874-1.2788 0-1.7675-0.48874-0.48876-1.2787-0.49001-1.7674-0.00125z" fill="#4271ae" stroke-width="1.25"/>
</svg>
