<?xml version="1.0" encoding="UTF-8"?>
<svg width="24" height="24" version="1.2" viewBox="0 0 24 24" xmlns="http://www.w3.org/2000/svg">
 <path d="m21.316 8.1937h-2.2836c-0.38061-1.1418-1.4273-1.903-2.6643-1.903h-5.7091c0-1.0466-0.85636-1.903-1.903-1.903h-3.9012c-1.6175 0-2.8545 1.237-2.8545 2.8545v9.5154c0 1.6175 1.237 2.8545 2.8545 2.8545h11.418c1.6175 0 3.2352-1.237 3.6157-2.8545l2.0934-7.6121c0.09515-0.57091-0.1903-0.95154-0.66605-0.95154zm-17.413 0.95154v-1.903c0-0.57091 0.38061-0.95154 0.95154-0.95154h3.8061c0 1.0466 0.85636 1.903 1.903 1.903h5.7091c0.57091 0 0.95154 0.38061 0.95154 0.95154h-10.562c-0.57091 0-1.0466 0.38061-1.237 0.95154l-1.5225 5.9945zm14.177 7.1363c-0.1903 0.76121-1.0466 1.4273-1.8079 1.4273h-11.418s-0.38061-0.1903-0.1903-0.76121l1.8079-6.6605c0-0.09515 0.1903-0.1903 0.28545-0.1903h13.035z" fill-opacity=".72157" stroke-width="1.0467"/>
</svg>
