<?xml version="1.0" encoding="UTF-8"?>
<svg width="24" height="24" version="1.2" viewBox="0 0 24 24" xmlns="http://www.w3.org/2000/svg">
 <path d="m19.041 4.9586c-1.0144-1.0157-2.6635-1.0157-3.678 0l-3.3632 3.3632-3.3632-3.3632c-1.0144-1.0157-2.6635-1.0157-3.678 0-1.0157 1.0157-1.0157 2.6622 0 3.678l3.3619 3.3632-3.3619 3.3632c-1.0157 1.0157-1.0157 2.6622 0 3.678 0.50722 0.50852 1.1731 0.76212 1.839 0.76212 0.66588 0 1.3318-0.25361 1.839-0.76212l3.3632-3.3632 3.3632 3.3632c0.50722 0.50852 1.1731 0.76212 1.839 0.76212 0.66588 0 1.3318-0.25361 1.839-0.76212 1.0157-1.0157 1.0157-2.6622 0-3.678l-3.3619-3.3632 3.3619-3.3632c1.0157-1.0157 1.0157-2.6622 0-3.678z" fill="#c82829" stroke-width="1.3006"/>
</svg>
