<?xml version="1.0" encoding="UTF-8"?>
<svg width="24" height="24" version="1.2" viewBox="0 0 24 24" xmlns="http://www.w3.org/2000/svg">
 <path d="m24 7.3333-3.6909-3.476c-0.76122-0.72133-1.9392-1.1907-2.998-1.1907h-3.9093v-0.66667c0-1.104-0.9006-2-2.0103-2-1.1097 0-2.0103 0.896-2.0103 2v0.66667h-4.6906c-2.5866 0-4.6906 2.0933-4.6906 4.6667 0 1.8613 1.1097 3.4613 2.7018 4.2093l-2.4713 2.4573 3.4322 3.4147c0.7639 0.76 1.9567 1.252 3.0395 1.252h2.9484l1.0721 5.3333h1.3402l1.0721-5.3333h3.6185c2.5879 0 4.6906-2.0933 4.6906-4.6667 0-1.2027-0.47308-2.2907-1.2263-3.1187l0.09649-0.07467zm-7.2477 8.6667h-10.051c-0.36855 0-0.88184-0.21067-1.1445-0.472l-1.5358-1.528 1.5358-1.528c0.26134-0.26 0.77329-0.472 1.1445-0.472h10.051c1.1097 0 2.0103 0.896 2.0103 2s-0.9006 2-2.0103 2zm1.7141-7.1253c-0.2667 0.25333-0.78535 0.45867-1.1552 0.45867h-12.621c-1.1097 0-2.0103-0.896-2.0103-2s0.9006-2 2.0103-2h12.621c0.36989 0 0.88854 0.20533 1.1552 0.45867l1.6364 1.5413z" fill="#4271ae" stroke-width="1.3368"/>
</svg>
