<?xml version="1.0" encoding="UTF-8"?>
<svg width="24" height="24" version="1.2" viewBox="0 0 24 24" xmlns="http://www.w3.org/2000/svg">
 <path d="m20.473 7.888c0.11886-0.054857 0.23543-0.12343 0.33486-0.22286l0.57143-0.57143c0.44686-0.44686 0.44686-1.1691 0-1.616-0.44686-0.44686-1.1691-0.44686-1.616 0l-0.57143 0.57143-0.13143 0.19771c-1.5851-1.4994-3.6434-2.5029-5.9303-2.7543l0.01257-0.064v-1.1429h1.1429c0.62857 0 1.1429-0.51429 1.1429-1.1429 3e-6 -0.62857-0.51428-1.1429-1.1429-1.1429h-4.5714c-0.62857 0-1.1429 0.51429-1.1429 1.1429 0 0.62857 0.51429 1.1429 1.1429 1.1429h1.1429v1.1429l0.01371 0.065143c-5.1497 0.56229-9.1566 4.9223-9.1566 10.221 0 5.6811 4.6046 10.286 10.286 10.286 5.6811 0 10.286-4.6046 10.286-10.286 0-2.1646-0.672-4.1691-1.8126-5.8263zm-8.4731 13.826c-4.4103 0-8-3.5886-8-8 0-4.4114 3.5897-8 8-8 4.4103 0 8 3.5886 8 8 0 4.4114-3.5897 8-8 8zm1.1429-9.1429v-2.2857c0-0.62857-0.51428-1.1429-1.1429-1.1429-0.62857 0-1.1429 0.51429-1.1429 1.1429v3.4286c0 0.62857 0.51429 1.1429 1.1429 1.1429h3.4286c0.62857 0 1.1429-0.51429 1.1429-1.1429 0-0.62857-0.51429-1.1429-1.1429-1.1429zm-1.1429-5.7143c-3.7851 0-6.8571 3.072-6.8571 6.8571s3.072 6.8571 6.8571 6.8571c3.7851 0 6.8571-3.072 6.8571-6.8571s-3.072-6.8571-6.8571-6.8571zm0 12.571c-3.1509 0-5.7143-2.5634-5.7143-5.7143s2.5634-5.7143 5.7143-5.7143c3.1509 0 5.7143 2.5634 5.7143 5.7143s-2.5634 5.7143-5.7143 5.7143z" fill-opacity=".78" stroke-width="1.1429"/>
</svg>
