<?xml version="1.0" encoding="UTF-8"?>
<svg width="24" height="24" version="1.2" viewBox="0 0 24 24" xmlns="http://www.w3.org/2000/svg">
 <path d="m7.3571 9.1429c0 1.0457 0.23714 2.0343 0.64143 2.93l-5.6414 5.6414v2.1429s1.28 2.1429 2.8571 2.1429h2.8571v-2.8571h2.8571v-2.8571h3.5714c3.9457 0 7.1429-3.1971 7.1429-7.1429 0-3.9457-3.1971-7.1429-7.1429-7.1429s-7.1429 3.1971-7.1429 7.1429zm7.1429 2.8571c-1.5771 0-2.8571-1.28-2.8571-2.8571 0-1.5786 1.28-2.86 2.8571-2.86 1.5786 0 2.8571 1.28 2.8571 2.86 0 1.5771-1.2786 2.8571-2.8571 2.8571z" fill="#a2694f" stroke-width="1.4286"/>
</svg>
