<?xml version="1.0" encoding="UTF-8"?>
<svg width="24" height="24" version="1.2" viewBox="0 0 24 24" xmlns="http://www.w3.org/2000/svg">
 <path d="m12 2c-5.5138 0-10 4.4862-10 10s4.4862 10 10 10 10-4.4862 10-10-4.4862-10-10-10zm-6.25 10c0-1.04 0.28-2.005 0.73-2.8688l8.3888 8.3888c-0.86375 0.45-1.8288 0.73-2.8688 0.73-3.4462 0-6.25-2.8038-6.25-6.25zm11.77 2.8688-8.3888-8.3888c0.86375-0.45 1.8288-0.73 2.8688-0.73 3.4462 0 6.25 2.8038 6.25 6.25 0 1.04-0.28 2.005-0.73 2.8688z" fill="#c82829" stroke-width="1.25"/>
</svg>
