<?xml version="1.0" encoding="UTF-8"?>
<svg width="24" height="24" version="1.2" viewBox="0 0 24 24" xmlns="http://www.w3.org/2000/svg">
 <path d="m19.778 5.5378v-0.20444c0-1.8411-1.4922-3.3333-3.3333-3.3333-1.8411 0-3.3333 1.4922-3.3333 3.3333h-2.2222c0-1.8411-1.4922-3.3333-3.3333-3.3333-1.8411 0-3.3333 1.4922-3.3333 3.3333v0.20444c-1.29 0.46111-2.2222 1.6822-2.2222 3.1289v10c0 1.8378 1.4956 3.3333 3.3333 3.3333h13.333c1.8378 0 3.3333-1.4956 3.3333-3.3333v-10c0-1.4467-0.93222-2.6678-2.2222-3.1289zm-4.4444-0.20444c0-0.61333 0.49667-1.1111 1.1111-1.1111 0.61444 0 1.1111 0.49778 1.1111 1.1111v2.2222c0 0.61333-0.49667 1.1111-1.1111 1.1111-0.61444 0-1.1111-0.49778-1.1111-1.1111zm-8.8889 0c0-0.61333 0.49667-1.1111 1.1111-1.1111 0.61444 0 1.1111 0.49778 1.1111 1.1111v2.2222c0 0.61333-0.49667 1.1111-1.1111 1.1111-0.61444 0-1.1111-0.49778-1.1111-1.1111zm13.333 13.333c0 0.61222-0.49778 1.1111-1.1111 1.1111h-13.333c-0.61333 0-1.1111-0.49889-1.1111-1.1111v-6.6667h15.556z" fill="#4271ae" stroke-width="1.1111"/>
</svg>
