<?xml version="1.0" encoding="UTF-8"?>
<svg width="24" height="24" version="1.2" viewBox="0 0 24 24" xmlns="http://www.w3.org/2000/svg">
 <path d="m17 6.4446h-2.3178l1.4367-1.4367c0.43444-0.43444 0.43444-1.1367 0-1.5711-0.43444-0.43444-1.1367-0.43444-1.5711 0l-4.1189 4.1189 4.1189 4.1189c0.21667 0.21667 0.50111 0.32556 0.78556 0.32556 0.28444 0 0.56889-0.10889 0.78556-0.32556 0.43444-0.43444 0.43444-1.1367 0-1.5711l-1.4367-1.4367h2.3178c1.5322 0 2.7778 1.4956 2.7778 3.3333s-1.4956 3.3333-3.3333 3.3333c-0.61444 0-1.1111 0.49778-1.1111 1.1111 0 0.61333 0.49667 1.1111 1.1111 1.1111 3.0633 0 5.5556-2.4922 5.5556-5.5556 0-3.0633-2.2433-5.5556-5-5.5556zm-9.1189 5.8811c-0.43444 0.43444-0.43444 1.1367 0 1.5711l1.4367 1.4367h-2.3178c-1.5322 0-2.7778-1.4956-2.7778-3.3333s1.4956-3.3333 3.3333-3.3333c0.61444 0 1.1111-0.49778 1.1111-1.1111 0-0.61333-0.49667-1.1111-1.1111-1.1111-3.0633 0-5.5556 2.4922-5.5556 5.5556 0 3.0633 2.2433 5.5556 5 5.5556h2.3178l-1.4367 1.4367c-0.43444 0.43444-0.43444 1.1367 0 1.5711 0.21667 0.21667 0.50111 0.32556 0.78556 0.32556 0.28444 0 0.56889-0.10889 0.78556-0.32556l4.1189-4.1189-4.1189-4.1189c-0.43444-0.43444-1.1367-0.43444-1.5711 0z" fill-opacity=".78039" stroke-width="1.1111"/>
</svg>
