<?xml version="1.0" encoding="UTF-8"?>
<svg width="24" height="24" version="1.2" viewBox="0 0 24 24" xmlns="http://www.w3.org/2000/svg">
 <path d="m20.547 14.707-0.7017-0.703-0.98054-0.98185c0.29717-0.90068 0.46343-1.859 0.46343-2.8578 0-5.0519-4.112-9.1639-9.1639-9.1639s-9.1639 4.112-9.1639 9.1639c0 5.0519 4.112 9.1639 9.1639 9.1639 0.99887 0 1.9585-0.16626 2.8591-0.46343l0.98185 0.98054 1.9794 1.9768 0.07986 0.07986 0.08378 0.072c0.78679 0.66242 1.7647 1.0264 2.7544 1.0264 2.2596 0 4.0976-1.838 4.0976-4.0989 0-1.0997-0.4294-2.1313-1.2096-2.9037zm-16.93-4.5427c0-3.6093 2.9364-6.5457 6.5457-6.5457s6.5457 2.9364 6.5457 6.5457-2.9364 6.5457-6.5457 6.5457-6.5457-2.9364-6.5457-6.5457z" fill-opacity=".78039" stroke-width="1.3091"/>
</svg>
