<?xml version="1.0" encoding="UTF-8"?>
<svg width="24" height="24" version="1.2" viewBox="0 0 24 24" xmlns="http://www.w3.org/2000/svg">
 <path d="m8.3269 20.077 0.64511 2.3712c0.23127 0.8528 1.2033 1.552 2.1596 1.552h1.7388c0.95636 0 1.9284-0.6992 2.1596-1.552l0.64511-2.3712c0.23126-0.8528 1.1737-1.3536 2.0918-1.1104l2.5509 0.672c0.91984 0.2416 2.0657-0.1824 2.5422-0.9456l0.86942-1.3872c0.47644-0.7632 0.30777-1.8864-0.3808-2.4992l-1.9092-1.6976c-0.68858-0.6128-0.68858-1.6128 0.0017-2.224l1.9058-1.6976c0.68862-0.6112 0.85902-1.7344 0.38258-2.4976l-0.8712-1.3872c-0.47818-0.7632-1.6223-1.1872-2.5404-0.9456l-2.5509 0.672c-0.91984 0.2416-1.8605-0.2576-2.0936-1.1104l-0.64337-2.368c-0.23126-0.8512-1.2033-1.5504-2.1596-1.5504h-1.7388c-0.95636 0-1.9284 0.6992-2.1596 1.552l-0.64337 2.368c-0.233 0.8528-1.1737 1.3536-2.0936 1.112l-2.5509-0.672c-0.91984-0.2432-2.0657 0.1824-2.5422 0.944l-0.86942 1.3872c-0.47644 0.7632-0.30777 1.8864 0.38254 2.4992l1.9058 1.6944c0.68684 0.6128 0.68684 1.6128 0 2.2256l-1.9092 1.6976c-0.68684 0.6128-0.85898 1.736-0.3808 2.4992l0.87115 1.3872c0.47644 0.7632 1.6223 1.1872 2.5422 0.9456l2.5509-0.672c0.9181-0.2448 1.8605 0.256 2.0918 1.1088zm3.6741-11.277c1.9197 0 3.4777 1.432 3.4777 3.2 0 1.7664-1.558 3.2-3.4777 3.2-1.9197 0-3.4777-1.4336-3.4777-3.2 0-1.768 1.558-3.2 3.4777-3.2z" fill-opacity=".72157" stroke-width="1.668"/>
</svg>
