<?xml version="1.0" encoding="UTF-8" standalone="no"?>
<svg
   xmlns:dc="http://purl.org/dc/elements/1.1/"
   xmlns:cc="http://creativecommons.org/ns#"
   xmlns:rdf="http://www.w3.org/1999/02/22-rdf-syntax-ns#"
   xmlns:svg="http://www.w3.org/2000/svg"
   xmlns="http://www.w3.org/2000/svg"
   id="svg2608"
   viewBox="0 0 24 24"
   height="24"
   width="24"
   version="1.2">
  <metadata
     id="metadata2614">
    <rdf:RDF>
      <cc:Work
         rdf:about="">
        <dc:format>image/svg+xml</dc:format>
        <dc:type
           rdf:resource="http://purl.org/dc/dcmitype/StillImage" />
        <dc:title></dc:title>
      </cc:Work>
    </rdf:RDF>
  </metadata>
  <defs
     id="defs2612" />
  <path
     style="stroke-width:1.05081;fill:#4271ae;fill-opacity:1"
     id="path2606"
     d="M 16.203226,2 H 7.796774 C 6.05874,2 4.6443545,3.4143855 4.6443545,5.1524195 V 19.86371 c 0,0.540115 0.1092839,0.994063 0.3236484,1.350287 0.5926549,0.982504 1.9072138,1.059213 2.9559187,0.0084 L 11.25708,17.889239 c 0.394052,-0.393002 1.091787,-0.393002 1.485841,0 l 3.333158,3.333158 C 16.592024,21.738349 17.128987,22 17.673304,22 c 0.837492,0 1.682342,-0.660957 1.682342,-2.13629 V 5.1524195 C 19.355646,3.4143855 17.941259,2 16.203226,2 Z M 7.796774,4.101613 h 8.406452 c 0.578994,0 1.050806,0.4718121 1.050806,1.0508065 V 15.560658 l -2.575527,-2.361162 c -1.477434,-1.35449 -3.880628,-1.353439 -5.3580615,0 l -2.574476,2.361162 V 5.1524195 c 0,-0.5789944 0.4718121,-1.0508065 1.0508065,-1.0508065 z m 6.431987,12.301792 C 13.635055,15.809699 12.843798,15.482898 12,15.482898 c -0.843797,0 -1.635054,0.327852 -2.2287605,0.920507 l -3.025272,3.025272 v -2.442075 l 3.2848215,-3.011611 c 1.085483,-0.995114 2.851889,-0.995114 3.937372,0 l 3.285871,3.011611 v 2.442075 z" />
</svg>
