<?xml version="1.0" encoding="UTF-8" standalone="no"?>
<svg
   version="1.2"
   width="24"
   height="24"
   viewBox="0 0 24 24"
   id="svg4455"
   xmlns="http://www.w3.org/2000/svg"
   xmlns:svg="http://www.w3.org/2000/svg">
  <defs
     id="defs4459" />
  <path
     d="M19 17h-14c-1.103 0-2 .897-2 2s.897 2 2 2h14c1.103 0 2-.897 2-2s-.897-2-2-2zM19 10h-14c-1.103 0-2 .897-2 2s.897 2 2 2h14c1.103 0 2-.897 2-2s-.897-2-2-2zM19 3h-14c-1.103 0-2 .897-2 2s.897 2 2 2h14c1.103 0 2-.897 2-2s-.897-2-2-2z"
     id="path4453"
     style="fill:#4271ae;fill-opacity:1" />
</svg>
