<?xml version="1.0" encoding="UTF-8"?>
<svg width="24" height="24" version="1.2" viewBox="0 0 24 24" xmlns="http://www.w3.org/2000/svg">
 <path d="m18.129 10.71c0.46968 0 0.90839 0.1871 1.2697 0.50452 0.70839 0.42839 0.98839-0.04387 0.98839-0.50452v-2.2581c0-1.0645-0.87097-1.9355-1.9355-1.9355h-3.5484c-0.45936 0-0.93419-0.27871-0.50452-0.98839 0.31742-0.36129 0.50452-0.79871 0.50452-1.2697 0-1.2477-1.2994-2.2581-2.9032-2.2581s-2.9032 1.0103-2.9032 2.2581c0 0.3871 0.12258 0.74323 0.32903 1.0619 0.65419 0.86839 0.17548 1.1961-0.32903 1.1961h-3.5484c-1.0645 0-1.9355 0.87097-1.9355 1.9355v2.2581c0 0.50452 0.32774 0.98323 1.1974 0.31484 0.31742-0.19226 0.67355-0.31484 1.0606-0.31484 1.2465 0 2.2581 1.3006 2.2581 2.9032 0 1.6026-1.0116 2.9032-2.2581 2.9032-0.46968 0-0.90839-0.1871-1.2697-0.50452-0.70839-0.42839-0.98839 0.043871-0.98839 0.50452v3.5484c0 1.0645 0.87097 1.9355 1.9355 1.9355h3.5484c0.50452 0 0.98323-0.32774 0.31355-1.1961-0.19097-0.31871-0.31355-0.67484-0.31355-1.0619 0-1.2477 1.2994-2.2581 2.9032-2.2581s2.9032 1.0103 2.9032 2.2581c0 0.47097-0.1871 0.90839-0.50452 1.2697-0.42968 0.70968 0.045162 0.98839 0.50452 0.98839h3.5484c1.0645 0 1.9355-0.87097 1.9355-1.9355v-3.5484c0-0.50452-0.32774-0.98323-1.1974-0.31484-0.31742 0.19226-0.67355 0.31484-1.0606 0.31484-1.2465 0-2.2581-1.3006-2.2581-2.9032 0-1.6026 1.0116-2.9032 2.2581-2.9032z" fill="#4271ae" stroke-width="1.2903"/>
</svg>
