<?xml version="1.0" encoding="UTF-8"?>
<svg width="24" height="24" version="1.2" viewBox="0 0 24 24" xmlns="http://www.w3.org/2000/svg">
 <path d="m12 2c-5.5138 0-10 4.4862-10 10s4.4862 10 10 10c2.02 0 3.965-0.59875 5.6238-1.73 0.57-0.39 0.7175-1.1675 0.32875-1.7375-0.38875-0.57125-1.165-0.715-1.7375-0.32875-1.2425 0.84875-2.7 1.2962-4.215 1.2962-4.1362 0-7.5-3.3638-7.5-7.5s3.3638-7.5 7.5-7.5 7.5 3.3638 7.5 7.5v0.625c0 0.69-0.56 1.25-1.25 1.25s-1.25-0.56-1.25-1.25v-3.75c0-0.69125-0.55875-1.25-1.25-1.25-0.55125 0-1.0062 0.3625-1.1725 0.86-0.725-0.53375-1.6112-0.86-2.5775-0.86-2.4125 0-4.375 1.9625-4.375 4.375s1.9625 4.375 4.375 4.375c1.3062 0 2.4688-0.5875 3.27-1.4988 0.685 0.90375 1.76 1.4988 2.98 1.4988 2.0675 0 3.75-1.6825 3.75-3.75v-0.625c0-5.5138-4.4862-10-10-10zm0 11.875c-1.0338 0-1.875-0.84125-1.875-1.875s0.84125-1.875 1.875-1.875 1.875 0.84125 1.875 1.875-0.84125 1.875-1.875 1.875z" fill="#4271ae" stroke-width="1.25"/>
</svg>
