<?xml version="1.0" encoding="UTF-8" standalone="no"?>
<svg
   xmlns:dc="http://purl.org/dc/elements/1.1/"
   xmlns:cc="http://creativecommons.org/ns#"
   xmlns:rdf="http://www.w3.org/1999/02/22-rdf-syntax-ns#"
   xmlns:svg="http://www.w3.org/2000/svg"
   xmlns="http://www.w3.org/2000/svg"
   id="svg10159"
   viewBox="0 0 24 24"
   height="24"
   width="24"
   version="1.2">
  <metadata
     id="metadata10165">
    <rdf:RDF>
      <cc:Work
         rdf:about="">
        <dc:format>image/svg+xml</dc:format>
        <dc:type
           rdf:resource="http://purl.org/dc/dcmitype/StillImage" />
        <dc:title></dc:title>
      </cc:Work>
    </rdf:RDF>
  </metadata>
  <defs
     id="defs10163" />
  <path
     id="rect18880"
     d="M 6.7050781 7.8828125 L 6.7050781 17.294922 C 6.7050781 18.593745 7.7597702 19.646484 9.0585938 19.646484 L 14.941406 19.646484 C 16.240229 19.646484 17.294922 18.593745 17.294922 17.294922 L 17.294922 7.8828125 L 6.7050781 7.8828125 z M 8.4707031 9.6464844 C 8.7942326 9.6464844 9.0585938 9.910846 9.0585938 10.234375 L 9.0585938 17.294922 C 9.0585938 17.618451 8.7942326 17.882812 8.4707031 17.882812 C 8.1471737 17.882813 7.8828125 17.618451 7.8828125 17.294922 L 7.8828125 10.234375 C 7.8828125 9.910846 8.1471737 9.6464844 8.4707031 9.6464844 z M 10.824219 9.6464844 C 11.147748 9.6464844 11.412109 9.910846 11.412109 10.234375 L 11.412109 17.294922 C 11.412109 17.618451 11.147748 17.882812 10.824219 17.882812 C 10.500689 17.882813 10.234375 17.618451 10.234375 17.294922 L 10.234375 10.234375 C 10.234375 9.910846 10.500689 9.6464844 10.824219 9.6464844 z M 13.175781 9.6464844 C 13.49931 9.6464844 13.765625 9.910846 13.765625 10.234375 L 13.765625 17.294922 C 13.765625 17.618451 13.49931 17.882812 13.175781 17.882812 C 12.852252 17.882813 12.587891 17.618451 12.587891 17.294922 L 12.587891 10.234375 C 12.587891 9.910846 12.852252 9.6464844 13.175781 9.6464844 z M 15.529297 9.6464844 C 15.852827 9.6464844 16.117188 9.910846 16.117188 10.234375 L 16.117188 17.294922 C 16.117187 17.618451 15.852827 17.882812 15.529297 17.882812 C 15.205768 17.882813 14.941406 17.618451 14.941406 17.294922 L 14.941406 10.234375 C 14.941406 9.910846 15.205768 9.6464844 15.529297 9.6464844 z "
     style="opacity:0.95;fill:#e5e5e5;fill-opacity:1;stroke:none;stroke-width:1.79999995;stroke-miterlimit:4;stroke-dasharray:none;stroke-opacity:1" />
  <path
     style="display:inline;fill:#333333;fill-opacity:1;stroke-width:1.17647004"
     id="path10157"
     d="M 19.647058,5.5294118 H 18.470589 V 4.3529412 C 18.470589,3.0541176 17.41647,2 16.117646,2 H 7.8823529 C 6.5835293,2 5.5294117,3.0541176 5.5294117,4.3529412 V 5.5294118 H 4.3529411 c -0.6494118,0 -1.1764706,0.5270588 -1.1764706,1.1764706 0,0.6494117 0.5270588,1.1764705 1.1764706,1.1764705 V 17.294118 C 4.3529411,19.889412 6.4635293,22 9.0588234,22 h 5.8823536 c 2.595293,0 4.705881,-2.110588 4.705881,-4.705882 V 7.8823529 c 0.649413,0 1.176471,-0.5270588 1.176471,-1.1764705 0,-0.6494118 -0.527059,-1.1764706 -1.176471,-1.1764706 z M 7.8823529,4.3529412 H 16.117646 V 5.5294118 H 7.8823529 Z M 17.294118,17.294118 c 0,1.298823 -1.054118,2.352941 -2.352941,2.352941 H 9.0588234 c -1.2988235,0 -2.3529411,-1.054118 -2.3529411,-2.352941 V 7.8823529 H 17.294118 Z M 8.4705881,9.647059 c -0.3235294,0 -0.5882352,0.264706 -0.5882352,0.588235 v 7.058824 c 0,0.323529 0.2647058,0.588235 0.5882352,0.588235 0.3235295,0 0.5882353,-0.264706 0.5882353,-0.588235 v -7.058824 c 0,-0.323529 -0.2647058,-0.588235 -0.5882353,-0.588235 z m 2.3529419,0 c -0.32353,0 -0.588235,0.264706 -0.588235,0.588235 v 7.058824 c 0,0.323529 0.264705,0.588235 0.588235,0.588235 0.323529,0 0.588235,-0.264706 0.588235,-0.588235 v -7.058824 c 0,-0.323529 -0.264706,-0.588235 -0.588235,-0.588235 z m 2.352941,0 c -0.323529,0 -0.588235,0.264706 -0.588235,0.588235 v 7.058824 c 0,0.323529 0.264706,0.588235 0.588235,0.588235 0.323529,0 0.588235,-0.264706 0.588235,-0.588235 v -7.058824 c 0,-0.323529 -0.264706,-0.588235 -0.588235,-0.588235 z m 2.352941,0 c -0.323529,0 -0.588235,0.264706 -0.588235,0.588235 v 7.058824 c 0,0.323529 0.264706,0.588235 0.588235,0.588235 0.32353,0 0.588235,-0.264706 0.588235,-0.588235 v -7.058824 c 0,-0.323529 -0.264705,-0.588235 -0.588235,-0.588235 z" />
</svg>
