<?xml version="1.0" encoding="UTF-8"?>
<svg width="24" height="24" version="1.2" viewBox="0 0 24 24" xmlns="http://www.w3.org/2000/svg">
 <path d="m19.77 14.461-0.63791-0.6391-0.8914-0.89259c0.27016-0.8188 0.4213-1.69 0.4213-2.598 0-4.5927-3.7382-8.3309-8.3309-8.3309-4.5927 0-8.3309 3.7382-8.3309 8.3309 0 4.5927 3.7382 8.3309 8.3309 8.3309 0.90806 0 1.7804-0.15115 2.5992-0.4213l0.89259 0.8914 1.7995 1.7971 0.07259 0.0726 0.07617 0.06545c0.71526 0.60221 1.6043 0.93306 2.504 0.93306 2.0542 0 3.7251-1.6709 3.7251-3.7263 0-0.9997-0.39036-1.9375-1.0997-2.6397zm-15.391-4.1297c0-3.2812 2.6694-5.9506 5.9506-5.9506 3.2812 0 5.9506 2.6694 5.9506 5.9506 0 3.2812-2.6694 5.9506-5.9506 5.9506-3.2812 0-5.9506-2.6694-5.9506-5.9506z" fill="#4271ae" stroke-width="1.1901"/>
</svg>
