<?xml version="1.0" encoding="UTF-8" standalone="no"?>
<svg
   xmlns:dc="http://purl.org/dc/elements/1.1/"
   xmlns:cc="http://creativecommons.org/ns#"
   xmlns:rdf="http://www.w3.org/1999/02/22-rdf-syntax-ns#"
   xmlns:svg="http://www.w3.org/2000/svg"
   xmlns="http://www.w3.org/2000/svg"
   version="1.2"
   width="24"
   height="24"
   viewBox="0 0 24 24"
   id="svg7536">
  <metadata
     id="metadata7542">
    <rdf:RDF>
      <cc:Work
         rdf:about="">
        <dc:format>image/svg+xml</dc:format>
        <dc:type
           rdf:resource="http://purl.org/dc/dcmitype/StillImage" />
        <dc:title></dc:title>
      </cc:Work>
    </rdf:RDF>
  </metadata>
  <defs
     id="defs7540" />
  <path
     d="M 23.445474,4.1911579 19.808842,0.5545263 C 19.438737,0.1844211 18.953684,0 18.468632,0 17.982316,0 17.498526,0.1844211 17.128421,0.5545263 L 12.631579,5.0526316 H 1.2631579 C 0.5658947,5.0526316 0,5.6172632 0,6.3157895 V 22.736842 C 0,23.435368 0.5658947,24 1.2631579,24 H 17.684211 c 0.697263,0 1.263157,-0.564632 1.263157,-1.263158 V 11.368421 L 23.445474,6.8703158 C 23.815579,6.5002105 24,6.0151579 24,5.5301053 24,5.0450526 23.815579,4.5612632 23.445474,4.1911579 Z M 10.736842,16.006737 7.993263,13.263158 15.942316,5.3141053 18.685895,8.057684 Z M 7.501895,14.315368 9.72,16.498105 7.578947,16.421053 Z m 8.919158,7.158316 H 2.5263158 V 7.5789474 H 10.105263 L 6.0884211,11.595789 C 5.7183158,11.965895 5.4846316,12.621474 5.2938947,13.224 5.0917895,13.855579 5.0526316,14.557895 5.0526316,15.080842 v 3.866526 H 8.919158 c 0.522947,0 1.399579,-0.126315 1.984421,-0.366315 0.586105,-0.24 1.131789,-0.438316 1.500632,-0.808421 l 4.016842,-3.877895 z m 3.157894,-14.3090524 -2.743579,-2.743579 1.633264,-1.6332631 2.742315,2.7435789 z"
     id="path7534"
     style="stroke-width:1.26316;fill:#000000;fill-opacity:0.72156864" />
</svg>
