<?xml version="1.0" encoding="UTF-8"?>
<svg width="24" height="24" version="1.2" viewBox="0 0 24 24" xmlns="http://www.w3.org/2000/svg">
 <path d="m5.8889 3.4444c-0.67344 0-1.2222 0.54878-1.2222 1.2222v14.667c0 0.67344 0.54878 1.2222 1.2222 1.2222h12.222c0.67345 0 1.2222-0.54878 1.2222-1.2222v-14.667c0-0.67344-0.54878-1.2222-1.2222-1.2222zm1.2222 2.4444h9.7778c0.33733 0 0.61111 0.27378 0.61111 0.61111s-0.27378 0.61111-0.61111 0.61111h-9.7778c-0.33733 0-0.61111-0.27378-0.61111-0.61111 0-0.33733 0.27378-0.61111 0.61111-0.61111zm0 3.6667h9.7778c0.33733 0 0.61111 0.27378 0.61111 0.61111 0 0.33733-0.27378 0.61111-0.61111 0.61111h-9.7778c-0.33733 0-0.61111-0.27378-0.61111-0.61111 0-0.33733 0.27378-0.61111 0.61111-0.61111zm0 3.6667h9.7778c0.33733 0 0.61111 0.27378 0.61111 0.61111 0 0.33733-0.27378 0.61111-0.61111 0.61111h-9.7778c-0.33733 0-0.61111-0.27378-0.61111-0.61111 0-0.33733 0.27378-0.61111 0.61111-0.61111zm0 3.6667h9.7778c0.33733 0 0.61111 0.27378 0.61111 0.61111s-0.27378 0.61111-0.61111 0.61111h-9.7778c-0.33733 0-0.61111-0.27378-0.61111-0.61111s0.27378-0.61111 0.61111-0.61111z" fill="#ededed" opacity=".95"/>
 <path d="m5.8887 1c-2.0216 0-3.666 1.6445-3.666 3.666v14.668c1e-7 2.0216 1.6445 3.666 3.666 3.666h12.223c2.0216 0 3.666-1.6445 3.666-3.666v-14.668c0-2.0216-1.6445-3.666-3.666-3.666zm0 2.4453h12.223c0.67345 0 1.2227 0.54726 1.2227 1.2207v14.668c0 0.67344-0.54921 1.2207-1.2227 1.2207h-12.223c-0.67344-1e-6 -1.2227-0.54726-1.2227-1.2207v-14.668c0-0.67344 0.54921-1.2207 1.2227-1.2207zm1.2227 2.4434c-0.33733 0-0.61133 0.27399-0.61133 0.61133s0.27399 0.61133 0.61133 0.61133h9.7773c0.33733 0 0.61133-0.27399 0.61133-0.61133s-0.27399-0.61133-0.61133-0.61133zm0 3.666c-0.33733 0-0.61133 0.274-0.61133 0.61133 0 0.33733 0.27399 0.61133 0.61133 0.61133h9.7773c0.33733 0 0.61133-0.27399 0.61133-0.61133 0-0.33733-0.27399-0.61133-0.61133-0.61133zm0 3.668c-0.33733 0-0.61133 0.27399-0.61133 0.61133 0 0.33733 0.27399 0.61133 0.61133 0.61133h9.7773c0.33733 1e-6 0.61133-0.274 0.61133-0.61133 0-0.33733-0.27399-0.61133-0.61133-0.61133zm0 3.666c-0.33733 0-0.61133 0.27399-0.61133 0.61133s0.27399 0.61133 0.61133 0.61133h9.7773c0.33733 0 0.61133-0.27399 0.61133-0.61133s-0.27399-0.61133-0.61133-0.61133z" fill="#333" stroke-width="1.2222"/>
</svg>
