<?xml version="1.0" encoding="UTF-8" standalone="no"?>
<svg
   xmlns:dc="http://purl.org/dc/elements/1.1/"
   xmlns:cc="http://creativecommons.org/ns#"
   xmlns:rdf="http://www.w3.org/1999/02/22-rdf-syntax-ns#"
   xmlns:svg="http://www.w3.org/2000/svg"
   xmlns="http://www.w3.org/2000/svg"
   version="1.2"
   width="24"
   height="24"
   viewBox="0 0 24 24"
   id="svg5619">
  <metadata
     id="metadata5625">
    <rdf:RDF>
      <cc:Work
         rdf:about="">
        <dc:format>image/svg+xml</dc:format>
        <dc:type
           rdf:resource="http://purl.org/dc/dcmitype/StillImage" />
        <dc:title></dc:title>
      </cc:Work>
    </rdf:RDF>
  </metadata>
  <defs
     id="defs5623" />
  <path
     d="M 21.321794,7.3993841 16.619582,2.6712968 C 15.735124,1.7821341 14.193203,1.772725 13.291103,2.6642399 13.060579,2.8947636 12.879453,3.1770375 12.799476,3.4040327 12.031456,5.0059369 11.206981,6.0091853 10.148454,6.6113695 L 9.8932312,6.7348644 c -1.138504,0.5704284 -2.687482,1.1514421 -5.5502098,1.1514421 -0.3128535,0 -0.6127695,0.061159 -0.9009241,0.1787735 -0.5692523,0.2375805 -1.033828,0.6998039 -1.2725846,1.2749371 -0.2340521,0.569252 -0.2340521,1.2243629 0,1.7936149 0.1223186,0.292859 0.2940352,0.553963 0.5116213,0.765668 L 6.4859506,15.704116 1.9907392,22 l 6.294707,-4.495212 3.7954078,3.795408 c 0.218762,0.222291 0.477513,0.398712 0.771548,0.518678 C 13.142909,21.940017 13.444001,22 13.753326,22 c 0.309325,0 0.610418,-0.06116 0.899748,-0.181126 0.585719,-0.241109 1.038533,-0.696275 1.270233,-1.26788 0.121142,-0.284626 0.182302,-0.596304 0.182302,-0.903276 0,-2.86508 0.581013,-4.412882 1.150266,-5.552563 0.583366,-1.166732 1.610137,-2.055894 3.239092,-2.839204 0.318734,-0.122319 0.599832,-0.301092 0.836237,-0.537497 0.907981,-0.9197419 0.903276,-2.4122651 -0.0094,-3.3190699 z m -6.172388,5.6466539 c -0.96326,1.932399 -1.397256,3.963595 -1.405489,6.591094 L 4.3430214,10.238589 c 2.5157659,0 4.4858018,-0.3940079 6.3464576,-1.2749372 L 10.965872,8.840157 c 1.645421,-0.8221227 2.902716,-2.2264352 3.984766,-4.5093251 l 4.615178,4.7645472 c -2.191151,1.0502949 -3.594287,2.3052369 -4.41641,3.9506589 z"
     id="path5617"
     style="stroke-width:1.17614;fill:#aeaeae;fill-opacity:1" />
</svg>
