<?xml version="1.0" encoding="UTF-8" standalone="no"?>
<svg
   xmlns:dc="http://purl.org/dc/elements/1.1/"
   xmlns:cc="http://creativecommons.org/ns#"
   xmlns:rdf="http://www.w3.org/1999/02/22-rdf-syntax-ns#"
   xmlns:svg="http://www.w3.org/2000/svg"
   xmlns="http://www.w3.org/2000/svg"
   xmlns:sodipodi="http://sodipodi.sourceforge.net/DTD/sodipodi-0.dtd"
   xmlns:inkscape="http://www.inkscape.org/namespaces/inkscape"
   version="1.1"
   id="Layer_1"
   x="0px"
   y="0px"
   width="280px"
   height="279.416px"
   viewBox="340 140 280 279.416"
   enable-background="new 340 140 280 279.416"
   xml:space="preserve"
   sodipodi:docname="gear.svg"
   inkscape:version="0.92.4 (5da689c313, 2019-01-14)"><metadata
   id="metadata9"><rdf:RDF><cc:Work
       rdf:about=""><dc:format>image/svg+xml</dc:format><dc:type
         rdf:resource="http://purl.org/dc/dcmitype/StillImage" /><dc:title></dc:title></cc:Work></rdf:RDF></metadata><defs
   id="defs7" /><sodipodi:namedview
   pagecolor="#ffffff"
   bordercolor="#666666"
   borderopacity="1"
   objecttolerance="10"
   gridtolerance="10"
   guidetolerance="10"
   inkscape:pageopacity="0"
   inkscape:pageshadow="2"
   inkscape:window-width="1920"
   inkscape:window-height="1013"
   id="namedview5"
   showgrid="false"
   inkscape:zoom="0.84461882"
   inkscape:cx="22.787362"
   inkscape:cy="139.70799"
   inkscape:window-x="1920"
   inkscape:window-y="27"
   inkscape:window-maximized="1"
   inkscape:current-layer="Layer_1" />
<path
   d="M620,305.666v-51.333l-31.5-5.25c-2.333-8.75-5.833-16.917-9.917-23.917L597.25,199.5l-36.167-36.75l-26.25,18.083  c-7.583-4.083-15.75-7.583-23.916-9.917L505.667,140h-51.334l-5.25,31.5c-8.75,2.333-16.333,5.833-23.916,9.916L399.5,163.333  L362.75,199.5l18.667,25.666c-4.083,7.584-7.583,15.75-9.917,24.5l-31.5,4.667v51.333l31.5,5.25  c2.333,8.75,5.833,16.334,9.917,23.917l-18.667,26.25l36.167,36.167l26.25-18.667c7.583,4.083,15.75,7.583,24.5,9.917l5.25,30.916  h51.333l5.25-31.5c8.167-2.333,16.333-5.833,23.917-9.916l26.25,18.666l36.166-36.166l-18.666-26.25  c4.083-7.584,7.583-15.167,9.916-23.917L620,305.666z M480,333.666c-29.75,0-53.667-23.916-53.667-53.666s24.5-53.667,53.667-53.667  S533.667,250.25,533.667,280S509.75,333.666,480,333.666z"
   id="path2"
   style="fill:#000000;fill-opacity:0.35408559" />
</svg>