<?xml version="1.0" encoding="UTF-8" standalone="no"?>
<svg
   xmlns:dc="http://purl.org/dc/elements/1.1/"
   xmlns:cc="http://creativecommons.org/ns#"
   xmlns:rdf="http://www.w3.org/1999/02/22-rdf-syntax-ns#"
   xmlns:svg="http://www.w3.org/2000/svg"
   xmlns="http://www.w3.org/2000/svg"
   id="svg873"
   viewBox="0 0 24 24"
   height="24"
   width="24"
   version="1.2">
  <metadata
     id="metadata879">
    <rdf:RDF>
      <cc:Work
         rdf:about="">
        <dc:format>image/svg+xml</dc:format>
        <dc:type
           rdf:resource="http://purl.org/dc/dcmitype/StillImage" />
        <dc:title></dc:title>
      </cc:Work>
    </rdf:RDF>
  </metadata>
  <defs
     id="defs877" />
  <path
     d="m 10.330622,1.9999997 c -4.5924663,0 -8.3306193,3.738153 -8.3306193,8.3306193 0,1.391929 0.3467825,2.702587 0.9532665,3.857242 0.084308,-0.108411 0.1590865,-0.228838 0.2534294,-0.323181 L 4.7482003,12.323178 C 4.5237338,11.697056 4.378519,11.032991 4.3785189,10.330619 c 0,-3.2810129 2.6710902,-5.949778 5.9521031,-5.949778 0.702303,0 1.36649,0.1429324 1.992559,0.3673563 L 14.141363,2.9300158 C 12.997884,2.3384803 11.704084,1.9999997 10.330622,1.9999997 Z m 5.635898,0.4766332 c -0.396657,0 -0.792437,0.1507259 -1.095095,0.4533829 L 3.57173,14.229712 c -0.3026571,0.302657 -0.5759103,0.751428 -0.7742385,1.227621 -0.1983282,0.47826 -0.3208556,0.99063 -0.3208556,1.418274 v 4.647756 h 4.6477558 c 0.427645,0 0.9376894,-0.122526 1.4159495,-0.320855 0.4782601,-0.198328 0.9272894,-0.471583 1.2299463,-0.774239 L 21.069984,9.1285734 c 0.302656,-0.302657 0.453382,-0.7017958 0.453382,-1.0974191 0,-0.3966562 -0.150726,-0.7924369 -0.453382,-1.0950939 L 17.063939,2.9300158 C 16.761281,2.6273588 16.362143,2.4766329 15.96652,2.4766329 Z m 0,2.2785396 3.275981,3.2759818 -1.334572,1.3368983 -3.275982,-3.2759819 z m 0,0.7300627 -0.60451,0.6045104 2.545919,2.5482442 0.460357,-0.4626829 C 18.332278,8.0413114 18.299136,7.9066594 18.256684,7.7754 Z M 13.901884,6.8221334 15.173682,8.0939305 6.6082326,16.661704 5.3364357,15.387582 Z m 2.004185,2.0041848 1.271796,1.2717968 -8.5654475,8.565448 -1.2741221,-1.271796 z m 0.353406,1.0834691 c 0.0083,0.1189097 0.01733,0.2373427 0.01861,0.3580557 l 0.169728,-0.169728 z m 2.059986,2.6993717 -5.710299,5.710299 c 0.105352,-0.03032 0.217183,-0.04484 0.320855,-0.07906 l 0.892816,0.89049 1.799581,1.797261 0.07208,0.07208 0.07672,0.06743 C 16.486443,21.66984 17.375591,22 18.275281,22 c 2.054056,0 3.724716,-1.671795 3.724716,-3.72704 0,-0.999657 -0.390465,-1.936781 -1.099745,-2.638921 l -1.129969,-1.174145 -0.639387,-0.639386 -0.890489,-0.892815 c 0.03403,-0.103138 0.04885,-0.213757 0.07906,-0.318531 z m -11.7600542,2.28784 -0.4929085,0.492908 0.5417343,0.541734 0.57196,-0.571959 C 6.960254,15.221393 6.7588057,15.062002 6.5594068,14.896999 Z m 2.7179722,1.285747 -1.209021,1.209021 0.5417345,0.541734 1.6577535,-1.655429 c -0.3372847,-0.0036 -0.668706,-0.03764 -0.990467,-0.09533 z m -4.5710293,0.06743 c 0.010333,-0.02065 3.0644031,3.034179 3.0644031,3.034179 C 7.43814,19.422771 7.2039295,19.456408 7.1243917,19.456408 H 5.5759147 L 4.5435968,18.424084 v -1.548477 c 0,-0.07953 0.033633,-0.315548 0.1627529,-0.625436 z"
     style="fill:#000000;fill-opacity:0.78;stroke-width:1.19007"
     id="path871" />
  <g
     style="display:none;opacity:1;stroke:none;stroke-opacity:1"
     id="g1022" />
</svg>
