<?xml version="1.0" encoding="UTF-8" standalone="no"?>
<svg
   xmlns:dc="http://purl.org/dc/elements/1.1/"
   xmlns:cc="http://creativecommons.org/ns#"
   xmlns:rdf="http://www.w3.org/1999/02/22-rdf-syntax-ns#"
   xmlns:svg="http://www.w3.org/2000/svg"
   xmlns="http://www.w3.org/2000/svg"
   version="1.2"
   width="24"
   height="24"
   viewBox="0 0 24 24"
   id="svg7030">
  <metadata
     id="metadata7036">
    <rdf:RDF>
      <cc:Work
         rdf:about="">
        <dc:format>image/svg+xml</dc:format>
        <dc:type
           rdf:resource="http://purl.org/dc/dcmitype/StillImage" />
        <dc:title></dc:title>
      </cc:Work>
    </rdf:RDF>
  </metadata>
  <defs
     id="defs7034" />
  <g
     id="g7028"
     transform="matrix(1.1428571,0,0,1.1428571,-1.7142852,-2.2857137)"
     style="fill:#000000;fill-opacity:0.77999997">
    <path
       d="M 19.414,8.902 C 19.518,8.854 19.62,8.794 19.707,8.707 l 0.5,-0.5 c 0.391,-0.391 0.391,-1.023 0,-1.414 -0.391,-0.391 -1.023,-0.391 -1.414,0 l -0.5,0.5 -0.115,0.173 C 16.791,6.154 14.99,5.276 12.989,5.056 L 13,5 V 4 h 1 C 14.55,4 15,3.55 15,3 15,2.45 14.55,2 14,2 H 10 C 9.45,2 9,2.45 9,3 9,3.55 9.45,4 10,4 h 1 v 1 l 0.012,0.057 C 6.506,5.549 3,9.364 3,14 c 0,4.971 4.029,9 9,9 4.971,0 9,-4.029 9,-9 0,-1.894 -0.588,-3.648 -1.586,-5.098 z M 12,21 C 8.141,21 5,17.86 5,14 5,10.14 8.141,7 12,7 c 3.859,0 7,3.14 7,7 0,3.86 -3.141,7 -7,7 z m 1,-8 v -2 c 0,-0.55 -0.45,-1 -1,-1 -0.55,0 -1,0.45 -1,1 v 3 c 0,0.55 0.45,1 1,1 h 3 c 0.55,0 1,-0.45 1,-1 0,-0.55 -0.45,-1 -1,-1 z M 12,8 c -3.312,0 -6,2.688 -6,6 0,3.312 2.688,6 6,6 3.312,0 6,-2.688 6,-6 0,-3.312 -2.688,-6 -6,-6 z m 0,11 C 9.243,19 7,16.757 7,14 7,11.243 9.243,9 12,9 c 2.757,0 5,2.243 5,5 0,2.757 -2.243,5 -5,5 z"
       id="path7026"
       style="fill:#000000;fill-opacity:0.77999997" />
  </g>
</svg>
