<?xml version="1.0" encoding="UTF-8" standalone="no"?>
<svg
   xmlns:dc="http://purl.org/dc/elements/1.1/"
   xmlns:cc="http://creativecommons.org/ns#"
   xmlns:rdf="http://www.w3.org/1999/02/22-rdf-syntax-ns#"
   xmlns:svg="http://www.w3.org/2000/svg"
   xmlns="http://www.w3.org/2000/svg"
   version="1.2"
   width="24"
   height="24"
   viewBox="0 0 24 24"
   id="svg4924">
  <metadata
     id="metadata4930">
    <rdf:RDF>
      <cc:Work
         rdf:about="">
        <dc:format>image/svg+xml</dc:format>
        <dc:type
           rdf:resource="http://purl.org/dc/dcmitype/StillImage" />
        <dc:title></dc:title>
      </cc:Work>
    </rdf:RDF>
  </metadata>
  <defs
     id="defs4928" />
  <path
     d="M 16.641616,2.36759 C 16.156078,1.879557 15.367237,1.8770607 14.876708,2.3626 14.7469,2.4924093 14.657031,2.6459337 14.595871,2.8056991 13.557396,4.9725159 12.414076,6.1944709 10.971195,6.915911 9.3523243,7.7147375 7.4938043,8.270172 4.4982051,8.270172 c -0.1622616,0 -0.3245233,0.0312 -0.4767996,0.09486 -0.3058008,0.127313 -0.547945,0.370705 -0.675258,0.675258 -0.1260648,0.304552 -0.1260648,0.649046 0,0.953599 0.063657,0.153524 0.1547727,0.292071 0.2708521,0.406902 L 7.6648033,14.448593 2.0018723,22 l 7.551407,-5.662931 4.0465547,4.046555 c 0.114831,0.117328 0.253378,0.207196 0.406902,0.270852 0.152277,0.06366 0.314538,0.09736 0.4768,0.09736 0.162261,0 0.324524,-0.0337 0.476799,-0.09736 0.305801,-0.127313 0.549193,-0.36821 0.675259,-0.675259 0.06366,-0.151027 0.09611,-0.314537 0.09611,-0.475551 0,-2.995598 0.554186,-4.854118 1.351763,-6.448027 0.720193,-1.44288 1.942148,-2.586201 4.110213,-3.624676 0.161013,-0.06115 0.31329,-0.151028 0.441851,-0.280836 0.485536,-0.49053 0.48304,-1.2793713 -0.005,-1.7649081 z"
     id="path4922"
     style="stroke-width:1.24817;fill:#000000;fill-opacity:0.78039217" />
</svg>
