<?xml version="1.0" encoding="UTF-8"?>
<svg width="460" height="60" version="1.1" viewBox="0 0 121.71 15.875" xmlns="http://www.w3.org/2000/svg">
 <path d="m50.202 0v1.7585h0.67954c0.31249 0 0.53129 0.070663 0.65629 0.21136 0.14062 0.12506 0.21084 0.33602 0.21084 0.63304v10.294c0 0.31265-0.07022 0.53937-0.21084 0.68006-0.125 0.14069-0.3438 0.21084-0.65629 0.21084h-0.67954v1.7353h5.6012v-1.7353h-0.67954c-0.29687 0-0.51567-0.07015-0.65629-0.21084-0.14062-0.14069-0.21084-0.35927-0.21084-0.65629v-12.921zm36.093 0.32815v2.1575h2.6484v-2.1575zm-29.179 0.023771v1.7353h0.49248c0.45312 0 0.77317 0.070146 0.96066 0.21084 0.1875 0.12506 0.3203 0.37516 0.39842 0.75034l2.8122 12.475h2.0624l2.6954-8.6289 2.742 8.6289h2.0392l2.789-12.475c0.07812-0.37518 0.21093-0.62528 0.39843-0.75034 0.1875-0.14069 0.50807-0.21084 0.96118-0.21084h0.51573v-1.7353h-3.5863l-2.3203 10.88-2.5544-8.324h-1.9689l-2.5311 8.324-2.2965-10.88zm38.109 0.58601-2.4846 0.79737v2.5327h-1.8278v1.6883h1.8278v6.1433c0 1.235 0.3282 2.1734 0.98444 2.8143 0.65624 0.64094 1.6327 0.96118 2.9295 0.96118 0.82811 0 1.5471-0.11743 2.1565-0.35192 0.60936-0.23449 1.1716-0.57049 1.6872-1.0082v-1.7818h-2.1327v1.0082c-0.35937 0.29702-0.88296 0.44545-1.5704 0.44545-0.53124 0-0.92966-0.14843-1.1953-0.44545-0.24999-0.29702-0.37465-0.78959-0.37465-1.4774v-6.3076h3.3745v-1.6883h-3.3745zm-87.678 2.9781c-0.96873 0-1.7971 0.15605-2.4846 0.46871-0.67186 0.29702-1.2733 0.78197-1.8045 1.4542l-0.14056-1.571h-2.9998v1.7585h0.49196c0.31249 0 0.53129 0.070146 0.65629 0.21084 0.125 0.12506 0.18759 0.34415 0.18759 0.65681v6.0265c0 0.31265-0.070218 0.53885-0.21084 0.67955-0.125 0.12506-0.3438 0.18758-0.65629 0.18758h-0.58601v1.7353h5.3671v-1.7353h-0.60927c-0.29687 0-0.50804-0.06252-0.63304-0.18758-0.10937-0.14069-0.16381-0.36689-0.16381-0.67955v-4.7372c0-0.8129 0.25747-1.4458 0.77308-1.8991s1.172-0.68006 1.9689-0.68006c0.73436 0 1.2656 0.17995 1.5937 0.5395 0.32812 0.34392 0.49248 0.90664 0.49248 1.6883v7.691h4.0308v-1.7353h-0.65629c-0.31249 0-0.53892-0.06252-0.67954-0.18758-0.125-0.14069-0.18758-0.36689-0.18758-0.67955v-5.1123c0-2.595-1.2497-3.8923-3.7496-3.8923zm12.351 0c-1.9218 0-3.3669 0.53171-4.3357 1.5947-0.9531 1.0474-1.4299 2.5164-1.4299 4.408 0 1.8759 0.48441 3.3379 1.4531 4.3853s2.4062 1.571 4.3124 1.571c1.9062 0 3.3437-0.52357 4.3124-1.571 0.96873-1.0474 1.4531-2.5093 1.4531-4.3853 0-1.8916-0.48441-3.3606-1.4531-4.408-0.9531-1.063-2.3906-1.5947-4.3124-1.5947zm23.39 0c-1.8281 0-3.2421 0.51595-4.2421 1.5477-0.98435 1.0161-1.4769 2.5401-1.4769 4.5723 0 1.9072 0.53123 3.361 1.5937 4.3615 1.0781 0.98486 2.5079 1.4774 4.2891 1.4774 1.0312 0 1.9217-0.11743 2.6717-0.35192 0.76561-0.21886 1.477-0.56248 2.1332-1.0315v-1.6418h-2.1797v0.84439c-0.32812 0.20322-0.6955 0.35165-1.1017 0.44545-0.40624 0.07816-0.90643 0.11731-1.5002 0.11731-1.0468 0-1.8824-0.29686-2.5073-0.8909-0.60936-0.60967-0.91416-1.5481-0.91416-2.8143h8.6015v-1.0785c0-1.704-0.45338-3.0561-1.3596-4.0566-0.90623-1.0005-2.2419-1.5007-4.0075-1.5007zm63.772 0c-1.8281 0-3.2422 0.51595-4.2421 1.5477-0.98436 1.0161-1.4764 2.5401-1.4764 4.5723 0 1.9072 0.53122 3.361 1.5937 4.3615 1.0781 0.98486 2.5074 1.4774 4.2886 1.4774 1.0312 0 1.9222-0.11743 2.6722-0.35192 0.7656-0.21886 1.4764-0.56248 2.1327-1.0315v-1.6418h-2.1797v0.84439c-0.32811 0.20322-0.6955 0.35165-1.1017 0.44545-0.40624 0.07816-0.90591 0.11731-1.4996 0.11731-1.0468 0-1.8829-0.29686-2.5079-0.8909-0.60936-0.60967-0.91415-1.5481-0.91415-2.8143h8.6015v-1.0785c0-1.704-0.45338-3.0561-1.3596-4.0566-0.90623-1.0005-2.2419-1.5007-4.0075-1.5007zm-81.607 0.35192v1.618h0.49196c0.39062 0 0.65623 0.046764 0.79685 0.14056 0.15625 0.078163 0.27328 0.24235 0.3514 0.49248l3.2344 9.0041h2.5781l3.2112-9.0041c0.09375-0.25012 0.21078-0.41431 0.3514-0.49248 0.15625-0.093796 0.42186-0.14056 0.79685-0.14056h0.51573v-1.618h-3.2582l-2.9058 8.7933-2.9063-8.7933zm50.694 0v1.7348h0.49196c0.29687 0 0.50804 0.070663 0.63304 0.21136 0.125 0.14069 0.18758 0.35927 0.18758 0.65629v6.0503c0 0.31265-0.07022 0.53885-0.21084 0.67955-0.125 0.12506-0.3438 0.18758-0.65629 0.18758h-0.58601v1.7353h5.3671v-1.7353h-0.58601c-0.29687 0-0.50804-0.06252-0.63304-0.18758-0.125-0.14069-0.18707-0.36689-0.18707-0.67955v-4.4788c0-0.82853 0.18725-1.4385 0.56224-1.8293 0.37499-0.40645 1.008-0.60978 1.8986-0.60978h1.3121v-1.7348h-1.078c-0.67186 0-1.2575 0.093528-1.7575 0.28112-0.48436 0.18759-0.88278 0.52359-1.1953 1.0082l-0.32815-1.2893zm8.6718 0v1.7585h0.67954c0.31249 0 0.53129 0.070146 0.65629 0.21084 0.14062 0.12506 0.21084 0.33602 0.21084 0.63304v6.0265c0 0.31265-0.07022 0.53937-0.21084 0.68006-0.125 0.14069-0.3438 0.21084-0.65629 0.21084h-0.67954v1.7353h5.6012v-1.7353h-0.67954c-0.29687 0-0.51567-0.07015-0.65629-0.21084-0.14062-0.14069-0.21084-0.35927-0.21084-0.65629v-8.6527zm29.296 0v1.7348h0.49247c0.29687 0 0.50753 0.070663 0.63252 0.21136 0.125 0.14069 0.18759 0.35927 0.18759 0.65629v6.0503c0 0.31265-0.0702 0.53885-0.21085 0.67955-0.12499 0.12506-0.34379 0.18758-0.65629 0.18758h-0.58601v1.7353h5.3671v-1.7353h-0.58601c-0.29686 0-0.50751-0.06252-0.63251-0.18758-0.125-0.14069-0.18758-0.36689-0.18758-0.67955v-4.4788c0-0.82853 0.18725-1.4385 0.56223-1.8293 0.37499-0.40645 1.008-0.60978 1.8986-0.60978h1.3126v-1.7348h-1.078c-0.67185 0-1.258 0.093528-1.758 0.28112-0.48436 0.18759-0.88278 0.52359-1.1953 1.0082l-0.32814-1.2893zm-70.85 1.3364c1.9843 0 2.9766 1.1412 2.9766 3.4236h-6.1872c0-1.063 0.27324-1.8992 0.8201-2.5089s1.3437-0.91467 2.3906-0.91467zm63.772 0c1.9843 0 2.9766 1.1412 2.9766 3.4236h-6.1877c0-1.063 0.27375-1.8992 0.82062-2.5089 0.54686-0.60967 1.3437-0.91467 2.3906-0.91467zm-87.139 0.07028c1.125 0 1.961 0.35176 2.5079 1.0552 0.54686 0.68784 0.8201 1.7507 0.8201 3.189 0 1.4226-0.27324 2.4779-0.8201 3.1657-0.54686 0.68784-1.3829 1.032-2.5079 1.032-1.125 0-1.961-0.34414-2.5079-1.032-0.53124-0.68784-0.79685-1.7431-0.79685-3.1657 0-1.4382 0.26561-2.5011 0.79685-3.189 0.54686-0.70347 1.3829-1.0552 2.5079-1.0552z" fill="#fafafa" stroke-linecap="round" stroke-width=".21978"/>
</svg>
