<?xml version="1.0" encoding="UTF-8"?>
<svg width="1024" height="1024" version="1.1" viewBox="0 0 270.93 270.93" xmlns="http://www.w3.org/2000/svg" xmlns:cc="http://creativecommons.org/ns#" xmlns:dc="http://purl.org/dc/elements/1.1/" xmlns:rdf="http://www.w3.org/1999/02/22-rdf-syntax-ns#">
 <defs>
  <filter id="filter1444" x="-.018715" y="-.021626" width="1.0465" height="1.0538" color-interpolation-filters="sRGB">
   <feFlood flood-color="rgb(0,0,0)" flood-opacity=".49804" result="flood"/>
   <feComposite in="flood" in2="SourceGraphic" operator="in" result="composite1"/>
   <feGaussianBlur in="composite1" result="blur" stdDeviation="3"/>
   <feOffset dx="6" dy="6" result="offset"/>
   <feComposite in="SourceGraphic" in2="offset" result="composite2"/>
  </filter>
  <filter id="filter1456" x="-.034758" y="-.067525" width="1.0866" height="1.168" color-interpolation-filters="sRGB">
   <feFlood flood-color="rgb(0,0,0)" flood-opacity=".49804" result="flood"/>
   <feComposite in="flood" in2="SourceGraphic" operator="in" result="composite1"/>
   <feGaussianBlur in="composite1" result="blur" stdDeviation="3"/>
   <feOffset dx="6" dy="6" result="offset"/>
   <feComposite in="SourceGraphic" in2="offset" result="composite2"/>
  </filter>
 </defs>
 <metadata>
  <rdf:RDF>
   <cc:Work rdf:about="">
    <dc:format>image/svg+xml</dc:format>
    <dc:type rdf:resource="http://purl.org/dc/dcmitype/StillImage"/>
   </cc:Work>
  </rdf:RDF>
 </metadata>
 <g>
  <g stroke-linejoin="round">
   <rect x="5.8208" y="5.8208" width="259.29" height="259.29" rx="21.167" ry="21.167" fill="url(#radialGradient1474)" stroke="#517995" stroke-width="2.6458"/>
   <path transform="scale(.26458)" d="m312 200c-44.32 0-80 35.68-80 80v200a280 280 0 0 0 0 2e-3 280 280 0 0 0 0 0.0195v199.98c0 44.32 35.68 80 80 80s80-35.68 80-80v-200a120 120 0 0 1 120-120 120 120 0 0 1 120 120v282.84h160v-282.84a280 280 0 0 0-280-280 280 280 0 0 0-0.81055 0 280 280 0 0 0-133.46 34.297c-14.424-20.753-38.428-34.299-65.725-34.299zm231.46 563.23c-0.62174 0.0972-1.2172 0.22317-1.7793 0.37696 0.5621-0.15379 1.1576-0.27973 1.7793-0.37696zm-1.7793 0.37696c-0.5621 0.15378-1.0907 0.33534-1.5801 0.53906 0.48937-0.20372 1.018-0.38528 1.5801-0.53906zm338.86-0.37696c0.62174 0.0972 1.2172 0.22317 1.7793 0.37696-0.5621-0.15379-1.1576-0.27973-1.7793-0.37696zm1.7793 0.37696c0.5621 0.15378 1.0907 0.33534 1.5801 0.53906-0.48938-0.20372-1.018-0.38528-1.5801-0.53906z" fill="#a11212" filter="url(#filter1444)" stroke="#7e1b1b" stroke-width="10"/>
   <path transform="scale(.26458)" d="m632 762.84v0.16406h-85.584c-5.493 0-9.916 2.2329-9.916 5.0059 0 0.52294 0.15913 1.027 0.45117 1.5h-0.44531c0.30916 2.0361 1.241 3.9979 2.8164 5.5723l165.6 165.49c3.9206 3.9181 10.234 3.9181 14.154 0l165.6-165.49c1.5757-1.5746 2.5072-3.5358 2.8164-5.5723h-0.44531c0.29216-0.47304 0.45117-0.97706 0.45117-1.5 0-2.773-4.423-5.0059-9.916-5.0059h-85.584v-0.16406z" fill="#730d0d" filter="url(#filter1456)" stroke="#590d0d" stroke-width="10"/>
  </g>
  <rect x="69.85" y="67.998" width="10.583" height="119.06" rx="5.2917" ry="5.2917" fill="#c32222"/>
 </g>
</svg>
