<?xml version="1.0" encoding="UTF-8"?>
<!-- Created with Inkscape (http://www.inkscape.org/) -->
<svg width="256" height="256" version="1.1" viewBox="0 0 67.733 67.733" xmlns="http://www.w3.org/2000/svg">
 <path d="m20.707 1.1297 37.318 6.987c0.39557 0.074068 0.71238 0.54183 0.71238 1.0492v49.454c0 0.50736-0.31681 0.97512-0.71238 1.0492l-37.318 6.987c-1.9163 0.0199-1.1646-0.30729-1.1646-0.95984v-63.606c0-0.65255-0.45734-1.2024 1.1646-0.95984z" fill="#346598"/>
 <path d="m19.997 1.0721c-0.75676 0.024647-0.45489 0.48723-0.45489 1.0174v63.606c0 0.65255-0.75195 0.97981 1.1644 0.95991l4.2748-0.8006v-63.925l-4.2748-0.8006c-0.30412-0.045486-0.53484-0.063202-0.70948-0.057514z" fill="#28527a"/>
 <path d="m19.738 1.0586c-3.7864 0.0032112-7.5349 0.95341-10.028 2.9485-0.52621 0.45109-0.71353 0.78923-0.71353 1.3737v56.972c0 0.58449 0.17728 0.77989 0.81276 1.3021 2.3431 1.7847 6.1263 3.0243 9.9289 3.02 0.63507-0.0047 1.003-0.22255 1.003-0.87772v-63.861c0-0.65517-0.29674-0.88723-1.003-0.87772z" fill="#1a344e"/>
 <path d="m16.625 27.236-0.52346 0.03304v0.24313c0 0.11178-0.02089 0.19106-0.06253 0.2382-0.03698 0.05241-0.09951 0.08122-0.18714 0.0863l-2.9489 0.17061c-0.08696 5e-3 -0.14994-0.01575-0.18898-0.06215-0.039-0.04097-0.05856-0.1153-0.05856-0.2234v-0.23514l-0.47828 0.03019v1.9284l0.47828-0.02106v-0.23514c0-0.10269 0.01954-0.17913 0.05856-0.22968 0.03903-0.05059 0.10016-0.07802 0.18277-0.08209l3.7282-0.18383zm-0.09854 12.968-0.64014-0.03835v0.9454l0.64014 0.04413zm-0.0066-10.478-0.51582 0.0204v0.17543c0 0.16191-0.02086 0.27723-0.06241 0.34566-0.03692 0.0682-0.11021 0.11801-0.22063 0.14956l-3.5438 1.0865v0.70979l2.4247 0.90982-2.4247 0.96246v0.70211l3.5438 1.0249c0.11043 0.02989 0.18372 0.07922 0.22063 0.14689 0.04156 0.06781 0.06241 0.1822 0.06241 0.34412v0.18463l0.51582 0.01278v-1.2877l-3.151-0.84796 2.393-0.89955v-0.70194l-2.393-0.85617 3.1509-0.88596zm-0.17508 13.668-0.23658-0.90984-0.74453-0.06097v-0.64927l-0.49068-0.03713v0.64621l-1.7477-0.14311c-0.34414-0.02818-0.60377 0.06365-0.78056 0.27528-0.17617 0.2109-0.26412 0.53929-0.26412 0.98535 0 0.28483 0.03222 0.53522 0.09652 0.75148 0.06438 0.21653 0.15678 0.42014 0.27742 0.611l0.49432 0.05356v-0.73962l-0.28013-0.02831c-0.08224-0.13254-0.12359-0.31767-0.12359-0.55522 0-0.18356 0.04135-0.31722 0.12359-0.40151 0.08237-0.07901 0.21916-0.11025 0.41094-0.09292l1.7932 0.16203v1.1929l0.49068 0.04998v-1.1986zm-0.87873-31.249c0-0.34438-0.04568-0.62882-0.13701-0.85329-0.08661-0.21954-0.22735-0.4022-0.42229-0.54689l0.45688-0.15194v-1.065l-0.51104 0.11952v0.17411c0 0.11043-0.0204 0.19227-0.06105 0.24578-0.0361 0.05243-0.09959 0.08893-0.18963 0.10957l-1.7051 0.39102c-0.08695 0.01994-0.14993 0.01002-0.18896-0.02974-0.03467-0.03527-0.05236-0.10669-0.05236-0.21478v-0.2025l-0.47829 0.11205v1.8475l0.47828-0.1033v-0.2108c0-0.10269 0.01769-0.17917 0.05236-0.23005 0.03903-0.04647 0.102-0.07954 0.18896-0.09874l1.3353-0.29479c0.23278-0.05139 0.41484-3.82e-4 0.54558 0.15296 0.13107 0.15373 0.19675 0.37118 0.19675 0.65312 0 0.25983-0.05207 0.45893-0.15607 0.59639-0.09928 0.13626-0.26133 0.22744-0.48557 0.27326l-2.1556 0.4404v1.3877l0.47828-0.09114v-0.22684c0-0.10809 0.01769-0.18994 0.05236-0.24536 0.03903-0.05088 0.102-0.08532 0.18896-0.10235l1.4429-0.28246c0.74836-0.1465 1.1264-0.66454 1.1264-1.5533zm0 4.3907c0-0.68321-0.15507-1.1695-0.46426-1.4573-0.30285-0.28145-0.72486-0.37057-1.2629-0.27044-0.52811 0.09828-0.93576 0.34163-1.2259 0.72978-0.28852 0.38594-0.43227 0.90581-0.43227 1.5615 0 0.65566 0.14375 1.1277 0.43227 1.4176 0.29018 0.29156 0.69782 0.39981 1.2259 0.32229 0.53808-0.07898 0.96009-0.31215 1.2629-0.69995 0.30918-0.38524 0.46426-0.92016 0.46426-1.6034zm0 8.2547c-0.0091-0.61981-0.16007-1.0874-0.45081-1.4019-0.29391-0.3177-0.73147-0.44486-1.3094-0.38349-0.53652 0.05697-0.94199 0.28374-1.219 0.67958-0.2712 0.39864-0.40618 0.90375-0.40618 1.5164 0 0.3547 0.03222 0.65818 0.09652 0.91127 0.06009 0.25912 0.1548 0.49753 0.28406 0.71479l0.45468-0.03172v-0.75605l-0.23427 0.01808c-0.0563-0.10913-0.09721-0.23302-0.12314-0.37135-0.02161-0.13861-0.03276-0.30995-0.03276-0.51507 0-0.36166 0.08222-0.65811 0.2469-0.88978 0.16957-0.22743 0.43185-0.35906 0.78768-0.39383v3.002l0.30506-0.02087c0.48566-0.03322 0.87434-0.21983 1.1638-0.56089 0.2911-0.34298 0.43686-0.82916 0.43686-1.4568 0-0.02031 2.95e-4 -0.04042 0-0.06041zm0 22.671c-0.0091-0.6218-0.16007-1.1222-0.45081-1.4999-0.29391-0.3816-0.73147-0.60389-1.3094-0.66816-0.53652-0.05967-0.94199 0.07894-1.219 0.41456-0.2712 0.33968-0.40618 0.81544-0.40618 1.4281 0 0.3547 0.03222 0.66519 0.09652 0.93226 0.06009 0.27218 0.1548 0.53118 0.28406 0.77655l0.45468 0.06714v-0.75606l-0.23427-0.03284c-0.0563-0.12137-0.09721-0.25415-0.12314-0.39812-0.02161-0.14331-0.03276-0.31766-0.03276-0.52278 0-0.36166 0.08222-0.64024 0.2469-0.83611 0.16957-0.19056 0.43185-0.26458 0.78768-0.22199v3.002l0.30506 0.04545c0.48566 0.07236 0.87434-0.02975 1.1638-0.30787 0.2911-0.27969 0.43686-0.73418 0.43686-1.3618 0-0.02031 2.95e-4 -0.04037 0-0.06041zm-0.10242-28.936-0.4703 0.06937v0.17418c0 0.1381-0.01361 0.23383-0.04073 0.28742-0.0226 0.05844-0.07015 0.10673-0.14233 0.14456l-2.5331 1.4729v0.88768l2.5331 0.82361c0.07219 0.02509 0.11974 0.06134 0.14233 0.10855 0.02712 0.05225 0.04073 0.14454 0.04073 0.27712v0.18268l0.4703-0.0496v-1.1571l-2.506-0.71514 2.506-1.3491zm0 18.004-0.50459-0.01278v0.17412c0 0.10492-0.0204 0.1791-0.06106 0.22209-0.04062 0.04296-0.10361 0.063-0.18916 0.06046l-1.7121-0.05101c-0.08695-0.0026-0.14993-0.02889-0.18896-0.07871-0.03467-0.04425-0.05236-0.12025-0.05236-0.22835v-0.20308l-0.47829-0.01188v1.848l0.47828 0.02063v-0.20248c0-0.10269 0.01769-0.17518 0.05236-0.21707 0.03903-0.04175 0.102-0.06085 0.18896-0.05752l1.2618 0.04838c0.23692 0.0091 0.41198 0.08146 0.5245 0.21816 0.11728 0.13718 0.17602 0.36332 0.17602 0.67808v0.46412l0.50459 0.02584v-0.38286c0-0.23861-0.02746-0.44789-0.08219-0.62769-0.05466-0.17407-0.15242-0.31896-0.2931-0.43496l0.37529-0.10299zm0 3.0799-0.51104-0.02805v0.24023c0 0.11043-0.0204 0.18636-0.06105 0.22811-0.0361 0.0475-0.09716 0.06873-0.18271 0.06358l-1.7058-0.10262c-0.08696-0.0052-0.14994-0.03344-0.18898-0.08444-0.039-0.04556-0.05856-0.12221-0.05856-0.23031v-0.23514l-0.47828-0.02624v1.9284l0.47828 0.03538v-0.23514c0-0.10269 0.01955-0.17682 0.05856-0.22276 0.03903-0.04598 0.10016-0.0662 0.18277-0.06052l2.4669 0.16948zm0 10.405-0.50459-0.07809v0.17351c0 0.10492-0.0204 0.17647-0.06106 0.21418-0.04062 0.0377-0.10361 0.04959-0.18916 0.03597l-1.7121-0.2726c-0.08695-0.01385-0.14993-0.04829-0.18896-0.10316-0.03467-0.04874-0.05236-0.12703-0.05236-0.23513v-0.20249l-0.47829-0.07379v1.8475l0.47828 0.08254v-0.20248c0-0.10269 0.01769-0.17288 0.05236-0.21029 0.03903-0.03671 0.102-0.04765 0.18896-0.03306l1.2618 0.21169c0.23692 0.03974 0.41198 0.1354 0.5245 0.28665 0.11728 0.15236 0.17602 0.3861 0.17602 0.70087v0.46351l0.50459 0.09115v-0.38286c0-0.23861-0.02746-0.45144-0.08219-0.63832-0.05466-0.18114-0.15242-0.33868-0.2931-0.4729l0.37529-0.0538zm-0.38925-25.129c0 0.7021-0.32952 1.0784-0.98269 1.1285v-2.1688c0.30319-0.02963 0.54304 0.04335 0.71855 0.21936 0.17611 0.17661 0.26415 0.45058 0.26415 0.82099zm0 22.564c0 0.7021-0.32952 1.0068-0.98269 0.91484v-2.1682c0.30319 0.03628 0.54304 0.16141 0.71855 0.37558 0.17611 0.2149 0.26415 0.5074 0.26415 0.8778zm-0.02041-30.828c0 0.39796-0.10161 0.70996-0.30462 0.93528-0.19774 0.22374-0.50192 0.36725-0.91053 0.43062-0.40098 0.06219-0.6963 0.01297-0.88795-0.14666-0.19093-0.15903-0.28625-0.43276-0.28625-0.82156 0-0.3888 0.09532-0.69426 0.28624-0.91685 0.19165-0.218 0.48697-0.36259 0.88795-0.43384 0.4086-0.07261 0.71279-0.03329 0.91052 0.11913 0.20302 0.15774 0.30462 0.43592 0.30462 0.83388z" fill="#d4d4d4"/>
 <path d="m29.498 34.351 1.2554-0.0035c0.66183-0.0018 1.122-0.14472 1.3837-0.42803 0.2935-0.31764 0.43986-0.82859 0.43986-1.5337v-13.591c0-0.70512-0.13008-1.2117-0.39087-1.5205-0.26162-0.34516-0.72148-0.55253-1.3829-0.62169l-1.0526-0.11006v-4.035l6.2152 0.80096 0.27993 3.4996c1.0487-1.3598 2.2197-2.2769 3.5073-2.7588 1.2959-0.5036 2.8285-0.63289 4.5832-0.39822 4.3479 0.58147 6.4295 3.4598 6.4295 8.6597v10.243c0 0.6265 0.10253 1.0809 0.30717 1.3626 0.22952 0.24963 0.59778 0.37345 1.1027 0.37206l1.0488-0.0029v3.4181l-6.6961 0.1791v-15.862c0-1.612-0.28587-2.8008-0.86091-3.5706-0.57948-0.80835-1.5272-1.2873-2.8572-1.4341-1.4698-0.16225-2.7016 0.18938-3.6834 1.0654-0.9942 0.8872-1.4961 2.2233-1.4961 3.9998v10.352c0 0.68328 0.10672 1.1788 0.31973 1.4861 0.24274 0.2723 0.65066 0.40734 1.2212 0.40577l1.1582-0.0032v3.7274l-10.832 0.28972z" fill="#ededed"/>
</svg>
