<?xml version="1.0" encoding="UTF-8"?>
<!-- Created with Inkscape (http://www.inkscape.org/) -->
<svg width="256" height="256" version="1.1" viewBox="0 0 67.733 67.733" xmlns="http://www.w3.org/2000/svg">
 <path d="m12.869 1.7145c-2.9081 0-5.2493 2.3412-5.2493 5.2493v53.806c0 2.9081 2.3412 5.2493 5.2493 5.2493h41.995c2.9081 0 5.2493-2.3412 5.2493-5.2493v-46.493l-12.562-12.562z" fill="#ececec" stroke="#999" stroke-linejoin="round" stroke-width="1.3123"/>
 <path d="m60.113 14.277-12.562-12.562v7.3128c0 2.9081 2.3412 5.2493 5.2493 5.2493z" fill="#e0e0e0" stroke="#999" stroke-linejoin="round" stroke-width="1.3123"/>
 <path d="m34.617 50.796c-0.31888 0-0.57319 0.09267-0.7628 0.27797-0.1853 0.18099-0.27797 0.41156-0.27797 0.69167 0 0.2758 0.09268 0.50636 0.27797 0.69166 0.18961 0.18099 0.44392 0.27144 0.7628 0.27144s0.57306-0.09044 0.76266-0.27144c0.18961-0.1853 0.28438-0.41587 0.28438-0.69166 0-0.28011-0.09477-0.51067-0.28438-0.69167-0.18961-0.1853-0.44378-0.27797-0.76266-0.27797zm-21.512 0.36204v9.4116h1.9456v-3.3226h1.7323c1.1118 0 1.978-0.26924 2.5985-0.8079 0.62484-0.53867 0.93722-1.2627 0.93722-2.172 0-0.90065-0.31238-1.644-0.93722-2.2301-0.62053-0.58607-1.4867-0.87903-2.5985-0.87903zm38.395 0.69154v1.7259h-1.0278v1.364h1.0278v3.6909c0 0.74121 0.1809 1.2713 0.54287 1.5902 0.36198 0.31889 0.84896 0.47828 1.4609 0.47828 0.40076 0 0.77566-0.0582 1.1247-0.17455v-1.4156c-0.17237 0.03448-0.3534 0.05178-0.543 0.05178-0.23701 0-0.41581-0.04745-0.53647-0.14226-0.12066-0.09481-0.18096-0.28867-0.18096-0.58171v-3.497h1.1893v-1.364h-1.1893v-1.7259zm-36.45 0.87916h1.7323c0.55589 0 0.95662 0.15729 1.2022 0.47188 0.24562 0.31027 0.36845 0.67008 0.36845 1.0795 0 0.40939-0.12283 0.7456-0.36845 1.0085-0.24562 0.26287-0.64636 0.39421-1.2022 0.39421h-1.7323zm9.8574 0.71755c-0.67224 0-1.1915 0.32101-1.5578 0.96311l-0.05818-0.83392h-1.7646v6.9942h1.8744v-4.583c0.21977-0.47834 0.68093-0.71756 1.3833-0.71756l0.67872 0.05178 0.01934-1.7906c-0.14651-0.05602-0.33829-0.08395-0.5753-0.08395zm4.2402 0c-1.0514 0-1.8659 0.34041-2.4433 1.0213-0.57743 0.67657-0.86609 1.5233-0.86609 2.5403v0.21979c0.01724 0.99546 0.31244 1.8228 0.88557 2.4822 0.57743 0.65933 1.3897 0.98899 2.4368 0.98899 1.0558 0 1.8702-0.33831 2.4433-1.0149 0.57312-0.67657 0.85968-1.5233 0.85968-2.5403v-0.13572c0-1.017-0.28655-1.8638-0.85968-2.5403-0.57313-0.68088-1.3919-1.0213-2.4563-1.0213zm10.93 0c-0.99974 0-1.7948 0.33819-2.3851 1.0148-0.58605 0.67657-0.87903 1.5429-0.87903 2.5987v0.27144c0.0043 0.93082 0.31236 1.7259 0.92427 2.3853 0.61191 0.65502 1.4608 0.98246 2.5467 0.98246 0.68085 0 1.2498-0.13134 1.7065-0.39421 0.45678-0.26287 0.79721-0.55386 1.0213-0.87275l-0.9244-1.0213c-0.41368 0.52143-0.97605 0.78214-1.6871 0.78214-0.47832 0-0.86398-0.13789-1.157-0.41369-0.29303-0.28011-0.47183-0.64634-0.53647-1.0988h4.4536v-0.79509c0-1.0342-0.26296-1.8659-0.78868-2.4951-0.52572-0.62917-1.2906-0.94376-2.2947-0.94376zm7.0715 0c-1.0816 0-1.8896 0.34251-2.424 1.0277-0.53434 0.68519-0.8015 1.5212-0.8015 2.508v0.18108c0 0.99115 0.26716 1.8293 0.8015 2.5145 0.53865 0.68088 1.3488 1.0213 2.4304 1.0213 0.81013 0 1.4932-0.23909 2.0491-0.71743 0.5602-0.47834 0.84453-1.0881 0.85314-1.8293h-1.7581c-0.0043 0.31889-0.11639 0.57306-0.33616 0.76267-0.21977 0.1853-0.4999 0.27797-0.84033 0.27797-0.55158 0-0.91141-0.20251-1.0795-0.6076-0.16375-0.40939-0.24555-0.88337-0.24555-1.422 0-0.65933 0.08403-1.1916 0.25208-1.5967 0.16806-0.40939 0.52357-0.614 1.0665-0.614 0.37921 0 0.67009 0.12059 0.87262 0.36192 0.20253 0.23702 0.30596 0.52578 0.31027 0.86622h1.7581c-0.0086-0.84032-0.2822-1.5061-0.82085-1.9973-0.53434-0.49127-1.2303-0.73691-2.0878-0.73691zm-13.432 0.12918v7.382c0 0.60331-0.28223 0.90492-0.84674 0.90492-0.19822 0-0.39643-0.01939-0.59465-0.05818v1.4803c0.29734 0.07326 0.60972 0.10983 0.93722 0.10983 0.75411 0 1.338-0.20894 1.7517-0.62695 0.41799-0.41801 0.62707-1.0214 0.62707-1.81v-7.382zm-4.57 1.3769c0.53003 0 0.90284 0.20462 1.1183 0.614 0.21977 0.40508 0.32962 0.88561 0.32962 1.4415 0 0.66364-0.10985 1.1937-0.32962 1.5902-0.21546 0.39646-0.58395 0.59465-1.1054 0.59465-0.53004 0-0.90494-0.19819-1.1247-0.59465-0.21546-0.40077-0.32321-0.88562-0.32321-1.4545 0-0.65072 0.10775-1.1786 0.32321-1.5836 0.21546-0.40508 0.58604-0.6076 1.1118-0.6076zm10.917 0c0.43092 0 0.7454 0.12492 0.94362 0.37486 0.20254 0.24563 0.30819 0.5559 0.3168 0.93081v0.14226h-2.5985c0.06464-0.43094 0.20477-0.78 0.42023-1.0472 0.21546-0.26718 0.52142-0.40075 0.91786-0.40075z" fill="#666" stroke-width=".1773" style="shape-inside:url(#rect2964);white-space:pre"/>
 <path d="m16.933 38.766h1.5478q1.2383 0 1.7336-0.49531 0.55722-0.55722 0.55722-1.7955v-15.912q0-1.2383-0.49531-1.7336-0.49531-0.55722-1.7336-0.55722h-1.3002v-4.6435h7.9249l0.37148 4.1482q2.1051-2.6623 4.7673-3.8386 2.7242-1.2383 6.5628-1.2383 9.9062 0 9.9062 10.278v13.497q0 1.2383 0.49531 1.7955 0.55722 0.49531 1.7955 0.49531h1.7336v4.5816h-10.649v-20.308q0-3.0957-1.3002-4.4578-1.3002-1.424-4.2101-1.424-3.1576 0-5.2007 1.7955-2.0431 1.7955-2.0431 5.015v12.507q0 1.2383 0.43339 1.7955 0.49531 0.49531 1.6717 0.49531h1.6098v4.5816h-14.178z" fill="#346598" stroke-linecap="round" stroke-width=".16123"/>
</svg>
