<?xml version="1.0" encoding="UTF-8"?>
<svg width="1024" height="1024" version="1.1" viewBox="0 0 270.93 270.93" xmlns="http://www.w3.org/2000/svg" xmlns:cc="http://creativecommons.org/ns#" xmlns:dc="http://purl.org/dc/elements/1.1/" xmlns:rdf="http://www.w3.org/1999/02/22-rdf-syntax-ns#">
 <metadata>
  <rdf:RDF>
   <cc:Work rdf:about="">
    <dc:format>image/svg+xml</dc:format>
    <dc:type rdf:resource="http://purl.org/dc/dcmitype/StillImage"/>
   </cc:Work>
  </rdf:RDF>
 </metadata>
 <g>
  <g stroke-linejoin="round">
   <path d="m50.8 5.8208c-11.726 0-21.167 9.4403-21.167 21.167v216.96c0 11.726 9.4403 21.167 21.167 21.167h169.33c11.726 0 21.167-9.4403 21.167-21.167v-187.47l-50.653-50.654z" fill="#ececec" stroke="#999" stroke-width="5.2917"/>
   <path d="m241.3 56.474-50.653-50.654v29.487c0 11.726 9.4403 21.167 21.167 21.167z" fill="#e0e0e0" stroke="#999" stroke-width="5.2917"/>
   <path d="m83.055 26.021c-9.2638 0-16.721 8.0908-16.721 18.14v45.35a58.526 63.491 0 0 0 0 4.53e-4 58.526 63.491 0 0 0 0 0.0046v45.347c0 10.05 7.4577 18.14 16.721 18.14 9.2638 0 16.721-8.0908 16.721-18.14v-45.351a25.083 27.21 0 0 1 25.083-27.21 25.083 27.21 0 0 1 25.083 27.21v64.134h33.443v-64.134a58.526 63.491 0 0 0-58.526-63.491 58.526 63.491 0 0 0-0.1695 0 58.526 63.491 0 0 0-27.897 7.7773c-3.015-4.7057-8.0322-7.7778-13.738-7.7778z" fill="#a11212" filter="url(#filter1444)" stroke="#7e1b1b" stroke-width="2.1771"/>
   <path d="m149.94 153.65v0.0372h-17.889c-1.1482 0-2.0727 0.50632-2.0727 1.1351 0 0.11857 0.0333 0.23286 0.0943 0.34013h-0.0931c0.0646 0.46168 0.25939 0.90654 0.58868 1.2635l34.614 37.526c0.81949 0.88844 2.1391 0.88845 2.9585 0l34.614-37.526c0.32936-0.35705 0.52407-0.80175 0.58869-1.2635h-0.0931c0.0611-0.10727 0.0943-0.22156 0.0943-0.34013 0-0.62878-0.92451-1.1351-2.0727-1.1351h-17.889v-0.0372z" fill="#730d0d" filter="url(#filter1456)" stroke="#590d0d" stroke-width="2.1771"/>
  </g>
  <rect x="73.022" y="38.946" width="8.3608" height="102.04" rx="4.1804" ry="4.5351" fill="#c32222"/>
 </g>
 <g fill="#666" stroke-width=".7149">
  <path d="m219.18 242.96q-2.1112 0.70374-4.5351 0.70374-3.701 0-5.8904-1.9288-2.1894-1.9288-2.1894-6.4119v-14.883h-4.1441v-5.4996h4.1441v-6.9593h7.5324v6.9593h4.7957v5.4996h-4.7957v14.101q0 1.7724 0.72979 2.3458 0.72978 0.57343 2.1633 0.57343 1.1468 0 2.1894-0.20852z" style="shape-inside:url(#rect2964);white-space:pre"/>
  <path d="m188.92 237.59q2.059 0 3.3883-1.1208 1.3292-1.1468 1.3553-3.0756h7.0894q-0.0521 4.4831-3.4404 7.3763-3.3622 2.8932-8.2622 2.8932-6.542 0-9.8-4.1182-3.2319-4.1443-3.2319-10.139v-0.72981q0-5.9688 3.2319-10.113t9.7739-4.1443q5.1867 0 8.4186 2.9714 3.258 2.9714 3.3101 8.054h-7.0894q-0.0261-2.0591-1.2511-3.4927-1.225-1.4596-3.5186-1.4596-3.284 0-4.3005 2.4761-1.0165 2.4501-1.0165 6.438 0 3.2581 0.99043 5.7342 1.0165 2.4501 4.3526 2.4501z" style="shape-inside:url(#rect2964);white-space:pre"/>
  <path d="m172.35 238.55q-1.3553 1.9288-4.1181 3.5187t-6.8808 1.5899q-6.5681 0-10.269-3.9618-3.7011-3.9879-3.7271-9.6179v-1.0947q0-6.3858 3.5447-10.478 3.5707-4.0922 9.6175-4.0922 6.0729 0 9.2526 3.8054 3.1798 3.8054 3.1798 10.061v3.206h-17.958q0.39096 2.7368 2.1633 4.431 1.7723 1.6681 4.6654 1.6681 4.3005 0 6.8026-3.1538zm-11.885-18.063q-2.3979 0-3.7011 1.616t-1.6941 4.2225h10.478v-0.57342q-0.0521-2.2676-1.2771-3.7533-1.1989-1.5118-3.8053-1.5118z" style="shape-inside:url(#rect2964);white-space:pre"/>
  <path d="m134.29 207.64q0-1.6942 1.1208-2.7889 1.1468-1.1208 3.0755-1.1208 1.9287 0 3.0755 1.1208 1.1468 1.0947 1.1468 2.7889 0 1.6681-1.1468 2.7889-1.1468 1.0947-3.0755 1.0947-1.9287 0-3.0755-1.0947-1.1208-1.1208-1.1208-2.7889zm0.57341 7.2981h7.5585v29.766q0 4.7698-2.5282 7.2981-2.5021 2.5283-7.0633 2.5283-1.9808 0-3.7792-0.4431v-5.9688q1.1989 0.23458 2.3979 0.23458 3.4144 0 3.4144-3.649z" style="shape-inside:url(#rect2964);white-space:pre"/>
  <path d="m103.1 228.78q0-6.1513 3.4926-10.243 3.4926-4.1182 9.8521-4.1182 6.4378 0 9.9042 4.1182 3.4665 4.0922 3.4665 10.243v0.54736q0 6.1512-3.4665 10.243-3.4665 4.0922-9.8521 4.0922-6.3335 0-9.826-3.9879-3.4665-3.9879-3.5707-10.009zm7.5585 0.54736q0 3.4405 1.3032 5.8645 1.3292 2.398 4.5351 2.398 3.1537 0 4.4569-2.398 1.3293-2.398 1.3293-6.4119 0-3.3623-1.3293-5.8124-1.3032-2.4761-4.509-2.4761-3.1798 0-4.483 2.4501-1.3032 2.4501-1.3032 6.3858z" style="shape-inside:url(#rect2964);white-space:pre"/>
  <path d="m98.847 221.77q-4.2484 0-5.5777 2.8932v18.48h-7.5585v-28.202h7.1154l0.23457 3.3623q2.2154-3.8836 6.2814-3.8836 1.4335 0 2.3197 0.33884l-0.0782 7.2199z" style="shape-inside:url(#rect2964);white-space:pre"/>
  <path d="m59.595 229.74v13.397h-7.8452v-37.95h14.83q6.7245 0 10.478 3.5448 3.7792 3.5448 3.7792 8.9923 0 5.4996-3.7792 8.7577-3.7532 3.2581-10.478 3.2581zm0-18.219v11.912h6.9851q3.3622 0 4.8479-1.59 1.4856-1.5899 1.4856-4.0661t-1.4856-4.3528q-1.4856-1.9027-4.8479-1.9027z" style="shape-inside:url(#rect2964);white-space:pre"/>
 </g>
</svg>
