<?xml version="1.0" encoding="UTF-8" standalone="no"?>
<svg
   xmlns:dc="http://purl.org/dc/elements/1.1/"
   xmlns:cc="http://creativecommons.org/ns#"
   xmlns:rdf="http://www.w3.org/1999/02/22-rdf-syntax-ns#"
   xmlns:svg="http://www.w3.org/2000/svg"
   xmlns="http://www.w3.org/2000/svg"
   xmlns:xlink="http://www.w3.org/1999/xlink"
   id="svg8"
   version="1.1"
   viewBox="0 0 270.93333 270.93334"
   height="1024"
   width="1024">
  <defs
     id="defs2">
    <linearGradient
       id="linearGradient2515">
      <stop
         style="stop-color:#f7f7f7;stop-opacity:1"
         offset="0"
         id="stop2511" />
      <stop
         style="stop-color:#e5e5e5;stop-opacity:1"
         offset="1"
         id="stop2513" />
    </linearGradient>
    <rect
       x="60.484347"
       y="205.79962"
       width="130.57787"
       height="65.785888"
       id="rect852" />
    <rect
       id="rect1474"
       height="28.631245"
       width="177.70083"
       y="18.019813"
       x="13.463703" />
    <rect
       id="rect852-7"
       height="65.785889"
       width="130.57787"
       y="205.79962"
       x="60.484348" />
    <rect
       id="rect1544"
       height="65.785889"
       width="130.57787"
       y="205.79962"
       x="60.484348" />
    <rect
       x="60.484348"
       y="205.79962"
       width="130.57787"
       height="65.785889"
       id="rect1570" />
    <rect
       x="13.463703"
       y="18.019813"
       width="177.70083"
       height="28.631245"
       id="rect1587" />
    <filter
       id="filter1444"
       style="color-interpolation-filters:sRGB">
      <feFlood
         id="feFlood1434"
         result="flood"
         flood-color="rgb(0,0,0)"
         flood-opacity="0.498039" />
      <feComposite
         id="feComposite1436"
         result="composite1"
         operator="in"
         in2="SourceGraphic"
         in="flood" />
      <feGaussianBlur
         id="feGaussianBlur1438"
         result="blur"
         stdDeviation="3"
         in="composite1" />
      <feOffset
         id="feOffset1440"
         result="offset"
         dy="6"
         dx="6" />
      <feComposite
         id="feComposite1442"
         result="composite2"
         operator="over"
         in2="offset"
         in="SourceGraphic" />
    </filter>
    <filter
       id="filter1456"
       style="color-interpolation-filters:sRGB">
      <feFlood
         id="feFlood1446"
         result="flood"
         flood-color="rgb(0,0,0)"
         flood-opacity="0.498039" />
      <feComposite
         id="feComposite1448"
         result="composite1"
         operator="in"
         in2="SourceGraphic"
         in="flood" />
      <feGaussianBlur
         id="feGaussianBlur1450"
         result="blur"
         stdDeviation="3"
         in="composite1" />
      <feOffset
         id="feOffset1452"
         result="offset"
         dy="6"
         dx="6" />
      <feComposite
         id="feComposite1454"
         result="composite2"
         operator="over"
         in2="offset"
         in="SourceGraphic" />
    </filter>
    <radialGradient
       xlink:href="#linearGradient2515"
       id="radialGradient2517"
       cx="605.42725"
       cy="623.97186"
       fx="605.42725"
       fy="623.97186"
       r="410"
       gradientTransform="matrix(2.4110274,1.7617596,-0.719517,0.98463462,-776.23441,-1372.7537)"
       gradientUnits="userSpaceOnUse" />
  </defs>
  <metadata
     id="metadata5">
    <rdf:RDF>
      <cc:Work
         rdf:about="">
        <dc:format>image/svg+xml</dc:format>
        <dc:type
           rdf:resource="http://purl.org/dc/dcmitype/StillImage" />
        <dc:title></dc:title>
      </cc:Work>
    </rdf:RDF>
  </metadata>
  <g
     id="layer3"
     style="display:inline">
    <path
       clip-path="none"
       transform="scale(0.26458333)"
       d="m 192,22 c -44.32,0 -80,35.680002 -80,80 v 820 c 0,44.32002 35.68,80 80,80 h 640 c 44.31999,0 80,-35.67998 80,-80 V 213.44727 L 720.55469,22 Z"
       style="fill:url(#radialGradient2517);fill-opacity:1;stroke:#999999;stroke-width:20;stroke-linejoin:round;stroke-miterlimit:4;stroke-dasharray:none;stroke-opacity:1"
       id="rect1481" />
    <path
       id="path1490"
       style="display:inline;fill:#e0e0e0;fill-opacity:1;stroke:#999999;stroke-width:5.29167;stroke-linejoin:round;stroke-miterlimit:4;stroke-dasharray:none;stroke-opacity:1"
       d="M 241.30037,56.474215 190.64713,5.8204593 V 35.307549 c 0,11.726333 9.44034,21.166666 21.16667,21.166666 z" />
    <g
       aria-label=".nwx"
       transform="matrix(1.7893481,0,0,1.782571,-45.41919,-191.90571)"
       id="text850"
       style="font-size:5.64444px;line-height:1.25;font-family:'Fira Sans';-inkscape-font-specification:'Fira Sans, Normal';letter-spacing:0px;word-spacing:0px;white-space:pre;shape-inside:url(#rect852);display:inline;fill:#666666;fill-opacity:1">
      <path
         d="m 63.088865,241.76928 q 0,-1.36426 0.909505,-2.27376 0.930175,-0.93018 2.480467,-0.93018 1.550291,0 2.459796,0.93018 0.909504,0.9095 0.909504,2.27376 0,1.34359 -0.909504,2.27376 -0.909505,0.9095 -2.459796,0.9095 -1.550292,0 -2.480467,-0.9095 -0.909505,-0.93017 -0.909505,-2.27376 z"
         style="font-style:normal;font-variant:normal;font-weight:bold;font-stretch:normal;font-size:42.3333px;font-family:Roboto;-inkscape-font-specification:'Roboto, Bold';font-variant-ligatures:normal;font-variant-caps:normal;font-variant-numeric:normal;font-variant-east-asian:normal;fill:#666666;fill-opacity:1"
         id="path856" />
      <path
         d="m 84.75161,226.78312 q -2.542479,0 -3.782712,2.14974 v 15.79231 h -5.973791 v -22.36554 h 5.601721 l 0.206705,2.56314 q 2.397785,-2.97656 6.428544,-2.97656 3.162595,0 5.105627,1.88103 1.943033,1.88102 1.963703,6.55256 v 14.34537 h -5.994461 v -14.26269 q 0,-2.14973 -0.930175,-2.91454 -0.909505,-0.76482 -2.625161,-0.76482 z"
         style="font-style:normal;font-variant:normal;font-weight:bold;font-stretch:normal;font-size:42.3333px;font-family:Roboto;-inkscape-font-specification:'Roboto, Bold';font-variant-ligatures:normal;font-variant-caps:normal;font-variant-numeric:normal;font-variant-east-asian:normal;fill:#666666;fill-opacity:1"
         id="path858" />
      <path
         d="m 126.96089,222.35963 -5.68441,22.36554 h -5.00227 l -4.25814,-14.07665 -4.23746,14.07665 h -4.9816 l -5.705078,-22.36554 h 5.767088 l 2.95589,14.22134 4.05143,-14.22134 h 4.32014 l 4.09277,14.20067 2.91455,-14.20067 z"
         style="font-style:normal;font-variant:normal;font-weight:bold;font-stretch:normal;font-size:42.3333px;font-family:Roboto;-inkscape-font-specification:'Roboto, Bold';font-variant-ligatures:normal;font-variant-caps:normal;font-variant-numeric:normal;font-variant-east-asian:normal;fill:#666666;fill-opacity:1"
         id="path860" />
      <path
         d="m 134.77436,222.35963 3.65869,6.65592 3.76204,-6.65592 h 6.3872 l -6.36653,10.93472 6.63525,11.43082 h -6.3872 l -4.01009,-7.04866 -3.94808,7.04866 h -6.42854 l 6.63525,-11.43082 -6.36654,-10.93472 z"
         style="font-style:normal;font-variant:normal;font-weight:bold;font-stretch:normal;font-size:42.3333px;font-family:Roboto;-inkscape-font-specification:'Roboto, Bold';font-variant-ligatures:normal;font-variant-caps:normal;font-variant-numeric:normal;font-variant-east-asian:normal;fill:#666666;fill-opacity:1"
         id="path862" />
    </g>
  </g>
  <g
     id="g2509"
     transform="matrix(1.2371037,0,0,1.2371037,206.3182,37.341857)">
    <path
       transform="matrix(0.16895991,0,0,0.18329422,-134.6942,-19.491243)"
       id="rect1406-1"
       style="display:inline;fill:#a11212;fill-opacity:1;stroke:#7e1b1b;stroke-width:9.99999;stroke-linejoin:round;stroke-miterlimit:4;stroke-dasharray:none;stroke-opacity:1;filter:url(#filter1444)"
       d="m 145.18984,56.414257 c -44.32,0 -79.999998,35.68 -79.999998,80.000003 v 199.99805 a 279.99999,279.99999 0 0 0 0,0.002 279.99999,279.99999 0 0 0 0,0.0195 v 199.98242 c 0,44.31999 35.679998,80 79.999998,80 44.32,0 80,-35.68001 80,-80 v -200 a 120,120 0 0 1 120,-120 120,120 0 0 1 120,120 v 282.83592 h 160 V 336.41621 a 279.99999,279.99999 0 0 0 -280,-280.000003 279.99999,279.99999 0 0 0 -0.81055,0 279.99999,279.99999 0 0 0 -133.46484,34.29688 c -14.4245,-20.75262 -38.42829,-34.29883 -65.72461,-34.29883 z M 376.65078,619.64082 c -0.62174,0.0972 -1.2172,0.22317 -1.7793,0.37696 0.5621,-0.15379 1.15756,-0.27973 1.7793,-0.37696 z m -1.7793,0.37696 c -0.5621,0.15378 -1.09071,0.33534 -1.58008,0.53906 0.48937,-0.20372 1.01798,-0.38528 1.58008,-0.53906 z m 338.85742,-0.37696 c 0.62174,0.0972 1.2172,0.22317 1.7793,0.37696 -0.5621,-0.15379 -1.15756,-0.27973 -1.7793,-0.37696 z m 1.7793,0.37696 c 0.5621,0.15378 1.09071,0.33534 1.58008,0.53906 -0.48938,-0.20372 -1.01798,-0.38528 -1.58008,-0.53906 z" />
    <path
       transform="matrix(0.16895991,0,0,0.18329422,-134.6942,-19.491243)"
       id="path897"
       style="display:inline;fill:#730d0d;fill-opacity:1;stroke:#590d0d;stroke-width:9.99999;stroke-linejoin:round;stroke-miterlimit:4;stroke-dasharray:none;stroke-opacity:1;filter:url(#filter1456)"
       d="m 465.18984,619.25215 v 0.16406 h -85.58398 c -5.49302,0 -9.91602,2.2329 -9.91602,5.00586 0,0.52294 0.15913,1.02696 0.45117,1.5 h -0.44531 c 0.30916,2.03607 1.24102,3.99791 2.81641,5.57227 l 165.59961,165.49414 c 3.92061,3.91808 10.23371,3.91812 14.15429,0 L 717.86757,631.49434 c 1.57569,-1.57463 2.50725,-3.53578 2.81641,-5.57227 h -0.44531 c 0.29216,-0.47304 0.45117,-0.97706 0.45117,-1.5 0,-2.77296 -4.42304,-5.00586 -9.91602,-5.00586 h -85.58398 v -0.16406 z" />
    <rect
       style="display:inline;fill:#c32222;fill-opacity:1;stroke:none;stroke-width:1.75982;stroke-linejoin:round;stroke-opacity:1"
       id="rect914"
       width="6.7583966"
       height="82.482399"
       x="-118.27303"
       y="1.2969339"
       rx="3.3791983"
       ry="3.6658845" />
  </g>
</svg>
